<?xml version="1.0" encoding="utf-8"?>
<!-- Generator: Adobe Illustrator 27.8.1, SVG Export Plug-In . SVG Version: 6.00 Build 0)  -->
<svg version="1.1" id="visual" xmlns="http://www.w3.org/2000/svg" xmlns:xlink="http://www.w3.org/1999/xlink" x="0px" y="0px"
	 viewBox="0 0 960 540" style="enable-background:new 0 0 960 540;" xml:space="preserve">
<style type="text/css">
	.st0{fill:#333333;}
	.st1{fill:none;stroke:#FFC849;stroke-width:3.8722;stroke-miterlimit:10;}
	.st2{fill:#ED8C6B;}
	.st3{fill:#FFC849;}
	.st4{fill:#FD521B;}
	.st5{fill:#5774CD;}
	.st6{fill:none;stroke:#FFFFFF;stroke-width:0.7744;stroke-linecap:round;stroke-miterlimit:10;}
	.st7{fill:none;stroke:#FD521B;stroke-width:1.5489;stroke-linecap:round;stroke-miterlimit:10;}
</style>
<g transform="translate(-12.25668039397101 -0.31320015360842035)">
	<path class="st0" d="M122.1-315.5c49.1,45.1,110.9,57,150.2,93.7c39.3,36.6,56.2,98,44.3,152.7c-12,54.6-52.8,102.4-99.1,132.5
		S119.4,105.9,64.3,135C9.1,164-49.4,209.7-111,215c-61.7,5.3-126.5-29.9-158.2-84c-31.6-54.1-30.2-127.1-20.6-189.4
		s27.4-113.8,58.7-149.4c31.4-35.6,76.4-55.3,117.2-104.2C-73.2-360.8-36.6-438.9,0-438.9C36.5-438.8,73-360.6,122.1-315.5"/>
</g>
<line class="st1" x1="830.4" y1="262.5" x2="830.4" y2="0.3"/>
<g id="오른쪽_손_00000001662738028098963380000017942769778253481913_">
	<g>
		<g>
			<path class="st2" d="M876.8,310.7c0,0-0.4,16-8,25.7c-6.4,8.1-12.7,9.3-15.5,9.1c-0.7,0-1.3-0.5-1.4-1.2l0,0
				c-0.2-1.2,0.4-2.3,1.4-2.8c1.3-0.6,3.2-1.6,5.3-3.4c4-3.4,6.3-11.8,6.3-11.8l2.6-14.4L876.8,310.7z"/>
		</g>
		<g>
			<path class="st2" d="M863.5,310.6c0,0-1.9,11.5-3.6,17.4c-1.7,5.9-0.3,6.7,1.6,7.2c3,0.7,4.8-4.8,5.8-8.3c1-3.5,2.7-3.4,2.7-3.4
				l-0.8-14.8L863.5,310.6z"/>
		</g>
		<g>
			<path class="st2" d="M872.7,311.1c0,0,0.5,14.1-6.7,25.2c-5.6,8.7-12.6,9.2-15.4,9.1c-0.7,0-1.3-0.6-1.5-1.3l0,0
				c-0.2-1.1,0.4-2.3,1.4-2.8c1.3-0.6,3.2-1.6,5.3-3.4c4-3.4,6.3-11.8,6.3-11.8l2.6-14.4L872.7,311.1z"/>
		</g>
		<g>
			<path class="st2" d="M874.6,313.5c0,0-2.6,12.3-10.5,21.1c-5.5,6.2-10.6,6.6-13.1,6.2c-0.9-0.1-1.6-1-1.6-1.9l0,0
				c0-0.8,0.6-1.4,1.3-1.6c1.1-0.3,2.9-1,5.1-2.4c3.8-2.5,7.4-9.5,7.4-9.5l5-12.2L874.6,313.5z"/>
		</g>
		<g>
			<path class="st2" d="M875.6,310.2c0,0-2.6,12.3-10.5,21.1c-5.9,6.6-11.3,6.6-13.6,6.2c-0.7-0.1-1.1-0.7-1.1-1.4l0,0
				c0.1-1,0.7-1.9,1.7-2.2c1.1-0.3,3.1-0.7,4.8-2.3c6.4-6.3,2-9.5,3.9-15.8c3-10.1,8.5-5.9,8.5-5.9L875.6,310.2z"/>
		</g>
		<g>
			<path d="M851.5,338C851.5,338,851.5,338,851.5,338c-0.5-0.1-1.8-0.3-1.8-1.5c0-0.3,0.2-0.5,0.5-0.4c0.3,0,0.5,0.2,0.4,0.5
				c0,0.1,0,0.4,0.9,0.5c0,0,0,0,0.1,0c2.1,0.4,7.2,0.4,11.7-7.1c0.1-0.2,0.4-0.3,0.7-0.2s0.3,0.4,0.2,0.7
				C859.4,338.4,853.8,338.4,851.5,338z"/>
		</g>
		<g>
			<path d="M850.4,341.5c-0.2,0-0.4-0.3-0.4-0.5c0-0.3,0.3-0.4,0.5-0.4c2.4,0.3,8.6,0.3,13.2-6.2c0.5-0.7,1.1-1.8,1.7-3
				c0.2-0.4,0.5-0.9,0.7-1.4c0.1-0.2,0.4-0.3,0.6-0.2c0.2,0.1,0.3,0.4,0.2,0.6c-0.2,0.5-0.5,0.9-0.7,1.4c-0.6,1.3-1.2,2.3-1.7,3.1
				C859.6,341.8,853,341.8,850.4,341.5C850.4,341.5,850.4,341.5,850.4,341.5z"/>
		</g>
		<g>
			<path d="M850.7,346.2c-0.2,0-0.4-0.3-0.4-0.5c0-0.3,0.2-0.5,0.5-0.4c2,0.1,9-0.2,14.8-9.2c1-1.6,1.9-3.3,2.7-5.1
				c0.1-0.2,0.4-0.4,0.6-0.2c0.2,0.1,0.4,0.4,0.2,0.6c-0.8,1.9-1.7,3.6-2.8,5.2C860.3,346,852.9,346.4,850.7,346.2
				C850.7,346.2,850.7,346.2,850.7,346.2z"/>
		</g>
	</g>
</g>
<g id="오른쪽_하박_팔_00000088121131207226037080000016040904311558575289_">
	<path class="st2" d="M868.1,323.9c3.9,0.4,7.5-2.4,7.9-6.3l7-57.5c0.5-4.6-2.9-8.8-7.5-9.2l0,0c-4.6-0.5-8.8,2.9-9.2,7.5l-4.6,57.7
		C861.3,320,864.2,323.5,868.1,323.9L868.1,323.9z"/>
</g>
<g id="오른쪽_상박_팔_00000062150210936047174730000014222848433671886522_">
	<path class="st2" d="M875.2,267.6c4.6-0.4,8-4.3,7.7-8.9l-4.4-71.7c-0.4-4.6-4.5-8.1-9.1-7.7l0,0c-4.6,0.4-8.1,4.5-7.7,9.1
		l4.4,71.3C866.4,264.4,870.5,268,875.2,267.6L875.2,267.6z"/>
</g>
<g id="오른쪽발목">
	
		<rect x="714.9" y="404" transform="matrix(0.8738 0.4863 -0.4863 0.8738 301.0029 -297.9341)" class="st2" width="19.1" height="53.9"/>
</g>
<g id="오른쪽신발1">
	<path class="st3" d="M724.7,453.2l-8.3,21.7c-0.5,1.4-2.2,2-3.5,1.3l-55.4-30.9c-1.2-0.7-1.6-2.1-0.9-3.3l1.5-2.7
		c2.8-5.1,9-7.4,14.5-5.3l13.1,4.8c0.1,0,0.3,0.1,0.4,0.1l23.8,4.4c0.2,0,0.5,0.1,0.7,0.2l13.1,6.7
		C724.7,450.7,725.2,452,724.7,453.2z"/>
</g>
<g id="오른쪽신발2">
	<path class="st3" d="M709.2,444.1l0.9-7.4c0.3-2.3-1.4-4.4-3.7-4.7l0,0c-3.2-0.3-5.6,2.9-4.3,5.9l2.6,5.7L709.2,444.1z"/>
</g>
<g id="오른쪽_종아리_00000001624826029157497860000014366231275837192346_">
	<path d="M745.9,424.9l53.2-95.5c4.8-8.6,2.6-18.9-4.9-23l0,0c-7.5-4.1-17.4-0.6-22.1,8l-53.2,95.5L745.9,424.9z"/>
</g>
<g id="오른쪽_허벅지_00000142148098706186525820000013571447926472972959_">
	<path d="M868,275.7c4.5,7.3,1.6,17.2-6.6,22.3L793,340.4c-7.5,4.6-17.1,2.5-21.6-4.8l0,0c-4.5-7.3-2.1-16.9,5.3-21.5l68.4-42.4
		C853.2,266.7,863.5,268.5,868,275.7L868,275.7z"/>
</g>
<path class="st4" d="M821.8,324.7L821.8,324.7c-7.8-8.3-14.4-17.6-19.7-27.7l0,0l8.6-6.1v0c5.3,10.1,11.9,19.4,19.7,27.7v0
	L821.8,324.7z"/>
<g id="오른쪽_소매_00000026848213889791274840000015658702282207322761_">
	<path class="st5" d="M855.7,237.1l33.8-3.6l-5.8-45.3c-0.8-5.9-4.6-11-10.2-13.3l0,0c-5.2-2.2-11,1.3-11.6,6.9L855.7,237.1z"/>
</g>
<g id="왼쪽발목">
	
		<rect x="658.9" y="375.2" transform="matrix(0.7029 0.7113 -0.7113 0.7029 485.5174 -355.9712)" class="st2" width="19.8" height="55.8"/>
</g>
<g id="왼쪽신발1">
	<path class="st3" d="M663.2,422.8l-17.7,23.3l-47.9-48.5c-1.2-1.2-1.2-3.1,0-4.3l3.4-3.4c3.4-3.4,8.8-3.8,12.6-0.9l13.5,10
		l22.9,11.5L663.2,422.8z"/>
</g>
<g id="왼쪽신발2">
	<path class="st3" d="M639.9,411.9l3.1-7.1c1-2.2-0.1-4.8-2.3-5.7l0,0c-3.1-1.3-6.4,1.3-5.9,4.6l0.9,6.5L639.9,411.9z"/>
</g>
<g>
	<path class="st2" d="M859.8,173.7l0.9-16.5c0.1-2.1-1.5-3.8-3.5-3.9l-2.5-0.1c-2.1-0.1-3.8,1.5-3.9,3.5l-0.9,16.5
		c-0.1,2.1,1.5,3.8,3.5,3.9l2.5,0.1C857.9,177.3,859.7,175.7,859.8,173.7z"/>
</g>
<g>
	<path class="st2" d="M859.8,173.6l0.9-16.5c0.1-2.1-1.5-3.8-3.5-3.9l-2.5-0.1c-2.1-0.1-3.8,1.5-3.9,3.5l-0.9,16.5
		c-0.1,2.1,1.5,3.8,3.5,3.9l2.5,0.1C857.9,177.3,859.7,175.7,859.8,173.6z"/>
</g>
<g>
	<path class="st2" d="M867.9,146.7c0.5-8.6-5.6-14.9-13.6-15.4c-8-0.4-13,5.8-13.5,14.4c-0.5,8.6,2.2,14.9,10.2,14.7
		C859.2,160.2,867.4,155.3,867.9,146.7z"/>
</g>
<g>
	<polygon class="st2" points="841.7,147.1 838.1,146.9 841.6,151.4 	"/>
</g>
<g>
	<path class="st4" d="M854.6,131.4c8.1,0.4,15.1,4.5,14.6,14.9c-0.4,6.7-4.5,11-8.5,12l-2.5-12.2c-4.5-2.1-7.6-8.4-7.6-8.4l0.7,3.5
		c-3.2-0.9-5.1-4.2-6.1-6.3C847.4,132.5,850.6,131.2,854.6,131.4z"/>
</g>
<g>
	<path class="st2" d="M856.6,147c1.3-1.9,3.7-2.4,5.4-1.2c1.7,1.2,1.9,3.7,0.6,5.5c-1.3,1.9-3.7,2.4-5.4,1.2
		C855.6,151.3,855.3,148.8,856.6,147z"/>
</g>
<g id="왼쪽_종아리_00000111874842019936795300000010462238788781640337_">
	<path d="M683.1,402.6l80.6-79.6c7.2-7.1,8.1-17.9,2-24.1l0,0c-6.1-6.2-16.9-5.4-24.1,1.7L661,380.2L683.1,402.6z"/>
</g>
<g id="왼쪽_허벅지_00000084519532731985772250000016172699256977489292_">
	<path d="M851.3,279.9c2.6,8.3-2.8,17.4-12,20.4l-79.8,25.4c-8.7,2.8-17.8-1.7-20.5-10l0,0c-2.6-8.3,2.2-17.2,10.9-20l79.8-25.4
		C839,267.3,848.6,271.6,851.3,279.9L851.3,279.9z"/>
</g>
<path d="M837.3,239.8l22,1.2c7.2,0.4,12.6,8,12.1,17l-1.2,21.9c-0.5,9-6.7,16-13.9,15.6l-22-1.2c-7.2-0.4-10.5-7.9-10-16.9l2.5-14.2
	C827.4,254.1,830.1,239.4,837.3,239.8z"/>
<g id="몸통_00000084494160023817147400000006595049068871297965_">
	<polygon class="st5" points="859.9,171 872.8,174.7 875.4,267 821.9,264.6 837.4,172.3 850,170.6 	"/>
</g>
<line class="st6" x1="765.9" y1="324" x2="836.5" y2="301.6"/>
<path class="st4" d="M801.7,313.7L801.7,313.7c-4.9-10.3-8.3-21.1-10.3-32.4l0,0l10-3.2v0c2,11.2,5.4,22.1,10.3,32.4v0L801.7,313.7z
	"/>
<path class="st7" d="M858.5,275.1c0,0,6,40.7-30,42.1"/>
<path class="st7" d="M858.5,275.1c0,0-19.5,35.5-52.2,32.5"/>
<path class="st4" d="M871.5,275.3L871.5,275.3c-16.6,0.1-33.2-0.8-49.8-2.7l0,0l0.4-6.7h0c16.5,1.9,33.1,2.8,49.8,2.7h0L871.5,275.3
	z"/>
<g id="오른쪽_손_00000067212122333856123280000013240934304952442255_">
	<g>
		<g>
			<path class="st2" d="M813,306.5c0,0-5.2,15.5-1.3,27.5c3.2,10,8.9,13.3,11.6,14.1c0.7,0.2,1.4-0.1,1.8-0.7l0,0
				c0.6-1,0.5-2.4-0.4-3.2c-1-1-2.5-2.6-3.9-5.1c-2.6-4.6-1.9-13.5-1.9-13.5l2.6-14.7L813,306.5z"/>
		</g>
		<g>
			<path class="st2" d="M825.9,311.1c0,0-2.2,11.7-2.6,17.9c-0.4,6.2-2.1,6.5-4.1,6.3c-3.1-0.4-2.9-6.3-2.7-10
				c0.2-3.7-1.4-4.2-1.4-4.2l6-13.9L825.9,311.1z"/>
		</g>
		<g>
			<path class="st2" d="M816.9,308.4c0,0-5.4,13.3-2.4,26.4c2.3,10.2,8.9,13.3,11.6,14.1c0.7,0.2,1.5-0.1,1.9-0.7l0,0
				c0.6-1,0.5-2.3-0.4-3.1c-1.1-1-2.5-2.6-3.9-5.1c-2.6-4.6-1.9-13.5-1.9-13.5l2.6-14.7L816.9,308.4z"/>
		</g>
		<g>
			<path class="st2" d="M814.2,309.9c0,0-1.8,12.7,2.7,23.9c3.1,7.9,7.8,10,10.3,10.6c0.9,0.2,1.9-0.4,2.2-1.3l0,0
				c0.2-0.7,0-1.6-0.7-2c-1-0.7-2.5-2-4.1-4.1c-2.8-3.7-3.7-11.7-3.7-11.7l-0.6-13.4L814.2,309.9z"/>
		</g>
		<g>
			<path class="st2" d="M814.4,306.5c0,0-1.8,12.7,2.7,23.9c3.3,8.4,8.5,10.3,10.9,10.7c0.7,0.1,1.3-0.3,1.5-1l0,0
				c0.3-1-0.1-2-0.9-2.7c-1-0.7-2.7-1.7-3.8-3.9c-3.9-8.3,1.4-9.8,1.8-16.5c0.7-10.7-6.1-8.6-6.1-8.6L814.4,306.5z"/>
		</g>
		<g>
			<path d="M827.8,341.5C827.8,341.5,827.8,341.5,827.8,341.5c0.5,0.1,1.9,0.3,2.2-0.8c0.1-0.3-0.1-0.5-0.3-0.6
				c-0.3-0.1-0.5,0.1-0.6,0.3c0,0.1-0.1,0.3-1.1,0.2c0,0,0,0-0.1,0c-2.1-0.4-7-2.2-8.8-10.9c-0.1-0.3-0.3-0.4-0.6-0.4
				c-0.3,0.1-0.4,0.3-0.4,0.6C820.1,339.2,825.5,341.1,827.8,341.5z"/>
		</g>
		<g>
			<path d="M827.6,345.2c0.3,0,0.5-0.1,0.6-0.4c0.1-0.3-0.1-0.5-0.4-0.6c-2.4-0.6-8.3-2.7-10.5-10.6c-0.2-0.9-0.4-2.1-0.5-3.5
				c-0.1-0.5-0.1-1-0.2-1.6c0-0.3-0.3-0.5-0.5-0.4c-0.3,0-0.5,0.3-0.4,0.5c0.1,0.5,0.1,1.1,0.2,1.6c0.2,1.4,0.3,2.7,0.6,3.6
				C818.7,342.4,825,344.6,827.6,345.2C827.6,345.2,827.6,345.2,827.6,345.2z"/>
		</g>
		<g>
			<path d="M825.7,349.7c0.2,0,0.5-0.1,0.5-0.3c0.1-0.3-0.1-0.5-0.3-0.6c-2-0.6-8.6-3.4-11-14.1c-0.4-1.8-0.7-3.8-0.8-5.8
				c0-0.3-0.2-0.5-0.5-0.5c-0.3,0-0.5,0.2-0.5,0.5c0.1,2.1,0.4,4.1,0.8,6C816.5,346.1,823.5,349,825.7,349.7
				C825.6,349.7,825.7,349.7,825.7,349.7z"/>
		</g>
	</g>
</g>
<g id="오른쪽_하박_팔_00000179607451086773360580000009921127239812847032_">
	<path class="st2" d="M816.8,322.2c-3.9-1-6.3-4.9-5.4-8.8l13.4-57.5c1.2-4.6,5.8-7.4,10.4-6.2l0,0c4.6,1.2,7.4,5.8,6.2,10.4
		L825.8,317C824.7,320.9,820.7,323.2,816.8,322.2L816.8,322.2z"/>
</g>
<g id="오른쪽_상박_팔_00000173126239243730146870000015630073124137881240_">
	<path class="st2" d="M832.9,266.2c-4.7-0.2-8.3-4.1-8.2-8.8l1.7-73.2c0.2-4.7,4.2-8.4,9-8.2l0,0c4.7,0.2,8.4,4.2,8.2,9l-1.7,72.8
		C841.7,262.6,837.7,266.4,832.9,266.2L832.9,266.2z"/>
</g>
<g id="오른쪽_소매_00000010997413908363451470000011495216123518405782_">
	<path class="st5" d="M851.2,236.7l-34.4-4.7l7.3-46c1-6,5.1-11.1,10.8-13.2l0,0c5.4-2,11.2,1.6,11.7,7.4L851.2,236.7z"/>
</g>
<line class="st6" x1="851.2" y1="237" x2="847.9" y2="197.1"/>
<line class="st6" x1="851.2" y1="237.1" x2="842.4" y2="235.9"/>
<line class="st6" x1="874.2" y1="235.1" x2="872.5" y2="203.5"/>
</svg>
