<?xml version="1.0" encoding="utf-8"?>
<!-- Generator: Adobe Illustrator 27.8.1, SVG Export Plug-In . SVG Version: 6.00 Build 0)  -->
<svg version="1.1" xmlns="http://www.w3.org/2000/svg" xmlns:xlink="http://www.w3.org/1999/xlink" x="0px" y="0px"
	 viewBox="0 0 960 540" style="enable-background:new 0 0 960 540;" xml:space="preserve">
<style type="text/css">
	.st0{fill:#333333;}
	.st1{opacity:5.000000e-02;}
</style>
<g id="visual">
	<path class="st0" d="M0,452l32,1.7c32,1.6,96,5,160,5.5s128-1.9,192-1c64,0.8,128,4.8,192,7.3s128,3.5,192,4.7
		c64,1.1,128,2.5,160,3.1l32,0.7v67h-32c-32,0-96,0-160,0s-128,0-192,0s-128,0-192,0s-128,0-192,0s-128,0-160,0H0V452z"/>
</g>
<g id="레이어_2">
	<g transform="translate(477.24905146910464 264.26245708403997)" class="st1">
		<path class="st0" d="M-350.1,118.2c5,4.9,9.8,10.2,12.5,18.1c2.6,7.9,3.1,18.5-1.9,22.5s-15.6,1.4-24.2-0.6
			c-8.6-2-15.1-3.4-20.8-7.4c-5.7-4-10.4-10.6-10.3-17c0.1-6.4,5.2-12.7,10.9-17.6c5.7-4.9,11.9-8.3,17.7-7.9
			C-360.5,108.8-355.2,113.3-350.1,118.2"/>
	</g>
	<g transform="translate(481.45395741501346 254.47447255306037)" class="st1">
		<path class="st0" d="M-380.4-24.2c5.8,3.7,11.7,9.5,10.8,14.5c-0.8,5-8.4,9.1-14.2,13.8c-5.8,4.7-10,9.9-15.2,11
			c-5.2,1.1-11.5-2-17.3-6.7c-5.9-4.7-11.3-11-10.2-16.2c1.1-5.2,8.6-9.3,14.5-13.1c5.9-3.7,10-7,15-7.9
			C-392-29.5-386.2-27.9-380.4-24.2"/>
	</g>
	<g transform="translate(516.2245448693817 262.43687163263553)" class="st1">
		<path class="st0" d="M67.8,74c5.7,6.8,6.7,17,7.8,28.3c1.1,11.3,2.1,23.6-3.6,31.4c-5.7,7.8-18,11.1-27.8,8.6
			c-9.8-2.5-17.2-10.8-27.5-18.6C6.3,115.9-7.1,108.6-9.3,99c-2.2-9.5,6.7-21.4,17.1-28.2C18.2,64.1,30,62.3,41,63
			C52,63.8,62.2,67.2,67.8,74"/>
	</g>
	<g transform="translate(446.27592479435674 233.04324375299845)" class="st1">
		<path class="st0" d="M376.1,151.8c9.1,4.5,19.3,12.5,21.5,22.5s-3.9,22.2-13,31c-9.1,8.9-21.2,14.4-32.5,13.5
			c-11.2-0.9-21.6-8.3-26.6-17.1c-5-8.8-4.8-19.2-5.9-30.6c-1.1-11.4-3.5-24,1.5-28.5s17.6-1.1,27.8,1.2
			C359.1,146.1,367,147.3,376.1,151.8"/>
	</g>
	<g transform="translate(506.82900820794487 311.811444083584)" class="st1">
		<path class="st0" d="M-186.5-3.4c4.5,7.6,1.7,19.6-0.2,29.7c-1.8,10.1-2.6,18.4-7.2,22.9c-4.5,4.5-12.8,5.1-19.9,4
			c-7.1-1.1-13.1-4.1-21.5-8.6c-8.4-4.5-19.2-10.5-20.5-17.7c-1.3-7.3,6.9-15.8,15.3-23.4c8.4-7.6,16.9-14.4,27.2-16.1
			C-203-14.4-191-11.1-186.5-3.4"/>
	</g>
	<g transform="translate(479.9106136834187 228.14558977826692)" class="st1">
		<path class="st0" d="M305.5-58.9c5.1,3.7,7.2,11.8,6.2,18.8s-5,13.1-10.1,20.6s-11.2,16.4-17.9,17s-14-7-19.2-14.5
			c-5.2-7.5-8.2-14.8-7.6-21.6c0.6-6.7,4.8-12.9,10-16.6c5.2-3.7,11.3-5.1,18.5-6C292.4-62.1,300.4-62.7,305.5-58.9"/>
	</g>
	<g transform="translate(489.73884014592045 263.26509139112795)" class="st1">
		<path class="st0" d="M493.8-26.7c6.2,10.2,10.9,17.7,10.7,25.1c-0.2,7.4-5.3,14.6-11.4,24.6s-13.4,23-23.6,26
			c-10.2,3-23.5-3.9-29.3-14c-5.9-10.1-4.4-23.3-1.4-33.5c3-10.3,7.5-17.5,13.4-27.7s13.1-23.3,20.6-23.5
			C480-49.7,487.6-36.9,493.8-26.7"/>
	</g>
	<g transform="translate(432.87572976785924 235.24559700969974)" class="st1">
		<path class="st0" d="M-420.3-122.7c7.4,4.9,15.7,11.5,16.4,18.9c0.8,7.3-5.9,15.5-13.3,23.1c-7.4,7.6-15.5,14.8-22.3,13.4
			c-6.8-1.4-12.2-11.2-16.1-18.9c-3.9-7.6-6.3-13-6.4-18.5c0-5.4,2.3-10.9,6.2-15.8c3.9-4.9,9.4-9.2,15.4-9.8
			C-434.3-130.8-427.7-127.6-420.3-122.7"/>
	</g>
	<g transform="translate(447.9262731316852 251.51182770865393)" class="st1">
		<path class="st0" d="M-262-137.6c5.7,2.8,13.1,6.9,14.3,12.1c1.2,5.3-3.6,11.8-9.3,16.5c-5.7,4.7-12.2,7.7-17.6,6.6
			c-5.4-1.1-9.8-6.2-12.7-10.9c-2.9-4.7-4.5-9.1-6.2-15.2c-1.7-6.1-3.6-13.9-0.7-16.7c2.9-2.8,10.8-0.7,16.7,1.2
			S-267.7-140.4-262-137.6"/>
	</g>
	<g transform="translate(489.73884014592045 263.26509139112795)" class="st1">
		<path class="st0" d="M404.3-161.9c8.6-8.2,15-14.4,22.3-15.8c7.2-1.4,15.4,2,26.5,5.9c11.2,3.9,25.3,8.1,30.5,17.5
			c5.1,9.4,1.2,23.7-7.4,31.6s-21.8,9.3-32.5,8.6c-10.7-0.7-18.7-3.6-29.9-7.2c-11.2-3.6-25.6-7.9-27.3-15.1
			C384.7-143.6,395.6-153.7,404.3-161.9"/>
	</g>
	<g transform="translate(432.87572976785924 235.24559700969974)" class="st1">
		<path class="st0" d="M26.8-92.6c8.6-2.3,19-4.1,25,0.3c6,4.3,7.6,14.7,8.4,25.3C61-56.4,61-45.6,55.5-41.5S39-39.8,30.7-42
			c-8.3-2.1-13.9-3.9-18-7.5c-4.1-3.6-6.7-9-7.7-15.1c-1.1-6.2-0.7-13.1,2.9-18C11.5-87.5,18.2-90.4,26.8-92.6"/>
	</g>
</g>
</svg>
