<?xml version="1.0" encoding="UTF-8"?>
<svg xmlns="http://www.w3.org/2000/svg" viewBox="0 0 2619 5060.52">
  <defs>
    <style>
      .cls-1 {
        fill: #5774cd;
      }

      .cls-1, .cls-2, .cls-3, .cls-4, .cls-5, .cls-6, .cls-7, .cls-8, .cls-9 {
        stroke-width: 0px;
      }

      .cls-3 {
        fill: #bbb;
      }

      .cls-4 {
        fill: #ed8c6b;
      }

      .cls-10 {
        fill: none;
        stroke: #000;
        stroke-linecap: round;
        stroke-linejoin: round;
      }

      .cls-5 {
        fill: #333;
      }

      .cls-6 {
        fill: #ffc849;
      }

      .cls-7 {
        fill: #e8e8e7;
      }

      .cls-8 {
        fill: #565656;
      }

      .cls-9 {
        fill: #fd521b;
      }
    </style>
  </defs>
  <g id="Layer_1" data-name="Layer 1">
    <path class="cls-7" d="m748,313h1658.89c27.6,0,50,22.4,50,50v4405.12H698V363c0-27.6,22.4-50,50-50Z"/>
    <rect class="cls-3" x="698.11" y="1653" width="1758.89" height="2191"/>
  </g>
  <g id="_레이어_3" data-name="레이어 3">
    <circle class="cls-6" cx="1031.5" cy="4265.5" r="156.5"/>
    <circle class="cls-5" cx="1391.33" cy="4305.67" r="74.33"/>
    <circle class="cls-6" cx="1393.1" cy="4084.16" r="56.84"/>
    <circle class="cls-6" cx="1471.7" cy="4524.57" r="36.57"/>
    <circle class="cls-6" cx="1144.7" cy="4003.57" r="48.57"/>
    <circle class="cls-6" cx="1369.13" cy="4298.43" r="45.87"/>
    <path class="cls-5" d="m1043,3757s19.39,104.3,99.7,104.3,129.3-58.2,129.3-78.3c0-47-15-85-79-102s-143-5-150,76Z"/>
    <ellipse class="cls-6" cx="1140.5" cy="3762" rx="76" ry="82.5" transform="translate(-2782.32 3507.25) rotate(-69.42)"/>
    <ellipse class="cls-6" cx="1336" cy="3674.5" rx="45" ry="37.5"/>
    <ellipse class="cls-6" cx="1476.93" cy="3639.76" rx="103.07" ry="87.24"/>
    <ellipse class="cls-6" cx="1677.74" cy="3588.96" rx="103.07" ry="87.24"/>
    <path class="cls-5" d="m1542.96,3482.5c-.1-6.71-4.57-12.56-10.87-14.85-15.46-5.62-48.95-12.96-58.09,24.35-12,49,53.43,19.43,57.22,9.72,2.92-7.49,11.9-9.21,11.75-19.22Z"/>
    <path class="cls-5" d="m1537.81,3445.37c-18.02-2.35-88.95-7.99-110.04,45.21-1.07,2.7,1.92,5.2,4.42,3.73,8.42-4.94,22.62-11.6,33.8-8.31,15.65,4.6,35.53,10.05,46.4-14.85,1.9-4.34,5.48-7.74,9.93-9.36,5.81-2.12,13.59-5.86,17.61-11.63,1.31-1.88.14-4.49-2.13-4.79Z"/>
    <polygon class="cls-5" points="1385 3031 1344 3200 1371 3336 1600 3332 1684 3309 1673 3165 1547 3012 1385 3031"/>
    <polygon class="cls-5" points="1032 2547 887 2672 917 2834 1093 2875.96 1284 2782 1032 2547"/>
    <path class="cls-9" d="m1213.98,2738.21c-6.89-3.34-12.61-8.68-16.41-15.32-4.23-7.39-11.18-16.49-19.57-15.89-14,1-59,13-46,52s77.52,70.29,114.14,26.64c2.09-2.49,3.85-5.23,5.24-8.17,4.57-9.67,11.85-31.47-15.39-31.47-4.84,0-14.31-4.05-22.02-7.79Z"/>
    <path class="cls-5" d="m935.74,2593.34s-51.74-16.34-59.74,33.66c0,0,14,57,52,17,0,0,9.48-3.98,7.74-19.49s5.74-18.84,0-31.17Z"/>
    <path class="cls-9" d="m1159.29,2571.98l-8.29-8.98s-17,12.22,0,28.61,26-2.61,26-2.61l-9.99-9.27c-2.67-2.48-5.25-5.07-7.73-7.75Z"/>
    <path class="cls-9" d="m982.19,2496.84l-29.91,19.17c-8.44,5.41-19.64,2.72-24.8-5.87-28.54-47.52-19.24-110.8,24.34-147.63,43.57-36.81,107.49-35.43,149.58.6,7.63,6.53,8.39,18.06,1.62,25.47l-25.69,28.11c-28.09,30.74-60.07,57.68-95.13,80.14Z"/>
    <polygon class="cls-5" points="1449 2359 1293 2464 1302 2564 1369.56 2624.51 1449 2359"/>
    <path class="cls-9" d="m1080.2,2417.89l17.99-13.53c5.07-3.82,11.23-3.53,13.64.6,13.31,22.83,2.36,64.17-24.37,88.72-26.72,24.54-63.68,27.46-85.3,12.28-3.92-2.75-3.67-8.93.58-13.66l16.13-17.95c17.64-19.62,27.12-15.35,61.32-56.45Z"/>
    <path class="cls-9" d="m1156,2235s-8,31-59,72c0,0-9,28.22,0,32.61s14,10.22,27.5,7.3,47.5-37.91,97.5-72.91c0,0,14-19-21-34s-45-5-45-5Z"/>
    <path class="cls-5" d="m1276,2299s7-28-20-25-47-4-71,56c0,0-47,23-51,38s-1,16,7,24c0,0,29.22,22.67,50,13,0,0,17-20,33-45,14.2-22.19,41-33,52-61Z"/>
    <path class="cls-9" d="m1411.22,2458.47s-49.13,2.06-84.17,56.8c0,0-12.04,65.74,12.96,66.74s40.48-11.48,51.74-51.74,31.7-56.33,19.48-71.79Z"/>
    <path class="cls-9" d="m1443,2451s-15,10-22,43c0,0-19,15-21,58,0,0-29,44.35,0,41.17s48-21.17,59-46.17,12-94-16-96Z"/>
    <path class="cls-9" d="m1426.65,2223.26s-14.65-12.26-35.65,13.74c0,0-20,18,8,42s57,102,126,81c0,0,16-17-13-45s-52.7-52.48-85.35-91.74Z"/>
    <polygon class="cls-5" points="1622 2132 1584 2159 1561.83 2518.81 1622 2566.04 1622 2132"/>
    <path class="cls-5" d="m1673,2260c-3,0-35,13.78-35,13.78l-3,285.22,116,42-78-341Z"/>
    <path class="cls-5" d="m1816.82,2183.97c-1.05-2.61-3.21-4.61-5.87-5.52-8.23-2.81-26.57-7.27-31.95,6.55-7,18-6,47.87,0,54.43s38,47.57,51,36.57,8-29.04,0-35.52c-7.47-6.05-5.35-36.97-13.18-56.51Z"/>
    <polygon class="cls-5" points="1982.63 2435.61 1939 2497 1972.56 2566.04 2067.91 2593.34 2127.39 2547 1982.63 2435.61"/>
    <polygon class="cls-5" points="2010 2335 2003 2449 2112 2531 2250 2497 2302 2402 2010 2335"/>
    <polygon class="cls-5" points="1972.56 1980.65 1982.63 2335 2140.96 2157.83 1972.56 1980.65"/>
    <path class="cls-9" d="m1996,2139s10,4,13,36,34,60,23,76-48.61-57-48.61-57c0,0-5.39-54,12.61-55Z"/>
    <path class="cls-9" d="m1982.63,2039.09s32.37,3.91,42.37,54.91c0,0-5.35,42-31.17,45,0,0-18.83-7-15.83-39s-16.73-59.83,4.63-60.91Z"/>
    <path class="cls-9" d="m1867.26,1976.07l-7.84-2.77s-6.34,12.76,9.1,17.21c15.44,4.46,14.81-9.84,14.81-9.84l-8.96-2.4c-2.4-.64-4.77-1.38-7.11-2.21Z"/>
    <path class="cls-5" d="m2254.06,2047.26l-31.81,20.29c-7.83,4.99-11.37,14.59-8.65,23.47l4.67,15.29c1.14,3.72,1.2,7.68.19,11.43l-12.75,47.22c-1.77,6.57-.2,13.6,4.21,18.78l8.89,10.45c5.74,6.75,15.14,9.08,23.37,5.82,20.95-8.3,58.4-27.06,64.82-57.02,9-42,1-54.48-5-67.74-3.41-7.54-14.31-18.2-23.07-26-6.92-6.15-17.07-6.98-24.88-2Z"/>
    <path class="cls-5" d="m2080,1942s2.18-43.15-18.25-56.87c-2.67-1.79-6.13-1.87-8.88-.21l-18.75,11.37c-3.82,2.31-6.2,6.4-6.33,10.86l-2.56,87.18c-.14,4.76,2.3,9.23,6.39,11.67l20.08,12.03c4.94,2.96,11.22,2.36,15.51-1.47l21.49-19.16c4.54-4.05,5.74-10.7,2.83-16.05-4.5-8.27-10.34-22.02-11.53-39.35Z"/>
    <polygon class="cls-5" points="2056.76 1658.22 1991 1730 1991 1831 2163.91 1951.81 2056.76 1658.22"/>
    <path class="cls-9" d="m2060,1735s-43,7-39,67,56,74,71,65,25-29,24-35-4-13-9-13-30-30-27-48-20-36-20-36Z"/>
    <path class="cls-9" d="m1681.83,1735s5.17,96,94.17,96,85-110,85-110c0,0-8.15-49.22-89.57-49.22s-89.6,63.22-89.6,63.22Z"/>
    <polyline class="cls-5" points="2068.4 1334.74 1717 1496 1827 1591 1966 1586 2074 1476 2068.4 1339.96"/>
    <polygon class="cls-8" points="1784 1465 1981.3 1373.76 2009 1480 1948 1552 1845 1555 1784 1465"/>
    <path class="cls-1" d="m1518,1560l96-47s26.04-14,35.52,0,31.3,47,31.3,47c0,0,6.17,13-8.83,24s-82,65-103,65-32-18-61-56c0,0-10-13,10-33Z"/>
    <path class="cls-1" d="m1383.86,1349.86l-99.13-39.98s-26.98-12.09-35.43,2.55c-8.45,14.64-27.85,49.13-27.85,49.13,0,0-5.22,13.41,10.53,23.3,15.75,9.89,86.46,58.94,107.41,57.43,20.95-1.51,30.62-20.25,56.82-60.24,0,0,9.04-13.69-12.35-32.2Z"/>
    <polygon class="cls-5" points="1405 876 1339 1059 1421 1221 1593.79 1182.39 1689 1023 1405 876"/>
    <path class="cls-1" d="m1398.85,1159.86l-40.54-83.65s-12.01-22.67-.88-31.35,37.37-28.7,37.37-28.7c0,0,10.4-5.75,19.7,7.24,9.3,12.99,54.8,70.89,55.32,89.42.52,18.53-13.81,28.65-43.93,55.12,0,0-10.3,9.12-27.03-8.07Z"/>
    <path class="cls-1" d="m1821,1208l-104,80s-23,20-4,39,56,36,81,20,55-54,71-57,48,11,71-25-89-83-115-57Z"/>
    <path class="cls-1" d="m1694.42,1103.55l91.86,93.69s22.61,20.45,39.2-.69c16.59-21.13,29.05-59.9,10.18-82.81s-60.19-48.15-65.08-63.68c-4.89-15.53,5.19-48.97-33.31-67.5-38.49-18.53-71.77,98.28-42.85,120.99Z"/>
    <path class="cls-1" d="m1343,618l-17,77s-7,20.43-16.5,27.22-32.5,22.78-58.5,22.78-29-39-20-49,22-12,30-28,18.08-73.71,56-71c28,2,26,21,26,21Z"/>
    <path class="cls-1" d="m1180.16,486.89l-27.45,73.92s-9.75,19.27-20.09,24.68-35.33,18.09-61.08,14.5-23.35-42.63-13.05-51.29,23.44-8.85,33.57-23.6c10.13-14.74,28.07-70.51,65.25-62.6,27.46,5.84,22.86,24.38,22.86,24.38Z"/>
    <path class="cls-1" d="m907,313l-72,82s-22,36.39,40,42.7,70-29.7,89-31.7,95,19,127-20,26-61-3-70-158-32-181-3Z"/>
    <polygon class="cls-5" points="1188 1206 1234 1081 1143 938 984 942 906.26 1054.63 1188 1206"/>
  </g>
  <g id="_레이어_5" data-name="레이어 5">
    <g>
      <path class="cls-1" d="m1375.29,4502.29s-5.03-38.1,7.03-77.22c2.05-6.67,3.65-11.87,4.88-15.93,2.4-7.92,14.02-11.36,25.91-7.7h0c11.87,3.66,19.53,13.02,17.09,20.91l-13.64,44.24-14.53,43.13-26.75-7.44Z"/>
      <rect class="cls-4" x="1421.03" y="4444.91" width="24.24" height="68.28" transform="translate(-705.55 290.76) rotate(-9.31)"/>
      <path class="cls-6" d="m1424.49,4505.99l1.02,27.92,52.71-8.7c2.86-.36,4.88-2.97,4.51-5.83l-.55-4.35c-.74-5.83-5.62-10.25-11.49-10.41l-12.66,5.17-8.25-4.65-25.28.84Z"/>
      <path class="cls-6" d="m1445.64,4505.61l2.41-9.19c.75-2.86,3.7-4.55,6.55-3.76h0c3.95,1.11,5.19,6.09,2.23,8.92l-5.78,5.53-5.41-1.51Z"/>
      <path class="cls-1" d="m1411.22,4504.48l-22.27-84.92c-2.39-9.13,5.39-19.07,17.38-22.22h0c11.99-3.14,23.65,1.7,26.05,10.83l22.27,84.92-43.43,11.39Z"/>
      <path class="cls-10" d="m1447.43,4499.09s1.27-6.16,7.22-3.52,5.24,6.11-.92,9l-1.85,1.77,6.15,3.47,12.66-5.17s10.23,1.58,11.13,8.65,1.6,7.71-.29,10.14-11.72,3.19-11.72,3.19l-42.58,7.03"/>
      <path class="cls-1" d="m1326.66,4484.49s-16.03,39.34-16.03,85.46c0,7.86-.01,13.98-.03,18.76-.04,9.32,10.05,16.88,22.5,16.88h0c12.42,0,22.5-7.54,22.5-16.84v-52.15l-1.17-51.25-27.75-.87Z"/>
      <path class="cls-1" d="m1363.66,4539.38h0c23.31,0,42.9-21.48,39-44.46l-6.27-25.33h-66.25l-6.43,26.97c-3.18,22.66,17.06,42.82,39.94,42.82Z"/>
      <path class="cls-2" d="m1399.28,4485.09h-71.23c-.33,0-.59-.27-.59-.59s.27-.59.59-.59h71.23c.33,0,.59.27.59.59s-.27.59-.59.59Z"/>
      <path class="cls-2" d="m1374.59,4521.71h-22.2c-.33,0-.59-.27-.59-.59s.27-.59.59-.59h22.2c.33,0,.59.27.59.59s-.27.59-.59.59Z"/>
      <polygon class="cls-9" points="1369.47 4388.22 1400.1 4392.47 1401.58 4480.04 1323.13 4478.6 1326.41 4392.2 1357.91 4388.35 1369.47 4388.22"/>
      <rect class="cls-4" x="1316.68" y="4671.65" width="24.24" height="68.28"/>
      <path class="cls-6" d="m1342,4721l3,22-41,25c-2.4.81-12,0-13-2l-.64-5.91c-1.15-5.76,2.07-11.5,7.58-13.53l6.22-6.06,10.69-12.37,27.15-7.13Z"/>
      <path class="cls-6" d="m1318.05,4729.85l-3.54-8.81c-1.1-2.75-4.24-4.05-6.97-2.9h0c-3.78,1.59-4.39,6.69-1.09,9.13l6.43,4.76,5.18-2.18Z"/>
      <path class="cls-1" d="m1355.59,4696.77v-115.6c0-12.42-10.07-22.5-22.5-22.5h0c-12.42,0-22.5,10.07-22.5,22.5v115.6s44.99,0,44.99,0Z"/>
      <path class="cls-4" d="m1406.74,4324.34c-4.8-.37-9.02,3.18-9.49,7.97l-7.31,75.09c-.37,4.88,3.28,9.13,8.16,9.5h0c4.88.37,9.13-3.28,9.5-8.16l7.27-74.72c.48-4.94-3.19-9.31-8.14-9.69h0Z"/>
      <path class="cls-4" d="m1374.03,4271.54c-3.67,1.93-2.14,4.45-.28,8.15l24.33,56.37c2.28,4.33,7.63,5.99,11.96,3.71h0c4.33-2.28,5.99-7.64,3.71-11.96l-32.04-52.43c-2.01-3.62-4.01-5.77-7.68-3.84h0Z"/>
      <path class="cls-9" d="m1393.06,4345.08l37.05,14.92-21.1,49.25c-2.77,6.46-8.78,10.94-15.76,11.76h0c-6.56.77-12.03-4.97-10.94-11.49l10.75-64.45Z"/>
      <path class="cls-4" d="m1295.68,4330.54c4.41-1.93,9.56.03,11.58,4.4l31.65,68.49c1.96,4.48-.09,9.7-4.57,11.66h0c-4.48,1.96-9.7-.09-11.66-4.57l-31.49-68.15c-2.08-4.51-.05-9.84,4.49-11.83h0Z"/>
      <path class="cls-4" d="m1334.22,4279.57c3.56,2.12.76,3.69-1.29,7.3l-26.09,55.88c-2.5,4.2-7.94,5.58-12.14,3.08h0c-4.2-2.5-5.58-7.94-3.08-12.14l32.26-51.61c2.19-3.51,6.79-4.62,10.34-2.51h0Z"/>
      <path class="cls-9" d="m1315.43,4345.61l-30.07,26.3,36.15,39.55c4.74,5.19,11.89,7.44,18.75,5.91h0c6.45-1.44,9.71-8.66,6.54-14.45l-31.38-57.3Z"/>
      <path class="cls-2" d="m1344.19,4598.17h-22.2c-.33,0-.59-.27-.59-.59s.27-.59.59-.59h22.2c.33,0,.59.27.59.59s-.27.59-.59.59Z"/>
      <g>
        <path class="cls-4" d="m1379.62,4372.56c1.62-2.55,4.79-3.43,7.07-1.98,2.28,1.45,2.81,4.7,1.19,7.24s-4.79,3.43-7.07,1.98c-2.28-1.45-2.81-4.7-1.19-7.24Z"/>
        <path class="cls-4" d="m1347.71,4372.56c-1.62-2.55-4.79-3.43-7.07-1.98-2.28,1.45-2.81,4.7-1.19,7.24s4.79,3.43,7.07,1.98c2.28-1.45,2.81-4.7,1.19-7.24Z"/>
        <ellipse class="cls-2" cx="1363.58" cy="4371.45" rx="19.2" ry="20.58"/>
        <rect class="cls-2" x="1344.36" y="4372.49" width="38.44" height="57.52"/>
      </g>
      <g>
        <path class="cls-4" d="m1323.52,4282.65s7.4-10.97,15.65-14.95c7.36-3.55,12.35-1.32,14.2-.1.47.31.67.89.5,1.42h0c-.29.89-1.17,1.45-2.1,1.35-1.12-.12-2.81-.16-4.94.22-4.05.72-8.98,5.56-8.98,5.56l-7.45,8.84-6.88-2.34Z"/>
        <path class="cls-4" d="m1330.89,4286.15s8.77-2.95,13.5-3.91c4.73-.96,4.79-2.31,4.41-3.79-.6-2.35-5.15-1.56-7.99-.99-2.84.58-3.41-.62-3.41-.62l-10.07,6.06,3.56,3.25Z"/>
        <path class="cls-4" d="m1326.5,4283.53s5.26-9.85,14.53-14.61c7.25-3.72,12.32-1.34,14.18-.12.48.31.69.91.51,1.46h0c-.29.88-1.15,1.43-2.07,1.33-1.12-.12-2.82-.17-4.96.22-4.05.72-8.98,5.56-8.98,5.56l-7.45,8.84-5.76-2.68Z"/>
        <path class="cls-4" d="m1326.09,4281.15s6.68-7.39,15.54-10.31c6.23-2.06,9.84-.31,11.43.9.6.46.74,1.3.32,1.94h0c-.33.51-.95.75-1.54.59-.89-.23-2.39-.49-4.48-.38-3.56.19-8.8,3.59-8.8,3.59l-8.28,6.37-4.2-2.7Z"/>
        <path class="cls-2" d="m1353.83,4271.59c.12.13.13.33.02.48-.13.17-.36.2-.53.07-1.54-1.17-5.74-3.62-11.54-.96-.65.3-1.43.81-2.33,1.41-.33.22-.68.44-1.04.68-.17.11-.41.07-.52-.11-.11-.17-.06-.41.11-.52.36-.23.71-.46,1.03-.67.93-.61,1.73-1.14,2.43-1.46,6.17-2.83,10.66-.21,12.31,1.05.02.01.04.03.05.05Z"/>
        <path class="cls-2" d="m1355.52,4268.23c.11.12.13.31.03.46-.11.17-.35.22-.52.11-1.34-.87-6.29-3.42-13.84.46-1.3.67-2.6,1.48-3.86,2.42-.17.12-.4.09-.53-.08-.12-.17-.09-.4.08-.53,1.29-.96,2.63-1.79,3.96-2.48,7.91-4.06,13.17-1.35,14.59-.42.03.02.05.04.07.06Z"/>
      </g>
      <g>
        <path class="cls-4" d="m1383.2,4277.82s-6.33-11.62-14.17-16.36c-6.99-4.23-12.17-2.48-14.13-1.45-.5.26-.75.82-.63,1.37h0c.2.91,1.02,1.55,1.96,1.54,1.13-.02,2.81.1,4.9.68,3.97,1.1,8.42,6.39,8.42,6.39l6.58,9.5,7.07-1.68Z"/>
        <path class="cls-4" d="m1375.53,4280.6s-8.45-3.76-13.07-5.17c-4.62-1.4-4.55-2.75-4.04-4.19.82-2.28,5.28-1.07,8.05-.23,2.77.84,3.45-.3,3.45-.3l9.45,6.99-3.85,2.9Z"/>
        <path class="cls-4" d="m1380.15,4278.41s-4.31-10.3-13.08-15.92c-6.86-4.39-12.13-2.49-14.11-1.46-.51.27-.77.84-.65,1.4h0c.2.9,1.01,1.53,1.93,1.52,1.13-.02,2.82.1,4.92.68,3.97,1.1,8.42,6.39,8.42,6.39l6.58,9.5,5.99-2.12Z"/>
        <path class="cls-4" d="m1380.78,4276.08s-5.95-7.99-14.49-11.74c-6.01-2.64-9.77-1.24-11.47-.19-.64.4-.86,1.23-.51,1.9h0c.28.54.88.83,1.47.74.91-.15,2.43-.26,4.49.05,3.53.52,8.42,4.41,8.42,4.41l7.64,7.12,4.43-2.29Z"/>
        <path class="cls-2" d="m1354.07,4263.94c-.13.12-.16.32-.06.48.11.18.34.23.52.12,1.64-1.02,6.06-3.06,11.58.13.62.36,1.34.94,2.19,1.62.31.25.63.51.97.77.16.13.4.1.53-.06.13-.16.1-.4-.06-.53-.34-.27-.66-.52-.96-.77-.87-.7-1.62-1.3-2.28-1.68-5.87-3.4-10.59-1.22-12.35-.12-.02.01-.04.03-.06.04Z"/>
        <path class="cls-2" d="m1352.7,4260.43c-.12.11-.16.3-.08.45.1.18.33.26.51.16,1.41-.74,6.58-2.81,13.73,1.76,1.23.79,2.45,1.72,3.61,2.77.16.14.39.12.53-.03.14-.15.13-.39-.03-.53-1.2-1.08-2.44-2.03-3.71-2.84-7.49-4.79-12.98-2.59-14.49-1.8-.03.02-.06.04-.08.06Z"/>
      </g>
    </g>
    <g>
      <rect class="cls-4" x="1240.96" y="2739.82" width="19.66" height="54.66" transform="translate(2676.31 5448.48) rotate(176.33)"/>
      <path class="cls-1" d="m1229.34,2782.91v96.14c0,8.62,10.07,15.6,22.5,15.6h0c12.42,0,22.5-6.98,22.5-15.6v-96.14s-44.99,0-44.99,0Z"/>
      <g>
        <path class="cls-4" d="m1228.68,2782.9l-1.62-25.36c-.07-1.3-1.21-2.27-2.5-2.13h0c-1.18.13-2.06,1.15-2.02,2.33l.16,2.98,1.15,22.19h4.84Z"/>
        <path class="cls-4" d="m1224.33,2777.71l-2.12-22.83c-.05-1.33-1.15-2.37-2.48-2.35h0c-1.34.03-2.4,1.13-2.38,2.47l.08,3.82.59,19.36,6.31-.47Z"/>
        <path class="cls-4" d="m1220.06,2779.66l-3.03-25.18c-.02-1.35-1.08-2.46-2.44-2.54h0c-1.48-.09-2.72,1.08-2.73,2.56l.1,3.71.36,18.83,7.75,2.61Z"/>
        <path class="cls-4" d="m1218.02,2779.73l-6.58-24.22c-.25-1.29-1.45-2.16-2.75-1.99h0c-1.4.18-2.37,1.49-2.14,2.88l1.83,9.04,4.28,14.46,5.35-.17Z"/>
        <path class="cls-4" d="m1211.75,2784.82s-3.15-7.97-5.5-11.54c-1.49-2.25-4.04-6.22-5.72-8.83-.9-1.41-.45-3.28,1-4.12h0c1.42-.83,3.24-.51,4.3.75l6.4,7.58,2.98,9.12,11.42-1.5v9.08s-14.87-.53-14.87-.53Z"/>
        <path class="cls-2" d="m1218.3,2764.55s.02,0,.03,0c.31-.03.53-.31.49-.62l-.81-7.25c-.03-.31-.34-.53-.62-.49-.31.03-.53.31-.49.62l.81,7.25c.03.3.29.51.59.5Z"/>
        <path class="cls-2" d="m1222.8,2762.88h0c.31-.02.54-.28.52-.59l-.27-4.55c-.02-.31-.28-.54-.59-.52-.26,0-.54.28-.53.59l.27,4.55c.02.31.28.54.59.52Z"/>
        <path class="cls-2" d="m1212.81,2765.21s.02,0,.03,0c.31-.03.53-.31.49-.62l-.81-7.25c-.03-.31-.34-.53-.62-.49-.31.03-.53.31-.49.62l.81,7.25c.03.3.29.51.59.5Z"/>
      </g>
      <g>
        <path class="cls-4" d="m1166.58,2761.73l15.29-19.22c.77-.99,2.21-1.13,3.16-.3h0c.87.75,1,2.05.31,2.97l-1.77,2.28-13.16,16.96-3.83-2.68Z"/>
        <path class="cls-4" d="m1172.89,2760.02l14.29-16.94c.77-1.03,2.22-1.25,3.26-.49h0c1.05.76,1.28,2.22.53,3.27l-2.17,2.98-11.16,15.03-4.75-3.85Z"/>
        <path class="cls-4" d="m1175.21,2763.92l16.3-18.3c.76-1.06,2.22-1.36,3.33-.67h0c1.22.75,1.56,2.36.75,3.54l-2.13,2.89-10.68,14.74-7.59-2.2Z"/>
        <path class="cls-4" d="m1176.78,2765.1l18.59-15.58c.91-.88,2.34-.91,3.28-.06h0c1.01.92,1.06,2.49.1,3.46l-6.45,6.16-11.38,9.1-4.15-3.09Z"/>
        <path class="cls-4" d="m1173.21,2767.72s8.27.51,12.25,1.61c2.52.7,6.92,1.86,9.82,2.62,1.56.41,3.15-.57,3.49-2.15h0c.33-1.56-.5-3.13-1.97-3.73l-8.88-3.62h-9.27s-2.04-10.95-2.04-10.95l-4.7,4.24,1.29,11.98Z"/>
        <path class="cls-2" d="m1184.94,2752.9s-.01-.01-.02-.02c-.22-.2-.25-.54-.05-.76l4.64-5.3c.2-.22.57-.23.76-.05.22.2.25.54.05.76l-4.64,5.3c-.19.22-.52.25-.74.07Z"/>
        <path class="cls-2" d="m1182.29,2749.09h0c-.23-.19-.27-.53-.09-.76l2.73-3.45c.18-.23.52-.27.76-.09.2.15.28.52.09.76l-2.73,3.45c-.18.23-.52.27-.76.09Z"/>
        <path class="cls-2" d="m1188.93,2756.46s-.01-.01-.02-.02c-.22-.2-.25-.54-.05-.76l4.64-5.3c.2-.22.57-.23.76-.05.22.2.25.54.05.76l-4.64,5.3c-.19.22-.52.25-.74.07Z"/>
      </g>
      <path class="cls-1" d="m1174.54,2963.32s-35.93-13.14-76.52-9.82c-6.91.57-12.31,1-16.51,1.32-8.2.63-14.04,11.23-13.02,23.64h0c1.01,12.38,8.47,21.88,16.65,21.21l45.9-3.76,45.01-4.87-1.5-27.72Z"/>
      <path class="cls-1" d="m1216.09,2975.53s30.67-30.65,49.37-74.02c3.19-7.39,5.68-13.15,7.64-17.63,3.81-8.75-2.38-19.86-13.81-24.79h0c-11.41-4.92-23.71-1.82-27.48,6.93l-21.15,49.05-19.7,48.66,25.13,11.8Z"/>
      <rect class="cls-4" x="984.06" y="2972.36" width="19.66" height="54.66" transform="translate(3431.62 988.87) rotate(68.81)"/>
      <path class="cls-1" d="m984.1,2989.57l92.74-33.4c8.31-2.99,18.46,4.06,22.67,15.74h0c4.21,11.69.89,23.59-7.43,26.59l-92.74,33.4-15.25-42.33Z"/>
      <path class="cls-1" d="m1197.79,2987.3h0c21.92-7.92,34.62-30.43,24.83-46.06l-12.65-16.56-62.3,22.51,1.15,22.09c3.05,17.8,27.46,25.8,48.98,18.03Z"/>
      <path class="cls-2" d="m1216.3,2933.72l-66.99,24.21c-.31.11-.65-.05-.76-.36s.05-.65.36-.76l66.99-24.21c.31-.11.65.05.76.36s-.05.65-.36.76Z"/>
      <path class="cls-2" d="m1178.54,2991.02l-21.71-4.65c-.32-.07-.53-.38-.46-.7s.38-.53.7-.46l21.71,4.65c.32.07.53.38.46.7s-.38.53-.7.46Z"/>
      <path class="cls-4" d="m1233.24,2841.87c4.95,2.13,7.28,7.82,5.26,12.81l-31.69,78.12c-2.16,5.02-7.98,7.34-13,5.18h0c-5.02-2.16-7.34-7.98-5.18-13l31.53-77.74c2.08-5.14,7.99-7.56,13.08-5.37h0Z"/>
      <path class="cls-4" d="m1218.95,2774.69c4.59-.64,8.85,2.51,9.57,7.09l10.68,67.15c.75,5.41-3.02,10.41-8.44,11.17h0c-5.41.75-10.41-3.02-11.17-8.44l-7.91-67.55c-.54-4.59,2.69-8.77,7.27-9.41h0Z"/>
      <path class="cls-9" d="m1231.5,2912.15l-35.94-17.43-13.22,34.12c-2.93,6.39-2.21,13.85,1.87,19.57h0c3.84,5.38,11.76,5.57,15.86.39l31.43-36.65Z"/>
      <path class="cls-4" d="m1139.2,2814.11c-5.38,0-9.78,4.3-9.9,9.68l-1.83,84.28c0,5.47,4.42,9.9,9.89,9.9h0c5.47,0,9.9-4.42,9.9-9.89l1.82-83.87c.12-5.54-4.34-10.11-9.88-10.11h0Z"/>
      <path class="cls-4" d="m1178.92,2758.09c-3.96-2.4-9.12-1.2-11.6,2.72l-36.39,57.44c-2.83,4.67-1.34,10.76,3.33,13.59h0c4.67,2.84,10.76,1.35,13.6-3.33l34.01-58.9c2.31-4,1-9.12-2.95-11.52h0Z"/>
      <path class="cls-9" d="m1113.11,2883.62l39.91,1.79-3.57,40.27c-.47,7.01-4.65,13.24-10.97,16.32h0c-5.94,2.9-12.99-.7-14.13-7.21l-11.24-51.17Z"/>
      <path class="cls-9" d="m1176.5,2927.93l27.01,14.72-3.93,11.19c-4.3,10.7-16.62,15.69-27.15,11l-35.44-12.21c-10.59-4.72-15.09-17.32-9.91-27.68l8.83-11.63,29.94,10.12,10.65,4.49Z"/>
      <ellipse class="cls-4" cx="1167.81" cy="2926.46" rx="20.58" ry="19.2" transform="translate(-1981.88 2840.18) rotate(-66.68)"/>
      <path class="cls-4" d="m1182.1,2933.84c2.5-1.7,5.75-1.26,7.27.98,1.52,2.24.72,5.43-1.78,7.12s-5.75,1.26-7.27-.98c-1.52-2.24-.72-5.43,1.78-7.12Z"/>
      <path class="cls-4" d="m1152.79,2921.2c-.48-2.98-3.04-5.05-5.71-4.61-2.67.43-4.44,3.2-3.96,6.18s3.04,5.05,5.71,4.61c2.67-.43,4.44-3.2,3.96-6.18Z"/>
      <path class="cls-2" d="m1185.44,2934.06c4.5-10.44-2.59-15.7-12.33-19.9s-18.43-5.74-22.93,4.7c-4.5,10.44-.26,22.3,9.48,26.5s21.28-.86,25.78-11.3Z"/>
      <rect class="cls-2" x="1150.04" y="2929.23" width="36.79" height="57.52" transform="translate(-97.75 40.5) rotate(-1.91)"/>
      <polygon class="cls-4" points="1177.55 2903.44 1172.95 2906.86 1178.53 2909.27 1177.55 2903.44"/>
      <g>
        <path class="cls-6" d="m1239.78,2764.55l-24.3-26.24,71.66-49.52,5.46,7.9c3.34,4.83,2.66,11.38-1.61,15.42l-14.95,14.16-18.75,25.14-17.51,13.13Z"/>
        <path class="cls-6" d="m1255.77,2750.71l7.93,5.23c2.47,1.63,5.8.92,7.38-1.58h0c2.2-3.46-.2-8-4.29-8.13l-7.99-.26-3.02,4.73Z"/>
      </g>
      <path class="cls-6" d="m976.72,3020.24l-20.3,8.09-18.51-53.91c-.72-2.11.29-4.42,2.33-5.31l5.18-2.27c5.38-2.36,6.96-.87,10.12,4.08l4.22,13.91,11.84,12.19,5.12,23.22Z"/>
      <path class="cls-6" d="m967.13,3001.58l6.65-6.78c2.07-2.11,2.01-5.51-.14-7.55h0c-2.98-2.82-7.89-1.33-8.8,2.67l-1.78,7.8,4.07,3.87Z"/>
    </g>
    <g>
      <rect class="cls-4" x="2192.6" y="2049.85" width="24.24" height="68.28" transform="translate(-788.47 2578.59) rotate(-52.77)"/>
      <g>
        <path class="cls-6" d="m2213.28,2106.45l12.32,24.49c.36.72,1.1,1.18,1.91,1.18h5.88c1.72,0,3.4-.45,4.88-1.32,9.28-5.42,38.23-26.54,37.02-28.99l-1.78-3.6c-2.61-5.27-8.66-7.85-14.27-6.07l-10.8,7.59-15.18-2.23-19.97,8.94Z"/>
        <path class="cls-6" d="m2233.15,2099.17l-.73-9.47c-.23-2.95,2.01-5.51,4.96-5.69h0c4.09-.25,6.9,4.05,5.03,7.7l-3.65,7.12-5.61.35Z"/>
      </g>
      <rect class="cls-4" x="1947.43" y="2202.62" width="24.24" height="68.28"/>
      <g>
        <path class="cls-6" d="m1971.89,2257.54l8.48,34.74-86.69,8.45-.93-9.56c-.57-5.85,3.21-11.24,8.9-12.7l19.95-5.11,28.61-12.86,21.68-2.96Z"/>
        <path class="cls-6" d="m1951.18,2261.86l-4.38-8.43c-1.37-2.63-4.62-3.62-7.22-2.21h0c-3.6,1.95-3.72,7.08-.2,9.19l6.86,4.11,4.94-2.67Z"/>
      </g>
      <rect class="cls-2" x="1936.2" y="1920.85" width="18.15" height="43.62" transform="translate(-549.5 787.62) rotate(-20.12)"/>
      <rect class="cls-4" x="1942.54" y="1926.58" width="13.21" height="31.82" rx="3.01" ry="3.01" transform="translate(-549.21 788.94) rotate(-20.12)"/>
      <path class="cls-4" d="m1960.29,1917.22c-.45-11.36-9.29-19-19.88-18.58-10.59.42-16.45,9.26-16.01,20.61s4.79,19.39,15.32,18.15c10.81-1.27,21.02-8.82,20.57-20.18Z"/>
      <polygon class="cls-4" points="1925.74 1920.93 1920.95 1921.16 1926.14 1926.65 1925.74 1920.93"/>
      <path class="cls-4" d="m1945.44,1918.92c1.52-2.61,4.65-3.62,6.98-2.25,2.34,1.36,3,4.58,1.47,7.19-1.52,2.61-4.65,3.62-6.98,2.25-2.34-1.36-3-4.58-1.47-7.19Z"/>
      <path class="cls-4" d="m1899.97,2071.34c-5.28-1.05-8.75-6.13-7.81-11.43l14.71-83.01c1.07-5.36,6.28-8.84,11.64-7.77h0c5.36,1.07,8.84,6.28,7.77,11.64l-14.64,82.6c-.97,5.46-6.23,9.06-11.67,7.98h0Z"/>
      <path class="cls-4" d="m1957.3,2085.65c-1.76,4.29-6.63,6.37-10.95,4.69l-48.16-19.42c-5.05-2.08-7.46-7.86-5.39-12.92h0c2.08-5.06,7.86-7.47,12.92-5.39l47.12,22.01c4.24,1.85,6.22,6.75,4.46,11.02h0Z"/>
      <path class="cls-9" d="m1932.68,2036.83l-36.74-6.25,10.14-52.62c1.33-6.9,6.25-12.56,12.9-14.84h0c6.25-2.14,12.81,2.3,13.13,8.9l.57,64.81Z"/>
      <path class="cls-1" d="m1991.09,2059.23s37.17-36.81,89.25-63.2c8.87-4.5,15.78-8.01,21.17-10.77,10.5-5.37,23.61-.7,29.23,10.4h0c5.62,11.08,1.66,24.38-8.84,29.7l-58.89,29.84-58.4,28.28-13.52-24.26Z"/>
      <path class="cls-1" d="m1967.74,2038.43s-24.82,41.64-35.49,94.2c-1.82,8.95-3.25,15.93-4.37,21.37-2.19,10.61,5.94,21.24,18.14,23.72h0c12.18,2.47,23.79-4.11,25.94-14.71l12.07-59.43,10.71-58.64-27-6.51Z"/>
      <path class="cls-1" d="m1976.57,2242.85l-4.19-86.54c-.38-7.76-10.74-13.56-23.15-12.96h0c-12.41.6-22.17,7.37-21.79,15.13l4.19,86.54,44.94-2.17Z"/>
      <path class="cls-1" d="m2233.44,2072.98l-109.35-85.2c-9.8-7.64-23.94-5.88-31.57,3.92h0c-7.64,9.8-5.88,23.94,3.92,31.57l109.35,85.2,27.65-35.49Z"/>
      <path class="cls-1" d="m1998.23,2086.27h0c21.89-8.02,33.71-32.7,23.02-50.56l-13.64-19.01-62.21,22.79,2.22,24.74c3.95,20.02,29.12,29.91,50.61,22.04Z"/>
      <path class="cls-2" d="m2013.98,2025.72l-66.88,24.5c-.31.11-.65-.05-.76-.35s.05-.65.35-.76l66.88-24.5c.31-.11.65.05.76.35s-.05.65-.35.76Z"/>
      <path class="cls-4" d="m2027.78,1878.48c4.64,2.73,6.24,8.68,3.6,13.37l-41.29,73.5c-2.78,4.71-8.84,6.27-13.55,3.5h0c-4.71-2.78-6.27-8.85-3.5-13.55l41.08-73.14c2.72-4.84,8.88-6.49,13.65-3.68h0Z"/>
      <path class="cls-4" d="m2052.25,1816.39c4.28,1.78,6.34,6.66,4.64,10.97l-24.96,63.25c-2.1,5.04-7.9,7.43-12.94,5.32h0c-5.04-2.1-7.43-7.9-5.32-12.95l27.55-62.19c1.87-4.23,6.78-6.18,11.05-4.4h0Z"/>
      <g>
        <path class="cls-4" d="m2038.89,1826.03s7.09-19.62,18.17-28.89c9.88-8.27,18.37-6.78,21.67-5.63.84.29,1.37,1.1,1.31,1.99h0c-.1,1.47-1.23,2.67-2.69,2.87-1.76.24-4.36.84-7.47,2.24-5.92,2.67-11.59,11.97-11.59,11.97l-7.98,16.38-11.42-.92Z"/>
        <path class="cls-4" d="m2054.64,1829.95s6.21-13.19,10.29-19.62c4.07-6.43,2.61-7.97.5-9.16-3.33-1.88-7.4,4.16-9.84,8.01-2.44,3.85-4.43,3.2-4.43,3.2l-4.1,18.08,7.58-.5Z"/>
        <path class="cls-4" d="m2043.78,1826.22s4.25-17.08,16.58-27.94c9.64-8.49,18.31-6.79,21.64-5.64.86.29,1.4,1.13,1.34,2.03h0c-.1,1.45-1.21,2.63-2.65,2.83-1.76.24-4.37.83-7.5,2.24-5.92,2.67-11.59,11.97-11.59,11.97l-7.98,16.38-9.83-1.87Z"/>
        <path class="cls-4" d="m2042.24,1822.75s7.37-13.87,19.78-21.75c8.73-5.55,14.92-4.27,17.82-3.03,1.09.47,1.63,1.71,1.24,2.83h0c-.31.9-1.17,1.51-2.12,1.5-1.45,0-3.84.18-6.99,1.15-5.37,1.66-12.07,8.88-12.07,8.88l-10.2,12.93-7.46-2.51Z"/>
        <path class="cls-4" d="m2040,1826.29s7.37-13.87,19.78-21.75c9.36-5.95,15.8-4.05,18.4-2.77.76.38,1.12,1.26.84,2.06h0c-.41,1.19-1.52,1.98-2.77,2.01-1.47.03-3.92-.26-6.52,1.15-9.83,5.34-5.64,10.75-10.02,17.68-7,11.05-12.25,4.13-12.25,4.13l-7.46-2.51Z"/>
        <path class="cls-2" d="m2079.09,1801.61c.58.39,1.22,1.06.88,2.03-.11.31-.45.48-.76.37-.32-.11-.48-.45-.37-.75.05-.14.14-.41-.94-.95-2.3-1.14-8.5-2.99-16.53,4.44-.24.22-.62.21-.84-.03-.22-.24-.21-.62.03-.84,8.57-7.93,15.35-5.88,17.87-4.64.15.08.4.2.65.37Z"/>
        <path class="cls-2" d="m2080.96,1797.44c.23.16.33.46.21.73-.13.3-.48.44-.78.31-2.8-1.2-10.17-3.31-18.01,2.98-.88.7-1.87,1.79-3.02,3.05-.42.46-.86.94-1.33,1.44-.22.24-.6.26-.84.03-.24-.22-.25-.6-.03-.84.46-.5.9-.97,1.32-1.43,1.19-1.29,2.21-2.41,3.15-3.17,8.34-6.7,16.22-4.43,19.22-3.15.04.01.07.03.1.05Z"/>
        <path class="cls-2" d="m2082.25,1791.64c.22.15.32.43.23.69-.11.31-.45.48-.76.37-2.38-.82-10.93-2.81-20.98,6.03-1.73,1.52-3.4,3.27-4.97,5.18-.21.25-.58.28-.84.08-.25-.21-.29-.58-.08-.84,1.61-1.96,3.32-3.75,5.1-5.32,10.52-9.26,19.61-7.14,22.15-6.26.05.02.1.04.14.07Z"/>
      </g>
      <path class="cls-9" d="m2023.92,1913.58l-38.27-11.45-14.24,51.66c-1.87,6.77.03,14.03,4.98,19.02h0c4.65,4.69,12.5,3.62,15.72-2.15l31.81-57.07Z"/>
      <polygon class="cls-9" points="1955.08 1946.03 1985.27 1939.39 2016.06 2019.16 1941.92 2044.81 1915.98 1964.49 1944.27 1950.13 1955.08 1946.03"/>
      <g>
        <path class="cls-4" d="m1956.47,2065.74h-12.78c-2.13,0-3.78,1.8-3.68,4h0c.1,2.26,2.02,4.03,4.2,3.87l12.72-.93c1.87-.14,3.21-1.84,2.99-3.77h0c-.21-1.79-1.7-3.17-3.44-3.17Z"/>
        <path class="cls-4" d="m1958.33,2079.94l-15.23.9c-1.65.1-3.19-1.03-3.69-2.71l-.1-.34c-.68-2.29.84-4.56,3.1-4.64l15.33-.56c1.84-.07,3.47,1.37,3.73,3.29h0c.29,2.09-1.15,3.94-3.15,4.06Z"/>
        <path class="cls-4" d="m1958.38,2082.76h0c-.27-1.58-1.65-2.72-3.24-2.68l-10.16.22c-1.65.03-3,1.31-3.14,2.95l-.07.82c-.17,2.01,1.53,3.68,3.53,3.48l10.23-1.03c1.85-.19,3.16-1.9,2.85-3.74Z"/>
        <path class="cls-4" d="m1956.56,2088.64h0c-.41-1.2-1.51-2.01-2.66-1.96l-8.38.34c-1.37.06-2.35,1.29-2.21,2.76l.09.93c.16,1.62,1.59,2.84,3.06,2.62l8.29-1.28c1.49-.23,2.34-1.84,1.81-3.42Z"/>
        <g>
          <path class="cls-2" d="m1941.59,2073.14s0-.01,0-.02c.07-.15.26-.22.41-.15.52.24,1.58.37,2.18.33l13.47-.83c.11,0,2.24,0,3.52,1.32.66.68.96,1.59.91,2.69-.2,4.08-5.97,4.11-6.33,4.11l-8.02.62c-.6.05-3.9.15-4.74.11-.17,0-.3-.15-.3-.32,0-.17.15-.3.32-.3.83.03,4.07-.07,4.67-.11l8.04-.62s.02,0,.03,0c.06,0,5.54.07,5.71-3.52.05-.92-.2-1.67-.74-2.23-1.09-1.14-3.03-1.13-3.05-1.13l-13.45.83c-.69.05-1.85-.09-2.48-.38-.15-.07-.22-.24-.16-.4Z"/>
          <path class="cls-2" d="m1943.78,2087.53c.05-.12.17-.2.3-.19.82.03,5.74-.38,6.56-.49.77-.1,3.28-.32,3.39-.33.05,0,4.72-.47,4.46-3.5-.09-1.06-.74-1.78-1.93-2.13-.94-.28-1.87-.21-1.88-.21-.17.01-.32-.12-.33-.29-.01-.17.11-.32.29-.33,1.45-.11,4.25.36,4.47,2.91.25,2.91-3.18,4-5.02,4.17-.03,0-2.61.23-3.37.32-.77.1-5.77.53-6.66.49-.17,0-.3-.15-.3-.32,0-.04,0-.07.02-.1Z"/>
          <path class="cls-2" d="m1943,2065.47c.04-.11.15-.19.28-.19.08,0,8.21-.19,11.51-.24,3.49-.05,5.61,1.42,5.84,4.02.27,3.11-2.84,4.02-2.87,4.03-.16.05-.34-.05-.38-.21-.05-.16.05-.34.21-.38.11-.03,2.64-.78,2.42-3.38-.19-2.27-2.05-3.49-5.21-3.45-3.3.05-11.43.24-11.51.24-.17,0-.31-.13-.32-.3,0-.04,0-.08.02-.12Z"/>
        </g>
      </g>
      <path class="cls-4" d="m1948.34,2093.04s6.95-.4,8.67-3.18c1.72-2.77-2.46-21.82-9.69-21.5-7.22.31,1.02,24.68,1.02,24.68Z"/>
      <path class="cls-2" d="m1947.81,2091.28c-.13.05-.27.05-.41,0l-4.31-1.61c-.31-.11-.46-.46-.35-.76.12-.31.46-.46.76-.35l4.31,1.61c.31.11.46.46.35.76-.06.17-.2.29-.35.35Z"/>
      <path class="cls-2" d="m1944.43,2070.37c-.11.04-.24.05-.36.02l-4.12-1.13c-.32-.09-.5-.41-.42-.73.09-.32.41-.5.73-.42l4.12,1.13c.32.09.5.41.42.73-.05.19-.2.34-.37.4Z"/>
      <path class="cls-2" d="m1940.77,1898.62c10.68-.42,19.93,5.22,20.48,19.03.02.53.48,15.61.75,22.46s9.29,25.06,9.29,25.06l-5.65-7.03c-2.6-2.44-5.82-4.68-9.52-4.95-7.69-.55-7.71-4.61-7.87-8.87l-1.01-26.71c-6.22-2.22-11.05-10.2-11.05-10.2l1.34,4.5c-4.31-.81-7.31-4.91-8.85-7.56,2.81-3.38,6.89-5.51,12.09-5.72Z"/>
    </g>
    <g>
      <rect class="cls-2" x="910.25" y="406.56" width="18.15" height="43.62"/>
      <rect class="cls-4" x="909.03" y="413.63" width="13.21" height="31.82" rx="3.01" ry="3.01"/>
      <path class="cls-4" d="m900.19,404.28c0-11.37,8.53-19.35,19.13-19.35s16.81,8.6,16.81,19.97-4.02,19.56-14.59,18.74c-10.85-.85-21.35-7.99-21.35-19.35Z"/>
      <polygon class="cls-4" points="934.85 406.63 939.65 406.68 934.68 412.36 934.85 406.63"/>
      <path class="cls-4" d="m915.09,405.4c-1.62-2.55-4.79-3.43-7.07-1.98-2.28,1.45-2.81,4.7-1.19,7.24,1.62,2.55,4.79,3.43,7.07,1.98,2.28-1.45,2.81-4.7,1.19-7.24Z"/>
      <path class="cls-1" d="m941.22,570.25s0-43.21,17.45-86.9c2.97-7.44,5.28-13.25,7.07-17.78,3.49-8.84,15.72-12.27,27.28-7.65h0c11.54,4.61,18.04,15.48,14.52,24.29l-19.73,49.4-20.48,48.11-26.1-9.47Z"/>
      <rect class="cls-4" x="1037.23" y="487.06" width="24.24" height="68.28" transform="translate(-48.38 930.81) rotate(-46.88)"/>
      <path class="cls-6" d="m1058.91,547.83l17.83,21.51,36.47-39.03c2.04-2.03,2.05-5.33.03-7.37l-3.09-3.11c-4.14-4.17-10.7-4.7-15.46-1.24l-6.88,11.82-9.38,1.34-19.52,16.08Z"/>
      <path class="cls-6" d="m1075.44,534.63l-3.7-8.75c-1.15-2.73.16-5.87,2.9-6.97h0c3.8-1.53,7.83,1.66,7.21,5.71l-1.21,7.91-5.21,2.11Z"/>
      <path class="cls-1" d="m1047.47,554.73l-75.25-58.24c-8.09-6.26-8.49-19.28-.9-29.09h0c7.59-9.8,20.29-12.68,28.38-6.42l75.25,58.24-27.48,35.5Z"/>
      <path class="cls-1" d="m927.96,572.44s-24.87-23.69-59.14-33.39c-5.84-1.65-10.39-2.95-13.93-3.97-6.91-2-15.28,6.12-18.67,18.1h0c-3.38,11.96-.52,23.23,6.39,25.18l38.75,10.96,38.4,9.64,8.2-26.52Z"/>
      <rect class="cls-4" x="835.2" y="629.64" width="24.24" height="68.28" transform="translate(58.82 -68.9) rotate(4.82)"/>
      <path class="cls-6" d="m857.36,698.82l-14.55,23.86-41.71-33.37c-2.31-1.71-2.8-4.98-1.09-7.29l2.61-3.53c3.5-4.72,9.92-6.19,15.12-3.45l8.51,10.71,9.47-.02,21.64,13.1Z"/>
      <path class="cls-6" d="m839.1,688.14l2.4-9.19c.75-2.86-1-5.78-3.87-6.48h0c-3.98-.97-7.51,2.77-6.31,6.69l2.33,7.65,5.46,1.33Z"/>
      <path class="cls-1" d="m868.87,669.08l12.17-106.45c1.31-11.44-7.62-21.86-19.93-23.27h0c-12.32-1.41-23.36,6.72-24.67,18.17l-12.17,106.45,44.6,5.1Z"/>
      <path class="cls-1" d="m943.41,599.46h0c22.32-6.72,35.16-32.02,25.1-51.91l-12.98-21.36-63.43,19.1,1.27,26.52c3.19,21.64,28.13,34.25,50.04,27.65Z"/>
      <path class="cls-2" d="m962.76,540.21l-68.2,20.54c-.31.09-.65-.08-.74-.4s.08-.65.4-.74l68.2-20.54c.31-.09.65.08.74.4s-.08.65-.4.74Z"/>
      <polygon class="cls-9" points="923.37 434.7 954.31 437.64 960.91 532.12 888.36 558.91 880.8 442.77 911.86 435.72 923.37 434.7"/>
      <path class="cls-4" d="m998.88,545.07c-4.49,1.74-9.55-.44-11.38-4.9l-28.65-69.79c-1.76-4.56.51-9.69,5.07-11.45h0c4.56-1.76,9.69.51,11.45,5.07l28.51,69.44c1.88,4.59-.37,9.83-5,11.62h0Z"/>
      <path class="cls-4" d="m1005.81,620.4c-4.11.72-4.34-2.76-5-7.6l-13.22-70.86c-.68-5.73,2.69-11.05,7.54-11.9h0c4.84-.84,9.32,3.12,10,8.84l4.65,72.47c.49,4.86.12,8.32-3.98,9.03h0Z"/>
      <path class="cls-9" d="m970.92,509.68l31.18-24.97-34.41-41.08c-4.51-5.39-11.56-7.95-18.48-6.72h0c-6.5,1.16-10.08,8.23-7.16,14.16l28.87,58.61Z"/>
      <path class="cls-4" d="m866.35,413.76c4.67-1.19,9.43,1.56,10.72,6.21l11,24.61c1.21,4.74-1.65,9.56-6.39,10.77h0c-4.74,1.21-8.29-2.39-10.77-6.39l-10.9-24.25c-1.33-4.78,1.53-9.72,6.34-10.95h0Z"/>
      <path class="cls-4" d="m884.97,356.37c4.02,1,1.79,3.32.87,7.36l-8.87,61.03c-1.18,4.75-5.99,7.63-10.74,6.45h0c-4.75-1.18-7.63-5.99-6.45-10.74l16.01-58.72c1.09-3.99,5.17-6.38,9.18-5.38h0Z"/>
      <g>
        <path class="cls-4" d="m875.61,362.41s3.93-12.64,10.68-18.83c6.02-5.52,11.44-4.82,13.57-4.19.54.16.9.66.89,1.22h0c-.02.94-.7,1.72-1.62,1.9-1.11.21-2.74.65-4.67,1.63-3.67,1.86-7,7.92-7,7.92l-4.59,10.61-7.26-.25Z"/>
        <path class="cls-4" d="m883.68,363.63s7.54-5.35,11.8-7.63c4.26-2.29,3.92-3.59,3.13-4.9-1.25-2.08-5.39,0-7.93,1.36-2.55,1.37-3.44.39-3.44.39l-7.9,8.71,4.34,2.09Z"/>
        <path class="cls-4" d="m878.71,362.39s2.2-10.95,9.7-18.18c5.86-5.66,11.41-4.83,13.55-4.2.55.16.92.67.91,1.25h0c-.02.92-.69,1.7-1.6,1.87-1.11.2-2.75.65-4.69,1.64-3.67,1.86-7,7.92-7,7.92l-4.59,10.61-6.29-.9Z"/>
        <path class="cls-4" d="m877.64,360.23s4.27-9,11.9-14.35c5.37-3.77,9.33-3.14,11.21-2.43.71.26,1.08,1.04.87,1.76h0c-.17.58-.69.99-1.3,1.01-.92.04-2.43.22-4.4.93-3.35,1.21-7.39,5.98-7.39,5.98l-6.09,8.48-4.8-1.38Z"/>
        <path class="cls-2" d="m901.44,343.08c.15.09.22.28.16.45-.07.19-.29.29-.48.22-1.81-.68-6.54-1.81-11.32,2.41-.53.47-1.13,1.19-1.83,2.02-.25.3-.52.62-.8.95-.13.16-.37.18-.53.04-.16-.13-.18-.37-.04-.53.28-.33.54-.64.8-.94.71-.85,1.33-1.59,1.91-2.1,5.09-4.48,10.15-3.27,12.09-2.55.02,0,.04.02.06.03Z"/>
        <path class="cls-2" d="m902.09,339.37c.14.09.21.26.17.43-.06.2-.27.31-.47.26-1.53-.45-7.01-1.46-13.12,4.43-1.05,1.02-2.06,2.17-3,3.43-.12.17-.36.2-.53.08-.17-.12-.2-.36-.08-.53.96-1.29,2-2.47,3.08-3.52,6.4-6.17,12.22-5.09,13.85-4.61.03,0,.06.02.09.04Z"/>
      </g>
      <g>
        <path class="cls-4" d="m1009.68,609.49s1.7,13.12-1.85,21.57c-3.17,7.53-8.39,9.16-10.58,9.47-.56.08-1.09-.22-1.32-.74h0c-.37-.86-.08-1.86.68-2.4.92-.65,2.21-1.74,3.56-3.43,2.56-3.22,3.06-10.11,3.06-10.11l-.26-11.56,6.71-2.8Z"/>
        <path class="cls-4" d="m1001.84,611.74s-4.62,8.01-7.54,11.86c-2.92,3.85-2.07,4.9-.8,5.76,2.01,1.37,4.9-2.24,6.64-4.54,1.75-2.31,2.97-1.79,2.97-1.79l3.55-11.21-4.81-.08Z"/>
        <path class="cls-4" d="m1006.87,610.8s2.57,10.87-1.23,20.57c-2.97,7.59-8.35,9.15-10.56,9.47-.57.08-1.12-.23-1.35-.75h0c-.37-.85-.08-1.83.67-2.37.92-.65,2.22-1.74,3.58-3.44,2.56-3.22,3.06-10.11,3.06-10.11l-.26-11.56,6.09-1.8Z"/>
        <path class="cls-4" d="m1008.75,612.31s-.13,9.96-4.83,18.01c-3.31,5.66-7.17,6.74-9.17,6.89-.75.05-1.42-.49-1.52-1.24h0c-.09-.6.22-1.19.76-1.46.82-.41,2.12-1.22,3.61-2.68,2.54-2.5,4.23-8.52,4.23-8.52l2-10.25,4.93-.75Z"/>
        <path class="cls-2" d="m994.26,637.83c-.18-.02-.32-.16-.33-.35-.01-.21.14-.39.35-.4,1.93-.14,6.7-1.09,9.29-6.91.29-.65.53-1.55.82-2.6.1-.38.21-.78.33-1.2.06-.2.26-.32.47-.26.2.06.32.27.26.47-.12.41-.23.81-.33,1.19-.29,1.07-.55,2-.86,2.7-2.76,6.2-7.86,7.21-9.92,7.36-.02,0-.05,0-.07,0Z"/>
        <path class="cls-2" d="m995.22,641.47c-.17-.02-.3-.15-.33-.32-.03-.21.11-.4.32-.43,1.58-.23,6.98-1.59,10.08-9.49.53-1.36.97-2.83,1.3-4.36.04-.2.24-.33.45-.29.2.04.33.24.29.45-.34,1.57-.78,3.08-1.33,4.48-3.24,8.28-8.99,9.72-10.67,9.96-.03,0-.07,0-.1,0Z"/>
      </g>
      <path class="cls-2" d="m918.96,384.93c-10.69,0-19.71,6-19.71,19.82,0,.53.13,15.62.13,22.47s-8.3,25.4-8.3,25.4l5.37-7.25c2.5-2.54,5.63-4.91,9.31-5.32,7.66-.86,7.52-4.92,7.52-9.17l-.04-26.73c6.12-2.46,10.64-10.63,10.64-10.63l-1.16,4.55c4.27-.98,7.11-5.19,8.54-7.9-2.95-3.27-7.11-5.24-12.31-5.24Z"/>
      <path class="cls-9" d="m880.82,421.95l-29.08,27.39,37.58,38.19c4.93,5.01,12.16,7,18.96,5.22h0c6.39-1.68,9.39-9.01,6.01-14.68l-33.47-56.11Z"/>
    </g>
  </g>
</svg>