<svg id="visual" viewBox="0 0 900 600" width="900" height="600" xmlns="http://www.w3.org/2000/svg" xmlns:xlink="http://www.w3.org/1999/xlink" version="1.1"><g transform="translate(405.1736361591522 275.4169269475324)"><path d="M91.6 -100C139.2 -91.6 212.3 -92.1 229.1 -67.9C246 -43.7 206.7 5.4 175.3 43.1C143.9 80.8 120.5 107.1 92.6 130.2C64.7 153.3 32.3 173.2 -4.8 179.8C-41.9 186.4 -83.9 179.8 -107.3 155.2C-130.8 130.7 -135.8 88.2 -139.7 51.3C-143.6 14.3 -146.5 -17.1 -138 -45.4C-129.5 -73.6 -109.7 -98.7 -84.8 -114.4C-60 -130.2 -30 -136.6 -4 -131.1C22 -125.7 44.1 -108.3 91.6 -100" fill="#FF0066"></path></g></svg>