<?xml version="1.0" encoding="UTF-8"?>
<svg id="_레이어_3" data-name="레이어 3" xmlns="http://www.w3.org/2000/svg" viewBox="0 0 915.28 932.19">
  <defs>
    <style>
      .cls-1 {
        fill: #ffc849;
      }

      .cls-1, .cls-2 {
        stroke-width: 0px;
      }

      .cls-2 {
        fill: #fd521b;
      }
    </style>
  </defs>
  <g id="question_04">
    <path class="cls-1" d="m786.75,592.97c-2.73,3.38-5.97,6.33-9.66,8.66-12.1,7.64-26.8,7.57-39.74,12.9-9.62,3.96-11.25,10.67-11.3,20.35-.01,2.43.75,4.89,1.07,7.28.41,3.07.61,6.15,0,9.21-.81,4.09-3.22,8.54-7.34,10.01-3.53,1.25-7.52,1.25-11.21,1.08-5.11-.23-36.19-1.27-41.1-2.78-20.01-6.14-5.07-14.62-14.48-34.77-.06-.13-.12-.25-.18-.38-13.63-29.85,7.35-51.06,28.66-70.85,11.3-10.5,24.62-29.01,38.76-35.18,8.5-3.71,17.46-6.6,26.71-7.28,9.25-.68,19.63-8.4,27.53-3.55,8.18,5.03,13.3,22.55,17.16,31.34,4.69,10.69-7.87,22.21-10.16,33.66-1.43,7.17,9.86,14.62,5.27,20.29Z"/>
    <path class="cls-1" d="m559.07,829.27c-3.62-5.79,4.48-15.53,7.49-19.93,4.29-6.28,15.18-6.99,20.2-12.69s4.13-16.54,10.61-20.51c10.52-6.46,22.39-2.25,27.8,6.56,3.6,5.86,1.2,14.37-1.19,20.2-3.57,8.68-11.73,11.82-20.01,16.05-6.2,3.17-11.44,8.32-18.14,10.22-5.88,1.66-11.86,3.27-17.97,3.34-3.35.04-7.21-.71-8.79-3.23Z"/>
    <path class="cls-1" d="m505.48,561.68c-2.44.82-9.95,8.43-12,10-6.73,5.14-5.78,3.11-11.4,9.2-4.17,4.52-8.23,4.05-13.61,2.09-1.35-.49-2.56-1.42-3.82-2.09-1.62-.86-3.29-1.6-5.11-1.89-2.44-.39-5.4.03-7.06,2.02-1.42,1.7-2.24,3.92-2.9,6-.92,2.88-15.92,11.64-16.09,14.67-.7,12.37,16.26,14.53,25.52,23.89.06.06,5.43,8.06,5.48,8.11,13.77,13.7,30.12.4,45.48-7.36,8.15-4.12,6.2-17.06,12.52-23.64,3.8-3.96,16.63-.91,18.91-5.91s3.32-10.66,2.25-16.04c-1.11-5.57.93-15.11-3.16-19.05-4.97-4.8-16.63-3.74-23.45-4.82-4.28-.68-7.46,3.45-11.55,4.82Z"/>
    <path class="cls-1" d="m541.46,359.3c6.72-1.23,12.8,9.88,15.78,14.29,4.26,6.3,5.78,21.32,9.23,28.09,3.42,6.7,8.69,12.52,10,20,2.14,12.16-5.83,14.43-16.01,16.22-6.77,1.19-13.81-4.17-18.35-8.54-6.76-6.51-5.76-15.42-6.64-24.68-.66-6.93-4.46-13.53-3.76-20.46.61-6.08,1.32-12.23,3.5-17.94,1.19-3.13,3.31-6.44,6.24-6.98Z"/>
    <path class="cls-1" d="m632.48,240.68c4.33,3.72,6.06,10.82,6,16-.06,5.36,6.8,7.83,7.54,13.23.82,5.9,4,11.65,8.32,16.42,2.92,3.23,6.35,6.06,9.08,9.42,2.73,3.35,4.78,7.47,4.18,11.33-1.62,10.57-15.47,31.91-25.12,33.6-5.94,1.04-4.53-12.18-10-16-5.76-4.03-9.3-18.03-9-24,.31-6.02-3.61-10.19-5.3-16.22-2.41-8.62-10.93-14.95-16.61-22.46-2.97-3.92-4.75-8.16-3.73-12.63,2.08-9.12,4.97-17.05,13.64-18.68,3.3-.62,7.53-3.15,11-3,3.65.16,6.05,4.68,9,7,.15.12.85,5.87,1,6Z"/>
    <path class="cls-1" d="m502.08,124.09c2.44,6.02-10.84,14.18-14.61,20.58-3.89,6.62,1.65,12.23-1.33,19.17-3.25,7.59-3.61,15.75-1.95,23.08,1.12,4.95-9.54,11.7-8.72,16.75.82,5.05-3.55,14.41-7,19-9.44,12.59-14.45,14.04-27,13-7.72-.64-11.32-11.36-15.02-17.88-3.89-6.87,8.4-3.81,13.02-11.12,4.65-7.37,6.68-11.96,9-20,3.31-11.48,8.98-10.95,14-21,4-8-1.39-19.78,3-25,8.95-10.64,3.66-18.79,15-18,4.32.3,7.62-8.27,11.59-6.96,4.18,1.39,7.94,3.93,9.75,7.76.09.2.18.4.27.61Z"/>
    <path class="cls-1" d="m370.48,14.68c12,2,5,5,12,4,5.5-.79,7.88-2.27,13-1,2.94.73,5.39-2.82,6.87-4.81,1-1.34,1.9-2.81,3.02-4.04,1.03-1.14,2.17-2.18,3.33-3.19.53-.46,1.08-1.12,1.69-1.47.52-.3,1.17-.28,1.73-.5.96-.38,1.7-1.23,2.67-1.65.96-.41,1.72-.29,2.71-.31.22,0,.33.03.56-.05.49-.18.89-.73,1.33-1.01,2.24-1.44,5.06-.13,7.11,1.04,1.62.93-.93,3.33,0,5,3.81,6.8,1,16-10,18-.06.01-7.95,3.98-8,4-9,4-3.41,12.38-15,14-6.15.86-13.3-.73-19-2-3.43-.76-6.23-.04-9-2-2.77-1.96-6.4-1.64-7.21-5.15-1.13-4.87.95-8.82,1.79-13.46.59-3.26-.46-5.96,2.43-8.4,2.45-2.07,5.03,2.5,8,3Z"/>
    <path class="cls-1" d="m341.22,288.48c2.21-2.51,7.92-.07,10.41.72,3.55,1.14,6.47,4.92,9.85,6.48s7.28.86,10.05,3.34c4.51,4.04,4.19,10.2.82,13.97-2.25,2.51-4.8,3-7.87,2.69-4.57-.46-10.25-3.14-13.39-6.44-2.35-2.47-8.78-4.68-10.61-7.56-1.6-2.53,1.35-5.76.46-8.62-.49-1.57-.68-3.48.29-4.58Z"/>
  </g>
  <g id="question_09">
    <path class="cls-2" d="m116.83,528.16c-5.49,5.84-13.09,7.6-16.98,3.94s-2.58-11.35,2.91-17.19c5.49-5.84,7.07-1.2,10.96,2.45s8.6,4.96,3.11,10.79Z"/>
    <path class="cls-2" d="m289.79,541.68c-.91,4.82-7.78,7.58-15.34,6.15s-12.96-6.49-12.05-11.32,6.78-2.29,14.35-.86c7.56,1.43,13.96,1.21,13.05,6.03Z"/>
    <path class="cls-2" d="m301.52,816.87c1.57,4.65-3.08,10.42-10.37,12.87-7.29,2.46-14.48.68-16.05-3.97-1.57-4.65,4.79-5.32,12.09-7.77,7.29-2.46,12.76-5.78,14.33-1.13Z"/>
    <path class="cls-2" d="m194.9,647.85c1.95,4.5-2.19,10.64-9.25,13.7-7.06,3.06-14.37,1.89-16.32-2.61-1.95-4.5,4.33-5.7,11.39-8.76,7.06-3.06,12.23-6.83,14.18-2.33Z"/>
    <path class="cls-2" d="m194.23,746.62c-1.52,3.13-2.76,4.27-5.82,4.27s-4.03-2.3-4.03-5.36,1.95-3.48,5.01-3.48,6.18,1.81,4.84,4.57Z"/>
    <path class="cls-2" d="m198.42,404.75c.44,4.89-5.41,9.41-13.08,10.11-7.67.69-14.24-2.71-14.68-7.6-.44-4.89,5.9-4.05,13.57-4.75s13.75-2.65,14.2,2.24Z"/>
    <path class="cls-2" d="m288.16,646.75c-1.44,7.73-8.74,12.85-16.31,11.44s-12.53-8.82-11.09-16.55c1.44-7.73,7.16-4.38,14.73-2.97,7.57,1.41,14.11.35,12.67,8.08Z"/>
    <path class="cls-2" d="m146.49,306.38c-1.52,3.13-2.76,4.27-5.82,4.27s-4.03-2.3-4.03-5.36,1.95-3.48,5.01-3.48,6.18,1.81,4.84,4.57Z"/>
    <path class="cls-2" d="m267.41,345.69c3.67,7.12,2.8,14.88-1.95,17.32-4.74,2.44-11.56-1.35-15.23-8.48-3.67-7.12,1.23-7.07,5.97-9.51s7.54-6.46,11.21.67Z"/>
    <path class="cls-2" d="m173.97,235.4c-1.44,7.73-8.74,12.85-16.31,11.44-7.57-1.41-12.53-8.82-11.09-16.55,1.44-7.73,7.16-4.38,14.73-2.97,7.57,1.41,14.11.35,12.67,8.08Z"/>
    <path class="cls-2" d="m234.01,90.87c2.46,7.47-1.46,15.47-8.77,17.89s-15.23-1.68-17.7-9.15c-2.46-7.47,4.16-7.29,11.47-9.7,7.31-2.41,12.53-6.5,15,.96Z"/>
  </g>
</svg>