<?xml version="1.0" encoding="UTF-8"?>
<svg id="_레이어_1" data-name="레이어 1" xmlns="http://www.w3.org/2000/svg" viewBox="0 0 543.2 902.86">
  <defs>
    <style>
      .cls-1 {
        fill: #5774cd;
      }

      .cls-1, .cls-2 {
        stroke-width: 0px;
      }

      .cls-2 {
        fill: #fd521b;
      }
    </style>
  </defs>
  <g id="question_03">
    <path class="cls-2" d="m242.02,380.26c-12.88,14.98-5.72,9.49-22.27,9.49s-22.57,5.69-30.95-15.38c-6.12-15.37,10.52-18.77,27.06-18.77s36.95,12.12,26.16,24.66Z"/>
    <path class="cls-2" d="m288.14,565.16c.7.32,1.48.62,2.22.42.84-.22,1.4-.99,1.88-1.72,1-1.5,2.51-3.77,3.57-5.36l-24.61-16.14c-.23.62-.41,1.26-.52,1.91-.43,2.64.28,5.25,1.59,7.54,1.45,2.52,3.51,4.68,5.66,6.62,3.04,2.74,6.47,5.05,10.21,6.73Z"/>
    <path class="cls-2" d="m487.63,855.52c10.38,7.18,13.8,12.28,12.11,23.28-1.7,11-10.49,13.2-21.49,11.5-11-1.7-11.4-8.92-9.7-19.92s9.93-21.19,19.08-14.86Z"/>
    <path class="cls-2" d="m393.62,625.75c8.66-20.99,2.83-12.41,20.88-18.38,18.05-5.96,22.57-14.34,39.32,5.62,12.22,14.57-4.71,24.28-22.76,30.24s-44.69.09-37.44-17.48Z"/>
    <path class="cls-2" d="m280.15,218.88c-20.72,24.09-9.21,15.26-35.82,15.26s-36.3,9.16-49.79-24.74c-9.84-24.73,16.92-30.2,43.53-30.2s59.44,19.5,42.08,39.67Z"/>
    <path class="cls-2" d="m439.84,133.94c-13.24,36.11-3.95,21.21-34.11,32.52-30.16,11.31-37.25,25.8-66.94-6.87-21.66-23.84,6.33-41.41,36.49-52.72,30.16-11.31,75.64-3.17,64.55,27.07Z"/>
    <path class="cls-2" d="m410.16,382.3c-2.69,12.33-6.1,17.44-16.92,20.05s-16.2-4.68-18.81-15.49,3.91-13.94,14.73-16.55,23.37,1.12,21,11.99Z"/>
    <path class="cls-2" d="m235.3,14.62c.95-.6,1.93-1.29,2.3-2.35.41-1.19-.08-2.49-.57-3.65-1.01-2.41-2.55-6.07-3.62-8.62l-39.29,16.81c.56.78,1.19,1.51,1.9,2.16,2.85,2.63,6.57,3.88,10.39,4.13,4.21.28,8.48-.49,12.55-1.53,5.75-1.48,11.31-3.77,16.34-6.95Z"/>
  </g>
  <g id="question_02">
    <path class="cls-1" d="m335.53,689.3c-7.72,14.71-19.41,27.5-34.51,34.19-22.83,10.12-50.33,4.77-71.38-8.65-16.33-10.4-30.47-28.54-30.21-48.77.15-11.44,6.53-21.29,17.05-25.86,11.38-4.94,23.41-.76,35.21-.54.85.02,1.7.01,2.56-.02,3.02-.1,6.02-.53,8.91-1.45,13.46-4.25,22.12-16.93,32.97-25.96,3.75-3.12,7.99-5.92,12.81-6.74,6.37-1.09,12.9,1.46,18.13,5.26,10.43,7.59,16.68,20.09,18.26,32.9,1.58,12.8-1.17,25.86-6.11,37.78-1.1,2.66-2.33,5.29-3.68,7.86Z"/>
    <path class="cls-1" d="m94.47,866.53c-12.9,26.58-23.49,36.33-49.55,36.33s-34.29-19.55-34.29-45.61,16.56-29.57,42.62-29.57,52.59,15.4,41.21,38.85Z"/>
    <path class="cls-1" d="m100.84,617.77c.43,1.19.67,2.46.76,3.71.49,7.04-3.11,13.66-7.51,18.89-8.94,10.65-21.73,17.45-34.95,21.74-13.02,4.22-27.18,6.21-40.4,2.69-4.99-1.33-9.89-3.5-13.51-7.19-2.99-3.05-6.61-9.53-4.68-13.99s9.73-5.63,13.87-6.41c12.23-2.31,24.34-5.46,35.91-10.06,8.38-3.33,16.45-7.4,24.88-10.61,4.05-1.55,8.19-2.95,12.43-3.86,3.32-.72,7.18-1.2,10.13.86,1.46,1.02,2.46,2.53,3.07,4.22Z"/>
    <path class="cls-1" d="m339.83,479.65c1.43,5.85-3.66,9.38-8.57,10.77-8.43,2.39-17.41,1.86-26.1.65-7.49-1.04-14.94-2.56-22.03-5.18-4.44-1.64-8.96-4.11-11.44-8.37-2.94-5.03-2.84-11.45-1.91-17.02,1.43-8.62,6.03-21.85,16.99-20.92,3.72.32,7.19,2.34,9.65,5.15,2.2,2.51,3.49,5.49,4.45,8.64.88,2.89,3.48,4.92,5.88,6.56,6.23,4.26,12.99,6.38,20.03,8.78,5.51,1.88,11.55,4.77,13.06,10.94Z"/>
    <path class="cls-1" d="m337.06,872.73c-1.07-2.42-2.81-4.66-5.21-5.87-2.33-1.17-4.93-.84-7.41-.45-2.43.38-5.03.73-7.42-.05s-3.98-2.81-4.85-4.99c-1.15-2.91-1.1-6.46.51-9.19,3.01-5.11,10-7.1,15.58-7.23,4.82-.11,9.92.87,14.25,3.02.91.45,1.8.96,2.65,1.53,3.31,2.21,6.01,5.23,8.04,8.65,2.5,4.2,4.41,8.87,5.3,13.69.73,3.99.93,8.8-2.41,11.72-3.44,3-9.3,3.73-13.04.87-3.58-2.74-4.27-7.77-5.98-11.67,0,0,0-.02-.01-.03Z"/>
    <path class="cls-1" d="m541.77,144.59c-6.83,14.07-12.43,19.23-26.23,19.23s-18.15-10.35-18.15-24.15,8.77-15.65,22.56-15.65,27.84,8.15,21.81,20.57Z"/>
    <path class="cls-1" d="m438.22,421.48c-3.29,2-2.58,5.89-1,8.74,2.73,4.89,7.03,8.71,11.5,12.09,3.85,2.91,7.91,5.59,12.3,7.61,2.74,1.26,5.91,2.19,8.95,1.39,3.6-.95,6.46-3.89,8.56-6.83,3.25-4.54,7.15-12.6,1.78-17.13-1.83-1.54-4.31-2.19-6.69-2.04-2.13.14-4.06.9-5.92,1.9-1.7.91-3.8.65-5.62.31-4.74-.89-8.75-2.99-13.02-5.08-3.34-1.64-7.37-3.07-10.85-.96Z"/>
    <path class="cls-1" d="m418.64,271.94c2.64.15,5.43-.38,7.59-1.96,2.1-1.54,2.99-4.01,3.77-6.39.76-2.34,1.64-4.81,3.42-6.59,1.7-1.7,4.31-2.27,6.65-2.05,3.12.3,6.25,1.96,7.95,4.64,3.18,5.01,1.77,12.13-.65,17.16-2.09,4.34-5.29,8.44-9.17,11.31-.82.61-1.68,1.16-2.57,1.66-3.48,1.94-7.39,2.97-11.36,3.23-4.88.32-9.9-.11-14.6-1.52-3.89-1.16-8.26-3.17-9.33-7.48-1.11-4.43.91-9.98,5.16-12,4.07-1.94,8.86-.26,13.11-.02.01,0,.02,0,.03,0Z"/>
  </g>
</svg>