<?xml version="1.0" encoding="UTF-8"?>
<svg id="_레이어_5" data-name="레이어 5" xmlns="http://www.w3.org/2000/svg" viewBox="0 0 1201.67 932.19">
  <defs>
    <style>
      .cls-1 {
        fill: #5774cd;
      }

      .cls-1, .cls-2 {
        stroke-width: 0px;
      }

      .cls-2 {
        fill: #ffc849;
      }
    </style>
  </defs>
  <g id="question_08">
    <path class="cls-1" d="m445.31,663.5l-18.81,15.84c.04,6.05-7.23,4.74-14.73-2.65l-139.9-138.04c-8.34-8.22-11.71-18.69-6.36-19.7l51.57-32.82c3.45-.65,9.45,3.03,14.43,8.85l107.13,155.02c4.05,4.74,6.63,9.97,6.66,13.5Z"/>
    <path class="cls-1" d="m687.26,852.13l3.8,13.91c3.23,1.47.74,5.02-5.04,7.19l-107.89,40.45c-6.43,2.41-12.83,1.63-12.05-1.47l-4.76-35.52c.5-2,3.94-4.28,8.26-5.5l108.86-18.84c3.52-.99,6.94-1.07,8.82-.22Z"/>
    <path class="cls-1" d="m401.14,911.16c-6.72,13.84-12.23,18.92-25.8,18.92s-17.86-10.18-17.86-23.75,8.63-15.4,22.2-15.4,27.38,8.02,21.46,20.23Z"/>
    <path class="cls-1" d="m347.26,824.05c-12.35.93-6.74,1.67-14.07-5.66s-12.52-7.48-6.9-20.53c4.1-9.52,12.98-3.66,20.31,3.67s11,21.74.66,22.52Z"/>
    <path class="cls-1" d="m340.93,708.26c11.93,3.3,6.91.71,11.33,10.09s9.26,11.27-.44,21.66c-7.08,7.58-13.45-.94-17.87-10.32-4.42-9.38-3.01-24.18,6.99-21.42Z"/>
    <path class="cls-1" d="m557.81,658.79c-3.91-14.59-3.05-30.71,5.07-45.34,12.27-22.13,39.58-37.74,67.14-43.83,21.37-4.72,46.4-3.07,60.61,9.85,8.04,7.31,9.63,17.91,3.9,28.05-6.2,10.97-19.45,16.64-29.69,24.65-.74.58-1.46,1.17-2.17,1.78-2.5,2.15-4.76,4.49-6.57,7.06-8.46,11.97-6.81,25.93-9.63,39.1-.97,4.56-2.6,9.24-6.13,13.08-4.66,5.09-12.06,7.99-19.24,9.2-14.33,2.42-28.59-1.14-39.08-8.1-10.49-6.97-17.46-17.09-21.75-28-.96-2.44-1.78-4.94-2.47-7.48Z"/>
    <path class="cls-1" d="m551.57,393.12c-1.88,12.24.1,6.94-8.7,12.43s-10.11,10.51-21.56,2.09c-8.35-6.15-.63-13.47,8.17-18.96,8.8-5.49,23.67-5.81,22.09,4.44Z"/>
    <path class="cls-1" d="m534.9,302.68c-1.26,7.51-7.64,13.29-14.36,17.01-6.94,3.85-25.65,1.02-31.99,5.79-6.93,5.22-2,16-3.42,26.52-.79,5.81-2.64,11.45-4.73,16.93-2.09,5.48-5.73,10.75-11.18,12.92-14.93,5.95-28.81-6.67-38.84-16.1-6.17-5.81-11.56-13.51-11.09-22.35.49-9.32,7.43-15.83,15.36-19.87,8-4.07,23.51-3.76,29.91-10.05,9.13-8.98,3.91-25.85,8.96-37.62,2.63-6.15,6.63-11.23,13.23-13.37,13.43-4.38,25.57,6.43,34.72,14.82,3.48,3.19,6.96,6.53,9.59,10.48,2.77,4.16,4.55,9.16,3.97,14.12-.03.26-.07.52-.11.77Z"/>
    <path class="cls-1" d="m424.28,97.78c-1.34,15.33-4.68,22.04-17.36,26.88-12.68,4.84-20.31-3.15-25.15-15.83-4.84-12.68,2.57-17.46,15.25-22.3,12.68-4.84,28.44-2.27,27.26,11.25Z"/>
  </g>
  <g id="question_10">
    <path class="cls-2" d="m984.51,598.29l13.22-66.7c1.23-6.23,4.75.82,7.13,14.28l44.34,251.12c2.64,14.96,2.23,28.33-.77,25.16l-37.1-39.19c-1.93-2.04-4.3-10.52-5.69-20.39l-20.46-145.23c-1.13-8.03-1.39-15.41-.67-19.04Z"/>
    <path class="cls-2" d="m1175.55,767.75l-31.12,60.45c-2.91,5.65-4.34-2.1-2.91-15.69l26.7-253.6c1.59-15.11,5.67-27.84,7.68-23.97l24.84,47.91c1.3,2.5,1.23,11.3-.16,21.17l-20.42,145.24c-1.13,8.03-2.92,15.2-4.61,18.49Z"/>
    <path class="cls-2" d="m815.79,784.88l-30.23-8.85c-2.82-.83-1.81-4.25,2.06-6.94l72.1-50.13c4.3-2.99,9.36-3.2,9.53-.4l2.12,34.58c.11,1.8-1.94,4.27-4.93,5.92l-43.99,24.4c-2.43,1.35-5.01,1.9-6.66,1.42Z"/>
    <path class="cls-2" d="m1128.75,430.42l-30.23-8.85c-2.82-.83-1.81-4.25,2.06-6.94l72.1-50.13c4.3-2.99,9.36-3.2,9.53-.4l2.12,34.58c.11,1.8-1.94,4.27-4.93,5.92l-43.99,24.4c-2.43,1.35-5.01,1.9-6.66,1.42Z"/>
    <path class="cls-2" d="m1004.97,282.61l-30.23-8.85c-2.82-.83-1.81-4.25,2.06-6.94l72.1-50.13c4.3-2.99,9.36-3.2,9.53-.4l2.12,34.58c.11,1.8-1.94,4.27-4.93,5.92l-43.99,24.4c-2.43,1.35-5.01,1.9-6.66,1.42Z"/>
    <path class="cls-2" d="m746.61,110.14l-10.22-29.79c-.95-2.78,2.43-3.93,6.85-2.32l82.55,29.94c4.92,1.78,8.02,5.79,5.83,7.55l-27.01,21.7c-1.41,1.13-4.6.88-7.68-.6l-45.32-21.84c-2.51-1.21-4.45-3-5-4.62Z"/>
    <path class="cls-2" d="m812.98,442.14l-1.98-25.88c-.19-2.42,2.24-4.02,4.91-3.25l49.81,14.41c2.97.86,4.37,4.07,2.65,6.04l-21.35,24.38c-1.11,1.27-3.19,1.55-4.99.67l-26.48-12.9c-1.46-.71-2.46-2.06-2.57-3.47Z"/>
  </g>
</svg>