<?xml version="1.0" encoding="UTF-8"?>
<svg id="_레이어_4" data-name="레이어 4" xmlns="http://www.w3.org/2000/svg" viewBox="0 0 915.28 932.19">
  <defs>
    <style>
      .cls-1 {
        fill: #ffc849;
      }

      .cls-1, .cls-2 {
        stroke-width: 0px;
      }

      .cls-2 {
        fill: #fd521b;
      }
    </style>
  </defs>
  <g id="question_06">
    <path class="cls-2" d="m729.17,634.16c-13.08-17.11-15.77-37.04-36.67-33.25-19.93,3.61-32.39,18.09-28.6,41.07,3.29,19.98,14.58,23.59,34.84,23.59s42.73-15.32,30.43-31.41Zm-31.94,10.65c-6.66,0-10.37-1.19-11.45-7.76-1.25-7.55,2.85-12.31,9.4-13.5,6.87-1.25,7.76,5.3,12.05,10.93,4.04,5.29-3.35,10.33-10.01,10.33Z"/>
    <path class="cls-2" d="m555.66,490.88c-28.17-36.86-41.59-54.23-86.61-46.07-42.92,7.78-73.71,22.11-65.55,71.61,7.1,43.04,31.41,31.33,75.03,31.33s103.62-22.21,77.13-56.86Zm-87.14,22.9c-14.34,0-21.63,2.75-23.96-11.39-2.68-16.27,10.09-9.67,24.2-12.23,14.8-2.68,24.34-14.11,33.6-2,8.71,11.39-19.5,25.62-33.84,25.62Z"/>
    <path class="cls-2" d="m679.56,414.47c15.34,4.25,22.76,10.73,29.44-3.72,7.69-16.62-1.75-24.66-16.09-31.57-15.04-7.25-21.46-2.45-34.95,7.78-12.69,9.61,6.26,23.27,21.6,27.51Zm-2.58-23.28c4.44-3.36,6.68,1.59,11.62,3.97,4.71,2.27,9.85,1.2,7.32,6.66-2.2,4.75-4.49,3.07-9.54,1.68s-13.58-9.15-9.41-12.31Z"/>
    <path class="cls-2" d="m652.98,829.99c-5.65,11.65-10.29,15.92-21.71,15.92s-15.02-8.57-15.02-19.99,7.26-12.96,18.68-12.96,23.04,6.75,18.06,17.02Z"/>
    <path class="cls-2" d="m788.03,859.78c3.34,7.56,3.51,11.58-1.19,17.14-4.71,5.56-10.37,3.79-15.93-.92-5.56-4.71-3.32-8.88,1.39-14.44,4.71-5.56,12.79-8.44,15.74-1.78Z"/>
    <path class="cls-2" d="m668.29,216.46c-13.91-18.2-16.77-39.38-38.99-35.35-21.19,3.84-34.44,19.24-30.41,43.67,3.5,21.25,15.51,25.08,37.04,25.08s45.44-16.29,32.36-33.4Zm-33.96,11.33c-7.08,0-11.03-1.26-12.18-8.25-1.32-8.03,3.03-13.09,10-14.36,7.31-1.32,8.25,5.64,12.82,11.62,4.3,5.62-3.56,10.98-10.64,10.98Z"/>
    <path class="cls-2" d="m795.33,539.05c-2.85,5.88-5.2,8.04-10.97,8.04s-7.59-4.33-7.59-10.1,3.67-6.55,9.43-6.55,11.64,3.41,9.12,8.6Z"/>
    <path class="cls-2" d="m795.83,154.48c11.37-7.09,24.92-9.12,21.8-19.38-2.97-9.78-13.18-15.48-28.79-12.8-13.58,2.33-15.76,8.07-15.25,18.13.51,10.07,11.55,20.71,22.24,14.04Zm-8.09-15.51c-.17-3.31.55-5.2,5.01-5.96,5.13-.88,8.49.99,9.47,4.21,1.02,3.37-3.43,4.04-7.17,6.37-3.51,2.19-7.14-1.31-7.31-4.62Z"/>
  </g>
  <g id="question_07">
    <path class="cls-1" d="m204.43,624.76c.5,1.21,4.85,3.71,5,5,.85,7.27-2.39,9.19-6.68,14.83-8.74,11.46-21.66,19.13-35.14,24.21-13.28,5-27.84,7.75-41.71,4.75-5.23-1.13,5.46-13.14,1.54-16.78-3.25-3.01-23.18.45-21.4-4.26,1.81-4.78,9.8-6.3,14.05-7.31,12.56-2.98,24.94-6.83,36.7-12.15,8.52-3.86,16.68-8.46,25.25-12.2,4.12-1.8,8.34-3.45,12.69-4.6,3.4-.9,7.37-1.59,10.54.4,1.57.99-1.54,6.4-.82,8.12Z"/>
    <path class="cls-1" d="m136.04,889.61c-20.76-10.3-19.93,4.82-33.85-7.44-7.19-6.33-23.84-7.82-32.32-16.26-14.56-14.5-15.36-34.34-25.07-47.86-6.06-8.44-13.28-15.61,1.08-18.21,45.62-8.24,30.73,5.5,55.62,30.29,24.9,24.79,59.8,72.01,34.54,59.48Z"/>
    <path class="cls-1" d="m375.43,792.76c3.4,6.54,8.54,9.53,7.94,16.43-1.12,13.02-8.9,25.36-21.65,31.99-14.63,7.6-24.56-.96-36.29-10.42-3.92-3.16-14.34-.66-16.79-5.38-9.8-18.87,8.81-21.7,28.32-31.84,19.51-10.14,28.66-19.65,38.47-.78Z"/>
    <path class="cls-1" d="m304.67,549.8c-1.12,1.55-.6,9.18-1.24,10.96-3.63,10.04-2.51,15.28,1.72,24.71,8.61,19.19,24.41,34.38,41.88,46.09,17.2,11.53,41.69,22.84,62.4,23.2,7.81.13,7.21-6.13,14-10,5.62-3.2,17.48-8.57,16.52-15.86-.98-7.4-11.83-12.21-17.53-15.06-16.85-8.42-33.17-18.01-48.1-29.48-10.82-8.31-20.89-17.57-31.82-25.73-5.26-3.92-10.7-7.68-16.5-10.77-4.53-2.41-14.41-6.87-19.56-5.09-2.55.88-.17,4.83-1.76,7.04Z"/>
    <path class="cls-1" d="m198.89,461.9c-50.69,45.9-43.08,20.32-53.46,8.85-10.38-11.47-34.46-13.64,15.86-50.37,72.22-52.72,42.76-20.09,53.14-8.63s35.15,4.24-15.54,50.15Z"/>
    <path class="cls-1" d="m338.3,253.3c.27.97-1.37,4.68-1.38,5.68-.02,5.66-1.53,8.06-5.35,11.99-7.78,7.99-18.41,12.68-29.24,15.33-10.66,2.61-24.92,3.79-35.29.2-3.91-1.35-2.48-4.37-5.15-7.53-2.22-2.62-7.14-7.45-5.34-10.9s8.11-3.93,11.47-4.31c9.92-1.13,19.79-2.93,29.32-5.93,6.9-2.17,13.6-4.95,20.53-7.02,3.33-1,6.72-1.88,10.17-2.36,2.7-.38,8.42-.8,10.67,1.02,1.11.9-.8,2.44-.41,3.82Z"/>
    <path class="cls-1" d="m289.84,46.29c3.4,6.54,8.54,9.53,7.94,16.43-1.12,13.02-8.9,25.36-21.65,31.99-14.63,7.6-24.56-.96-36.29-10.42-3.92-3.16-14.34-.66-16.79-5.38-9.8-18.87,16.87-9.01,36.38-19.15,19.51-10.14,20.61-32.34,30.41-13.47Z"/>
  </g>
</svg>