<?xml version="1.0" encoding="UTF-8"?>
<svg xmlns="http://www.w3.org/2000/svg" viewBox="0 0 1920 4320">
  <defs>
    <style>
      .cls-1 {
        fill: #ea5225;
      }

      .cls-1, .cls-2, .cls-3, .cls-4, .cls-5, .cls-6 {
        stroke-width: 0px;
      }

      .cls-2 {
        fill: #040000;
      }

      .cls-3 {
        fill: #f5c24d;
      }

      .cls-4 {
        fill: #ce1a36;
      }

      .cls-5 {
        fill: #bf6654;
      }

      .cls-6 {
        fill: #eaeaea;
      }
    </style>
  </defs>
  <g id="_레이어_3" data-name="레이어 3">
    <path class="cls-6" d="m606.76,74.73h739.49c27.6,0,50,22.4,50,50v4082.69h-839.49V124.73c0-27.6,22.4-50,50-50Z"/>
    <path class="cls-4" d="m1211.4,3860.22c-.43-.17-.86-.35-1.29-.52-2.32-.91-4.28-2.32-5.86-4.25-1.43-1.74-2.55-3.66-3.46-5.71-.58-1.31-1.16-2.62-1.69-3.94-1.78-4.44-4.77-7.87-8.69-10.55-2.43-1.66-5.01-3.07-7.63-4.39-2.64-1.33-5.34-2.54-8.1-3.6-2.05-.78-4.13-1.53-6.22-2.2-2.23-.71-4.49-1.35-6.76-1.93-2.91-.76-5.86-1.32-8.83-1.81-5.23-.85-10.49-1.24-15.77-1.4-4.09-.13-8.18-.23-12.27-.4-1.91-.08-3.81-.27-5.71-.45-.37-.03-.75-.17-1.1-.33-.64-.31-.91-.94-.68-1.61.11-.33.29-.65.52-.91.31-.36.67-.69,1.05-.99,2.61-2.04,5.24-4.05,7.83-6.11,2.27-1.8,4.4-3.75,6.33-5.92,1.98-2.24,3.65-4.69,4.83-7.44.86-2,1.44-4.09,1.76-6.24.81-5.51.08-10.88-1.53-16.17-.86-2.82-2.02-5.52-3.31-8.17-1.01-2.06-2.01-4.14-2.94-6.23-.48-1.07-.81-2.2-1.19-3.31-.19-.57-.25-1.16-.07-1.75.21-.67.61-1.03,1.31-1.09.66-.06,1.28.14,1.86.42.42.2.82.45,1.2.71,3.23,2.2,6.25,4.67,9.24,7.18,3.29,2.76,6.55,5.53,9.88,8.24,3.02,2.45,6.22,4.66,9.65,6.51,2.32,1.26,4.71,2.34,7.22,3.19,2.02.68,4.07,1.2,6.17,1.5,3.98.58,7.92.32,11.77-.86,1.94-.59,3.85-1.24,5.78-1.86,2.14-.69,4.3-1.33,6.55-1.59,3.12-.35,6.09.12,8.84,1.68.66.38,1.3.84,1.86,1.36,1.91,1.77,2.68,3.99,2.43,6.57-.14,1.5-.58,2.93-1.14,4.32-.69,1.7-1.43,3.37-2.09,5.07-.84,2.14-1.47,4.35-1.99,6.59-1.36,5.88-1.66,11.81-.87,17.8.23,1.72.61,3.41,1.17,5.06,1.3,3.86,3.68,6.8,7.33,8.67,1.47.75,2.94,1.51,4.39,2.31,3,1.66,5.07,4.15,6.44,7.26.92,2.09,1.1,4.27.84,6.51-.03.28,0,.57,0,.86-.14.56-.28,1.12-.42,1.68-.12.21-.27.4-.35.62-.61,1.61-1.51,3.05-2.74,4.26-3.08,2.99-6.77,4.24-11.04,3.8-.48-.05-.95-.1-1.43-.16-.34-.09-.69-.17-1.03-.26Z"/>
    <path class="cls-4" d="m1174.8,4103.94c.69-1.2,1.48-2.32,2.55-3.21,1.99-1.67,4.24-2.11,6.72-1.39,1.3.38,2.46,1.05,3.54,1.86,1.77,1.33,3.26,2.92,4.54,4.72.93,1.31,1.69,2.71,2.03,4.31.26,1.2.22,2.38-.26,3.52-.39.92-1,1.69-1.74,2.35-1.1.98-2.38,1.66-3.73,2.21-2.38.96-4.85,1.57-7.4,1.83-1.18.12-2.35.05-3.48-.33-1.42-.48-2.52-1.38-3.37-2.6-1.01-1.45-1.42-3.1-1.48-4.84-.06-1.83.26-3.6.82-5.33.13-.4.26-.8.43-1.19.27-.64.56-1.27.84-1.9Z"/>
    <path class="cls-4" d="m1245.95,3792.37c-.43-.17-.86-.35-1.29-.52-2.32-.91-4.28-2.32-5.86-4.25-1.43-1.74-2.55-3.66-3.46-5.71-.58-1.31-1.16-2.62-1.69-3.94-1.78-4.44-4.77-7.87-8.69-10.55-2.43-1.66-5.01-3.07-7.63-4.39-2.64-1.33-5.34-2.54-8.1-3.6-2.05-.78-4.13-1.53-6.22-2.2-2.23-.71-4.49-1.35-6.76-1.93-2.91-.76-5.86-1.32-8.83-1.81-5.23-.85-10.49-1.24-15.77-1.4-4.09-.13-8.18-.23-12.27-.4-1.91-.08-3.81-.27-5.71-.45-.37-.03-.75-.17-1.1-.33-.64-.31-.91-.94-.68-1.61.11-.33.29-.65.52-.91.31-.36.67-.69,1.05-.99,2.61-2.04,5.24-4.05,7.83-6.11,2.27-1.8,4.4-3.75,6.33-5.92,1.98-2.24,3.65-4.69,4.83-7.44.86-2,1.44-4.09,1.76-6.24.81-5.51.08-10.88-1.53-16.17-.86-2.82-2.02-5.52-3.31-8.17-1.01-2.06-2.01-4.14-2.94-6.23-.48-1.07-.81-2.2-1.19-3.31-.19-.57-.25-1.16-.07-1.75.21-.67.61-1.03,1.31-1.09.66-.06,1.28.14,1.86.42.42.2.82.45,1.2.71,3.23,2.2,6.25,4.67,9.24,7.18,3.29,2.76,6.55,5.53,9.88,8.24,3.02,2.45,6.22,4.66,9.65,6.51,2.32,1.26,4.71,2.34,7.22,3.19,2.02.68,4.07,1.2,6.17,1.5,3.98.58,7.92.32,11.77-.86,1.94-.59,3.85-1.24,5.78-1.86,2.14-.69,4.3-1.33,6.55-1.59,3.12-.35,6.09.12,8.84,1.68.66.38,1.3.84,1.86,1.36,1.91,1.77,2.68,3.99,2.43,6.57-.14,1.5-.58,2.93-1.14,4.32-.69,1.7-1.43,3.37-2.09,5.07-.84,2.14-1.47,4.35-1.99,6.59-1.36,5.88-1.66,11.81-.87,17.8.23,1.72.61,3.41,1.17,5.06,1.3,3.86,3.68,6.8,7.33,8.67,1.47.75,2.94,1.51,4.39,2.31,3,1.66,5.07,4.15,6.44,7.26.92,2.09,1.1,4.27.84,6.51-.03.28,0,.57,0,.86-.14.56-.28,1.12-.42,1.68-.12.21-.27.4-.35.62-.61,1.61-1.51,3.05-2.74,4.26-3.08,2.99-6.77,4.24-11.04,3.8-.48-.05-.95-.1-1.43-.16-.34-.09-.69-.17-1.03-.26Z"/>
    <path class="cls-4" d="m1012.26,3917.66c-1.38.15-2.75.16-4.1-.18-2.52-.63-4.19-2.2-5.06-4.63-.46-1.28-.59-2.61-.57-3.96.04-2.21.46-4.35,1.16-6.44.52-1.52,1.21-2.96,2.3-4.17.82-.91,1.8-1.57,3-1.85.98-.23,1.95-.18,2.93.03,1.44.32,2.74.95,3.98,1.73,2.17,1.37,4.11,3.01,5.82,4.93.79.88,1.42,1.87,1.77,3.02.45,1.43.36,2.86-.13,4.26-.58,1.67-1.68,2.96-3.06,4.03-1.45,1.12-3.07,1.89-4.8,2.46-.4.13-.81.26-1.22.35-.67.16-1.36.29-2.03.43Z"/>
    <path class="cls-4" d="m955.32,3551.31c.28-.37.56-.74.83-1.12,1.47-2.01,3.34-3.54,5.61-4.58,2.05-.93,4.19-1.53,6.41-1.89,1.41-.23,2.82-.45,4.24-.63,4.75-.59,8.83-2.6,12.42-5.71,2.23-1.93,4.25-4.06,6.19-6.26,1.96-2.22,3.82-4.51,5.54-6.91,1.28-1.79,2.53-3.6,3.71-5.46,1.26-1.98,2.45-4,3.6-6.05,1.47-2.62,2.77-5.33,4-8.07,2.16-4.84,3.87-9.83,5.38-14.89,1.17-3.92,2.31-7.85,3.52-11.76.56-1.82,1.24-3.62,1.89-5.41.13-.35.36-.69.6-.98.46-.54,1.14-.64,1.73-.25.29.19.55.45.75.73.27.39.5.83.69,1.27,1.31,3.04,2.58,6.1,3.91,9.13,1.16,2.65,2.5,5.21,4.11,7.63,1.66,2.49,3.6,4.72,5.97,6.57,1.72,1.34,3.58,2.44,5.59,3.3,5.12,2.19,10.5,2.86,16.02,2.65,2.95-.11,5.85-.54,8.74-1.11,2.25-.45,4.51-.88,6.78-1.25,1.15-.19,2.33-.22,3.5-.3.6-.04,1.18.05,1.71.38.59.37.84.85.72,1.54-.11.65-.46,1.2-.88,1.69-.3.35-.64.68-.99.98-2.95,2.56-6.11,4.85-9.3,7.1-3.5,2.47-7.02,4.93-10.48,7.45-3.14,2.29-6.09,4.83-8.76,7.67-1.81,1.92-3.47,3.96-4.92,6.17-1.17,1.78-2.2,3.63-3.03,5.59-1.57,3.71-2.33,7.57-2.17,11.6.08,2.02.22,4.04.33,6.06.12,2.25.19,4.5-.14,6.73-.46,3.1-1.67,5.86-3.88,8.12-.53.55-1.15,1.04-1.79,1.45-2.2,1.4-4.54,1.57-6.97.67-1.41-.52-2.68-1.31-3.88-2.21-1.47-1.1-2.9-2.24-4.37-3.32-1.86-1.36-3.83-2.53-5.87-3.61-5.34-2.81-11-4.62-16.99-5.39-1.72-.22-3.46-.28-5.19-.16-4.06.27-7.52,1.82-10.25,4.88-1.1,1.23-2.21,2.46-3.35,3.66-2.37,2.48-5.3,3.84-8.66,4.37-2.26.36-4.41-.02-6.51-.85-.26-.1-.55-.15-.83-.23-.51-.28-1.01-.56-1.52-.84-.17-.17-.32-.36-.51-.5-1.41-1-2.57-2.24-3.42-3.74-2.11-3.74-2.37-7.63-.86-11.64.17-.45.34-.9.52-1.34.17-.31.34-.62.51-.93Z"/>
    <path class="cls-4" d="m820.11,3734.53c.96,1,1.8,2.08,2.36,3.36,1.03,2.38.82,4.66-.58,6.83-.74,1.14-1.71,2.06-2.79,2.87-1.78,1.31-3.73,2.29-5.81,3-1.52.52-3.08.85-4.71.72-1.22-.09-2.34-.47-3.3-1.25-.78-.63-1.34-1.44-1.76-2.34-.63-1.33-.92-2.75-1.06-4.21-.24-2.56-.12-5.1.35-7.62.22-1.16.62-2.27,1.31-3.25.86-1.23,2.05-2.02,3.46-2.49,1.68-.56,3.37-.48,5.06-.04,1.77.46,3.37,1.28,4.88,2.3.35.24.7.48,1.02.75.54.44,1.05.9,1.58,1.35Z"/>
    <path class="cls-4" d="m827.2,3239.87c.18.43.36.85.55,1.28,1.01,2.28,1.41,4.66,1.17,7.14-.21,2.24-.76,4.4-1.56,6.5-.51,1.34-1.02,2.67-1.57,3.99-1.86,4.41-2.15,8.95-1.24,13.62.56,2.89,1.4,5.7,2.34,8.49.95,2.8,2,5.56,3.22,8.25.91,2,1.86,3.99,2.88,5.94,1.09,2.08,2.25,4.12,3.45,6.13,1.54,2.58,3.23,5.06,5,7.49,3.12,4.28,6.58,8.26,10.22,12.09,2.82,2.97,5.65,5.92,8.44,8.92,1.3,1.4,2.52,2.87,3.75,4.34.24.29.42.65.54,1.01.24.67-.01,1.31-.65,1.63-.31.15-.66.26-1.01.28-.48.04-.96.02-1.44-.04-3.29-.38-6.57-.8-9.86-1.16-2.88-.31-5.77-.43-8.66-.24-2.98.2-5.89.76-8.67,1.89-2.02.82-3.9,1.89-5.64,3.2-4.46,3.35-7.71,7.68-10.29,12.57-1.37,2.61-2.45,5.34-3.39,8.13-.74,2.18-1.48,4.35-2.3,6.5-.41,1.09-.97,2.13-1.48,3.19-.26.54-.64,1-1.19,1.29-.62.33-1.16.3-1.69-.15-.51-.42-.81-1-1.03-1.6-.16-.44-.27-.89-.36-1.35-.75-3.84-1.16-7.72-1.52-11.6-.4-4.27-.77-8.54-1.23-12.8-.42-3.87-1.15-7.69-2.28-11.42-.76-2.52-1.7-4.98-2.89-7.34-.95-1.9-2.05-3.71-3.33-5.41-2.43-3.21-5.4-5.79-8.97-7.67-1.79-.94-3.61-1.83-5.42-2.74-2.01-1.01-3.99-2.08-5.77-3.48-2.46-1.94-4.25-4.37-5.1-7.41-.21-.74-.33-1.51-.36-2.28-.11-2.6.91-4.72,2.9-6.38,1.16-.96,2.47-1.67,3.85-2.27,1.68-.72,3.39-1.39,5.06-2.13,2.1-.93,4.11-2.06,6.05-3.28,5.1-3.23,9.49-7.23,13.14-12.04,1.05-1.38,1.97-2.86,2.73-4.42,1.79-3.66,2.17-7.42.89-11.32-.52-1.57-1.03-3.14-1.5-4.73-.97-3.29-.68-6.51.53-9.68.81-2.13,2.22-3.81,3.98-5.22.22-.18.41-.4.61-.6.49-.3.99-.6,1.48-.9.23-.06.47-.1.69-.2,1.57-.72,3.22-1.11,4.94-1.1,4.29.04,7.79,1.75,10.52,5.07.3.37.61.74.91,1.12.18.3.37.6.55.91Z"/>
    <path class="cls-4" d="m1080.36,3224.26c1.38-.18,2.74-.21,4.1.1,2.53.58,4.23,2.11,5.15,4.53.48,1.27.64,2.6.64,3.95,0,2.21-.37,4.36-1.04,6.46-.49,1.53-1.15,2.98-2.22,4.22-.8.93-1.77,1.61-2.96,1.91-.97.25-1.95.22-2.93.03-1.44-.29-2.76-.9-4.01-1.65-2.2-1.32-4.17-2.93-5.92-4.81-.81-.87-1.45-1.85-1.83-2.98-.48-1.42-.41-2.85.05-4.26.55-1.68,1.62-3,2.98-4.09,1.42-1.15,3.03-1.95,4.75-2.55.4-.14.8-.27,1.21-.38.67-.17,1.35-.31,2.02-.47Z"/>
    <path class="cls-4" d="m987.48,2976.05c.28-.37.57-.74.84-1.11,1.49-2,3.36-3.52,5.64-4.54,2.05-.92,4.2-1.5,6.42-1.84,1.41-.21,2.83-.43,4.25-.6,4.75-.55,8.85-2.54,12.46-5.62,2.24-1.91,4.28-4.03,6.24-6.21,1.97-2.2,3.85-4.48,5.6-6.87,1.3-1.78,2.56-3.58,3.75-5.43,1.27-1.97,2.48-3.98,3.64-6.02,1.49-2.61,2.81-5.31,4.06-8.04,2.19-4.82,3.95-9.8,5.49-14.85,1.2-3.91,2.37-7.84,3.61-11.74.58-1.82,1.26-3.61,1.93-5.4.13-.35.36-.68.61-.97.47-.54,1.14-.63,1.74-.23.29.19.55.45.74.74.27.4.49.83.68,1.27,1.29,3.05,2.54,6.12,3.84,9.16,1.14,2.66,2.46,5.23,4.05,7.66,1.64,2.5,3.56,4.75,5.92,6.61,1.71,1.35,3.56,2.47,5.56,3.34,5.11,2.23,10.48,2.94,16,2.77,2.95-.09,5.86-.5,8.75-1.05,2.26-.43,4.52-.85,6.79-1.2,1.15-.18,2.33-.2,3.5-.28.6-.04,1.18.06,1.71.4.59.37.83.86.7,1.55-.12.65-.47,1.2-.89,1.69-.3.35-.64.67-1,.97-2.97,2.54-6.15,4.81-9.35,7.03-3.52,2.45-7.06,4.87-10.54,7.37-3.16,2.27-6.13,4.78-8.82,7.6-1.82,1.91-3.5,3.93-4.97,6.13-1.18,1.77-2.22,3.61-3.07,5.56-1.6,3.69-2.38,7.55-2.26,11.58.06,2.02.18,4.04.28,6.07.11,2.25.16,4.5-.19,6.73-.48,3.1-1.71,5.85-3.94,8.09-.54.54-1.16,1.03-1.8,1.43-2.21,1.38-4.55,1.53-6.98.62-1.41-.53-2.67-1.33-3.87-2.24-1.46-1.11-2.88-2.26-4.35-3.35-1.85-1.37-3.81-2.56-5.84-3.65-5.32-2.85-10.96-4.7-16.95-5.52-1.72-.23-3.45-.3-5.19-.2-4.07.24-7.53,1.76-10.29,4.8-1.11,1.22-2.23,2.45-3.38,3.63-2.38,2.46-5.33,3.8-8.69,4.31-2.26.34-4.41-.05-6.5-.9-.26-.11-.55-.16-.82-.23-.5-.28-1.01-.57-1.51-.85-.17-.17-.32-.36-.51-.5-1.4-1.01-2.55-2.26-3.39-3.76-2.08-3.76-2.31-7.65-.77-11.65.17-.45.35-.89.53-1.34.17-.31.35-.62.52-.93Z"/>
    <path class="cls-4" d="m998.46,3065.6c-.17.43-.33.87-.49,1.3-.86,2.34-2.23,4.32-4.13,5.94-1.71,1.46-3.61,2.63-5.64,3.58-1.3.6-2.59,1.21-3.91,1.77-4.4,1.87-7.77,4.93-10.37,8.91-1.61,2.47-2.97,5.07-4.23,7.72-1.27,2.67-2.43,5.39-3.43,8.17-.74,2.07-1.45,4.16-2.07,6.27-.66,2.25-1.25,4.52-1.79,6.8-.7,2.92-1.2,5.89-1.62,8.86-.74,5.24-1.02,10.51-1.08,15.8-.04,4.09-.07,8.19-.15,12.28-.04,1.91-.19,3.82-.33,5.72-.03.37-.15.76-.31,1.1-.3.65-.92.93-1.6.71-.33-.1-.66-.28-.92-.5-.37-.3-.7-.66-1.01-1.03-2.1-2.56-4.16-5.15-6.27-7.7-1.85-2.23-3.84-4.33-6.05-6.2-2.28-1.94-4.76-3.55-7.54-4.67-2.02-.82-4.11-1.36-6.28-1.63-5.53-.7-10.88.14-16.13,1.86-2.8.92-5.48,2.13-8.1,3.47-2.04,1.05-4.09,2.09-6.17,3.07-1.06.5-2.18.85-3.28,1.25-.57.21-1.15.27-1.75.1-.67-.19-1.04-.59-1.11-1.28-.07-.66.11-1.28.38-1.87.19-.42.43-.83.68-1.22,2.13-3.27,4.54-6.34,6.99-9.39,2.69-3.34,5.4-6.67,8.03-10.05,2.39-3.07,4.53-6.31,6.31-9.78,1.21-2.35,2.25-4.76,3.04-7.28.64-2.03,1.11-4.09,1.37-6.2.49-4,.16-7.92-1.1-11.75-.63-1.92-1.32-3.83-1.98-5.74-.74-2.13-1.42-4.27-1.72-6.51-.41-3.11,0-6.09,1.5-8.87.36-.67.82-1.31,1.33-1.88,1.73-1.95,3.94-2.76,6.52-2.56,1.5.11,2.94.52,4.34,1.05,1.71.65,3.4,1.36,5.12,1.99,2.16.8,4.38,1.38,6.63,1.85,5.91,1.23,11.85,1.42,17.81.51,1.72-.26,3.4-.68,5.04-1.27,3.83-1.38,6.73-3.81,8.52-7.51.72-1.49,1.45-2.97,2.22-4.44,1.59-3.03,4.04-5.15,7.12-6.59,2.07-.97,4.25-1.19,6.49-.97.28.03.57,0,.86,0,.56.13,1.13.26,1.69.39.21.11.41.26.63.34,1.63.58,3.08,1.44,4.31,2.65,3.06,3.02,4.38,6.68,4.02,10.96-.04.48-.08.96-.13,1.43-.08.34-.16.69-.24,1.03Z"/>
    <path class="cls-4" d="m1145.5,2601.25c-1.36-.26-2.67-.65-3.87-1.37-2.22-1.34-3.37-3.32-3.49-5.91-.06-1.36.19-2.67.61-3.95.68-2.1,1.71-4.03,2.99-5.82.94-1.31,2.02-2.48,3.42-3.32,1.05-.63,2.18-.98,3.41-.9,1,.07,1.92.39,2.79.88,1.28.72,2.34,1.71,3.3,2.81,1.68,1.94,3.05,4.08,4.13,6.41.5,1.08.81,2.21.82,3.4,0,1.5-.49,2.84-1.37,4.04-1.05,1.43-2.47,2.35-4.1,2.97-1.71.65-3.49.92-5.31.95-.42,0-.85.01-1.27-.02-.69-.05-1.38-.12-2.07-.18Z"/>
    <path class="cls-4" d="m955.95,2818.75c-.36-.3-.71-.6-1.07-.89-1.94-1.57-3.37-3.51-4.29-5.83-.83-2.09-1.32-4.26-1.56-6.5-.15-1.42-.31-2.84-.41-4.27-.35-4.77-2.15-8.95-5.08-12.69-1.81-2.32-3.84-4.45-5.94-6.5-2.11-2.07-4.31-4.04-6.62-5.89-1.72-1.37-3.47-2.71-5.26-3.98-1.91-1.35-3.87-2.65-5.86-3.9-2.54-1.6-5.18-3.04-7.86-4.4-4.72-2.4-9.62-4.37-14.6-6.13-3.86-1.36-7.73-2.71-11.57-4.11-1.79-.65-3.55-1.42-5.31-2.16-.35-.15-.67-.39-.94-.65-.52-.49-.58-1.17-.16-1.74.2-.28.48-.53.77-.71.41-.25.85-.45,1.3-.62,3.1-1.15,6.22-2.27,9.31-3.44,2.71-1.03,5.33-2.23,7.83-3.72,2.57-1.53,4.9-3.36,6.86-5.63,1.43-1.65,2.62-3.45,3.58-5.41,2.45-5.01,3.38-10.34,3.45-15.87.04-2.95-.24-5.87-.67-8.79-.33-2.27-.65-4.55-.91-6.83-.13-1.16-.1-2.34-.13-3.51-.01-.6.11-1.18.47-1.69.4-.57.89-.79,1.57-.64.65.15,1.18.52,1.65.96.34.32.64.67.93,1.04,2.41,3.08,4.54,6.35,6.62,9.65,2.29,3.62,4.56,7.26,6.91,10.85,2.13,3.26,4.51,6.33,7.21,9.14,1.83,1.9,3.78,3.66,5.91,5.23,1.71,1.26,3.51,2.38,5.43,3.31,3.62,1.76,7.45,2.71,11.48,2.76,2.02.03,4.05-.01,6.07-.02,2.25-.01,4.5.03,6.72.48,3.07.61,5.77,1.96,7.91,4.29.52.56.98,1.2,1.36,1.86,1.28,2.27,1.34,4.62.32,7-.59,1.38-1.44,2.61-2.4,3.77-1.17,1.41-2.38,2.78-3.54,4.2-1.45,1.79-2.73,3.7-3.9,5.68-3.08,5.19-5.17,10.75-6.24,16.69-.31,1.71-.45,3.44-.43,5.18.07,4.07,1.44,7.6,4.35,10.49,1.17,1.16,2.35,2.33,3.48,3.53,2.35,2.49,3.57,5.49,3.93,8.87.24,2.27-.24,4.4-1.18,6.46-.12.26-.18.54-.27.81-.3.49-.61.98-.91,1.48-.18.16-.38.3-.52.49-1.07,1.35-2.36,2.45-3.91,3.22-3.84,1.92-7.74,1.98-11.67.26-.44-.19-.88-.39-1.32-.58-.3-.19-.6-.37-.9-.56Z"/>
    <path class="cls-4" d="m1068.92,2585.39c-.21-.41-.42-.83-.63-1.24-1.15-2.21-1.7-4.56-1.62-7.06.07-2.25.48-4.44,1.15-6.58.42-1.37.85-2.73,1.32-4.08,1.58-4.52,1.58-9.07.38-13.67-.74-2.85-1.76-5.6-2.87-8.33-1.12-2.74-2.35-5.42-3.74-8.03-1.03-1.94-2.1-3.87-3.25-5.75-1.22-2-2.5-3.97-3.83-5.9-1.7-2.48-3.55-4.85-5.47-7.16-3.38-4.08-7.09-7.83-10.97-11.42-3-2.79-6.01-5.56-8.99-8.37-1.39-1.31-2.69-2.71-4.01-4.09-.26-.27-.46-.62-.61-.97-.28-.66-.07-1.31.55-1.66.3-.17.65-.3.99-.35.47-.07.96-.08,1.44-.05,3.31.17,6.61.39,9.92.54,2.89.13,5.78.07,8.66-.31,2.97-.39,5.83-1.13,8.53-2.44,1.96-.95,3.77-2.13,5.43-3.55,4.24-3.62,7.21-8.15,9.47-13.19,1.21-2.69,2.11-5.49,2.87-8.33.6-2.22,1.21-4.43,1.88-6.63.34-1.12.84-2.19,1.28-3.27.23-.56.57-1.03,1.1-1.36.59-.37,1.13-.37,1.7.04.53.39.87.94,1.13,1.54.18.42.32.87.44,1.32.99,3.78,1.64,7.63,2.25,11.48.67,4.24,1.3,8.48,2.03,12.7.66,3.83,1.63,7.6,2.99,11.25.92,2.47,2.01,4.86,3.34,7.14,1.07,1.84,2.28,3.58,3.67,5.19,2.62,3.05,5.76,5.44,9.44,7.09,1.85.83,3.72,1.6,5.58,2.39,2.07.88,4.12,1.82,5.97,3.11,2.58,1.79,4.51,4.09,5.56,7.08.25.72.42,1.49.5,2.25.28,2.59-.61,4.77-2.49,6.55-1.09,1.04-2.36,1.83-3.7,2.5-1.63.83-3.29,1.6-4.91,2.45-2.04,1.06-3.97,2.31-5.83,3.66-4.89,3.54-9.02,7.81-12.36,12.84-.96,1.45-1.78,2.97-2.45,4.58-1.56,3.76-1.7,7.54-.17,11.35.62,1.53,1.23,3.07,1.79,4.62,1.17,3.22,1.09,6.46.08,9.7-.68,2.18-1.97,3.94-3.65,5.46-.21.19-.38.43-.57.64-.48.33-.95.66-1.43.99-.22.08-.47.13-.67.24-1.52.81-3.14,1.31-4.86,1.41-4.29.23-7.89-1.26-10.82-4.39-.33-.35-.65-.71-.98-1.06-.2-.29-.4-.58-.61-.87Z"/>
    <path class="cls-4" d="m847.33,2583.35c1.34.36,2.62.84,3.76,1.64,2.12,1.5,3.12,3.56,3.05,6.14-.04,1.36-.39,2.65-.9,3.9-.83,2.05-1.99,3.9-3.41,5.59-1.03,1.24-2.19,2.33-3.65,3.07-1.09.56-2.24.82-3.47.65-.99-.14-1.89-.53-2.72-1.08-1.23-.81-2.22-1.87-3.09-3.04-1.54-2.06-2.75-4.29-3.66-6.69-.42-1.11-.65-2.26-.57-3.45.1-1.5.7-2.79,1.66-3.93,1.15-1.35,2.63-2.16,4.3-2.66,1.75-.52,3.55-.66,5.37-.57.42.02.84.05,1.26.11.69.1,1.37.22,2.05.33Z"/>
    <path class="cls-4" d="m937.6,2431.3c-1-.96-1.89-2-2.51-3.25-1.14-2.33-1.03-4.62.27-6.85.68-1.17,1.61-2.14,2.66-2.99,1.71-1.39,3.62-2.46,5.67-3.27,1.5-.59,3.04-.99,4.67-.94,1.22.04,2.36.36,3.35,1.09.8.6,1.4,1.37,1.87,2.25.69,1.3,1.04,2.71,1.25,4.15.36,2.54.35,5.09,0,7.63-.16,1.17-.51,2.29-1.16,3.3-.81,1.27-1.95,2.12-3.34,2.65-1.65.64-3.35.63-5.05.27-1.79-.38-3.43-1.12-4.98-2.08-.36-.22-.72-.45-1.05-.7-.56-.41-1.09-.85-1.64-1.28Z"/>
    <path class="cls-4" d="m1087.22,2309.1c.42-.2.84-.4,1.26-.6,2.24-1.1,4.6-1.59,7.09-1.46,2.25.12,4.43.58,6.55,1.3,1.36.45,2.71.91,4.05,1.41,4.48,1.68,9.03,1.78,13.65.69,2.87-.68,5.64-1.63,8.39-2.68,2.76-1.06,5.47-2.23,8.11-3.56,1.96-.99,3.91-2.02,5.82-3.12,2.03-1.17,4.02-2.41,5.99-3.69,2.52-1.64,4.93-3.44,7.28-5.3,4.15-3.29,7.98-6.91,11.67-10.71,2.85-2.94,5.69-5.89,8.57-8.79,1.34-1.36,2.77-2.63,4.18-3.92.28-.25.63-.44.99-.59.66-.27,1.31-.04,1.65.59.17.3.28.65.33.99.06.47.06.96.02,1.44-.25,3.3-.54,6.6-.76,9.9-.2,2.89-.2,5.78.11,8.66.32,2.97,1,5.85,2.24,8.58.9,1.98,2.04,3.82,3.42,5.51,3.52,4.32,7.98,7.4,12.97,9.77,2.66,1.27,5.44,2.23,8.26,3.06,2.2.65,4.41,1.31,6.59,2.03,1.11.37,2.17.89,3.24,1.35.55.24,1.02.6,1.34,1.13.35.6.35,1.14-.08,1.7-.4.53-.96.85-1.56,1.09-.43.17-.88.3-1.33.41-3.8.9-7.66,1.47-11.53,1.99-4.25.57-8.5,1.11-12.74,1.75-3.85.58-7.63,1.46-11.32,2.74-2.49.87-4.91,1.9-7.22,3.18-1.86,1.03-3.63,2.2-5.27,3.55-3.11,2.55-5.57,5.63-7.3,9.27-.87,1.83-1.68,3.68-2.52,5.52-.93,2.05-1.91,4.07-3.24,5.9-1.84,2.54-4.19,4.42-7.2,5.4-.73.24-1.5.39-2.26.45-2.6.22-4.75-.71-6.49-2.64-1.01-1.12-1.77-2.4-2.42-3.75-.79-1.65-1.53-3.33-2.34-4.97-1.02-2.06-2.22-4.02-3.53-5.91-3.43-4.97-7.61-9.19-12.56-12.64-1.43-.99-2.93-1.85-4.53-2.55-3.73-1.64-7.5-1.87-11.35-.43-1.55.58-3.1,1.16-4.66,1.69-3.24,1.1-6.48.95-9.7-.14-2.17-.73-3.9-2.06-5.38-3.77-.19-.21-.42-.39-.63-.58-.32-.48-.64-.96-.96-1.45-.07-.23-.12-.47-.22-.68-.78-1.54-1.24-3.17-1.29-4.89-.14-4.29,1.44-7.86,4.64-10.71.36-.32.72-.63,1.08-.95.29-.2.59-.39.88-.59Z"/>
    <path class="cls-4" d="m732.65,2392.46c-.41-1.32-.68-2.67-.61-4.06.14-2.59,1.35-4.54,3.57-5.85,1.17-.69,2.45-1.08,3.78-1.32,2.18-.38,4.36-.39,6.54-.09,1.6.22,3.14.62,4.54,1.45,1.05.63,1.89,1.46,2.39,2.59.41.91.55,1.88.53,2.88-.04,1.47-.41,2.87-.93,4.24-.92,2.39-2.17,4.61-3.72,6.66-.72.94-1.57,1.75-2.62,2.32-1.32.71-2.73.9-4.21.69-1.75-.25-3.23-1.08-4.54-2.23-1.38-1.2-2.45-2.65-3.34-4.24-.21-.37-.41-.74-.58-1.13-.28-.63-.54-1.28-.81-1.91Z"/>
    <path class="cls-4" d="m903.8,2168.04c-.42.19-.85.38-1.27.58-2.26,1.07-4.62,1.52-7.11,1.34-2.24-.16-4.42-.66-6.53-1.41-1.35-.48-2.7-.95-4.03-1.48-4.45-1.75-9-1.94-13.64-.92-2.88.63-5.67,1.53-8.43,2.54-2.78,1.01-5.51,2.14-8.17,3.42-1.98.96-3.95,1.95-5.87,3.02-2.05,1.14-4.06,2.34-6.05,3.59-2.55,1.6-4.98,3.35-7.37,5.18-4.21,3.22-8.1,6.78-11.85,10.51-2.9,2.89-5.79,5.79-8.72,8.65-1.37,1.33-2.81,2.58-4.25,3.85-.28.25-.64.43-1,.57-.67.26-1.31.02-1.64-.61-.16-.3-.27-.66-.31-1-.05-.48-.04-.96,0-1.44.3-3.3.65-6.59.93-9.89.25-2.88.3-5.78.04-8.66-.27-2.98-.9-5.87-2.1-8.62-.87-2-1.98-3.85-3.33-5.57-3.45-4.38-7.86-7.53-12.81-9.99-2.64-1.31-5.4-2.32-8.21-3.2-2.19-.69-4.38-1.38-6.55-2.14-1.1-.39-2.15-.92-3.22-1.41-.55-.25-1.01-.61-1.32-1.15-.34-.61-.33-1.15.11-1.7.41-.52.98-.83,1.58-1.07.43-.17.89-.29,1.34-.39,3.82-.84,7.69-1.34,11.56-1.79,4.26-.5,8.52-.97,12.77-1.53,3.86-.51,7.66-1.33,11.36-2.54,2.51-.82,4.94-1.82,7.27-3.06,1.88-1,3.66-2.14,5.33-3.46,3.15-2.5,5.67-5.54,7.46-9.15.9-1.81,1.74-3.65,2.61-5.48.97-2.03,1.98-4.04,3.34-5.85,1.89-2.5,4.27-4.35,7.29-5.28.73-.22,1.5-.36,2.27-.41,2.6-.17,4.74.79,6.44,2.74.99,1.13,1.73,2.43,2.36,3.79.76,1.66,1.47,3.35,2.25,5.01.98,2.08,2.15,4.06,3.43,5.97,3.35,5.02,7.45,9.32,12.34,12.85,1.41,1.02,2.9,1.9,4.48,2.63,3.7,1.7,7.47,2,11.34.62,1.56-.55,3.12-1.11,4.69-1.61,3.26-1.04,6.49-.84,9.69.3,2.15.76,3.86,2.13,5.31,3.86.18.22.41.4.62.59.31.49.62.98.93,1.46.07.23.11.47.21.68.75,1.55,1.19,3.19,1.21,4.92.06,4.29-1.57,7.83-4.82,10.63-.36.31-.73.62-1.1.93-.3.19-.6.38-.89.57Z"/>
    <path class="cls-4" d="m1037.02,1483.72c-.91-1.05-1.69-2.17-2.18-3.47-.91-2.43-.58-4.7.93-6.79.79-1.1,1.81-1.97,2.93-2.72,1.84-1.22,3.84-2.1,5.96-2.71,1.55-.44,3.12-.69,4.74-.49,1.22.15,2.31.58,3.23,1.41.74.67,1.26,1.5,1.64,2.42.56,1.36.78,2.79.84,4.25.11,2.56-.14,5.1-.74,7.59-.28,1.15-.73,2.23-1.47,3.18-.92,1.18-2.14,1.92-3.58,2.32-1.71.47-3.39.31-5.06-.22-1.74-.55-3.31-1.45-4.76-2.55-.34-.26-.67-.52-.98-.8-.51-.47-1.01-.95-1.51-1.43Z"/>
    <path class="cls-4" d="m871.56,2030.37c.01-.46.03-.93.04-1.39.04-2.49.69-4.82,1.95-6.97,1.14-1.94,2.54-3.67,4.15-5.23,1.03-1,2.05-2,3.11-2.96,3.54-3.21,5.72-7.21,6.87-11.82.71-2.86,1.14-5.76,1.46-8.68.32-2.94.53-5.89.55-8.84.02-2.2,0-4.4-.11-6.6-.11-2.34-.3-4.68-.54-7.01-.3-2.99-.8-5.95-1.38-8.9-1.02-5.19-2.49-10.26-4.17-15.28-1.3-3.88-2.63-7.75-3.89-11.65-.59-1.82-1.07-3.67-1.57-5.51-.1-.36-.1-.77-.07-1.14.07-.71.56-1.18,1.28-1.2.34,0,.71.05,1.03.17.45.17.88.39,1.29.64,2.82,1.73,5.62,3.5,8.45,5.21,2.48,1.5,5.05,2.82,7.75,3.87,2.79,1.08,5.66,1.79,8.66,1.94,2.18.11,4.33-.07,6.47-.52,5.45-1.15,10.23-3.71,14.63-7.06,2.34-1.79,4.47-3.81,6.51-5.94,1.59-1.66,3.18-3.32,4.82-4.92.84-.82,1.78-1.52,2.69-2.26.47-.38,1-.64,1.62-.67.7-.04,1.17.21,1.47.85.28.6.31,1.25.26,1.89-.04.46-.13.92-.24,1.37-.94,3.79-2.2,7.48-3.52,11.16-1.44,4.04-2.91,8.07-4.28,12.13-1.25,3.68-2.2,7.45-2.75,11.31-.37,2.61-.56,5.23-.48,7.87.06,2.13.29,4.23.74,6.31.85,3.94,2.46,7.53,4.9,10.74,1.23,1.61,2.5,3.18,3.76,4.77,1.4,1.77,2.75,3.57,3.76,5.59,1.41,2.8,2.01,5.75,1.5,8.87-.12.75-.34,1.51-.63,2.22-.99,2.41-2.81,3.9-5.31,4.56-1.46.39-2.95.48-4.45.43-1.83-.05-3.66-.16-5.49-.2-2.3-.04-4.59.13-6.87.43-5.99.77-11.65,2.55-16.99,5.37-1.54.81-2.99,1.76-4.34,2.86-3.17,2.56-5.1,5.81-5.58,9.89-.19,1.64-.39,3.28-.64,4.92-.51,3.39-2.13,6.19-4.56,8.56-1.64,1.59-3.62,2.52-5.81,3.05-.28.07-.54.19-.81.29-.58.06-1.15.13-1.73.19-.23-.04-.47-.11-.7-.11-1.73-.01-3.39-.35-4.94-1.09-3.88-1.84-6.33-4.88-7.4-9.03-.12-.46-.23-.93-.35-1.4-.04-.35-.08-.7-.12-1.05Z"/>
    <path class="cls-4" d="m792.74,1858.55c.19.42.39.84.59,1.26,1.07,2.25,1.53,4.62,1.37,7.11-.15,2.25-.64,4.42-1.38,6.54-.47,1.35-.94,2.7-1.46,4.03-1.74,4.46-1.9,9.01-.87,13.64.64,2.88,1.55,5.66,2.57,8.42,1.02,2.77,2.16,5.5,3.45,8.16.96,1.98,1.97,3.94,3.04,5.86,1.15,2.04,2.36,4.05,3.61,6.04,1.61,2.54,3.37,4.97,5.21,7.35,3.23,4.19,6.81,8.07,10.55,11.81,2.9,2.89,5.81,5.77,8.68,8.69,1.34,1.36,2.6,2.8,3.87,4.23.25.28.43.64.57.99.26.67.02,1.31-.61,1.64-.3.16-.66.28-1,.31-.48.05-.96.04-1.44,0-3.3-.29-6.59-.62-9.89-.89-2.89-.23-5.78-.27-8.66,0-2.98.28-5.86.93-8.61,2.13-2,.88-3.85,1.99-5.55,3.35-4.36,3.47-7.5,7.89-9.94,12.85-1.3,2.65-2.3,5.41-3.17,8.22-.68,2.2-1.36,4.39-2.12,6.56-.38,1.1-.91,2.16-1.4,3.23-.25.55-.61,1.01-1.15,1.32-.61.35-1.15.33-1.7-.1-.52-.41-.84-.97-1.07-1.58-.17-.43-.29-.88-.39-1.34-.85-3.81-1.37-7.68-1.84-11.56-.51-4.26-1-8.52-1.58-12.77-.53-3.86-1.36-7.65-2.59-11.35-.83-2.5-1.84-4.93-3.09-7.26-1.01-1.87-2.15-3.66-3.48-5.32-2.51-3.14-5.56-5.64-9.18-7.42-1.82-.89-3.66-1.73-5.49-2.59-2.04-.96-4.05-1.96-5.86-3.32-2.51-1.88-4.36-4.25-5.3-7.27-.23-.73-.37-1.5-.42-2.27-.18-2.6.78-4.74,2.72-6.45,1.13-1,2.43-1.74,3.79-2.37,1.66-.77,3.35-1.49,5-2.27,2.08-.99,4.05-2.17,5.96-3.45,5.01-3.37,9.29-7.49,12.81-12.39,1.01-1.41,1.89-2.91,2.61-4.49,1.69-3.71,1.97-7.48.58-11.34-.56-1.56-1.12-3.11-1.63-4.69-1.06-3.26-.86-6.49.26-9.7.76-2.16,2.11-3.87,3.84-5.33.22-.18.4-.41.59-.62.49-.31.97-.63,1.46-.94.23-.07.47-.11.68-.21,1.55-.76,3.19-1.2,4.91-1.23,4.29-.08,7.84,1.54,10.65,4.77.31.36.63.73.94,1.09.19.3.38.59.57.89Z"/>
    <path class="cls-4" d="m888.1,1692.89c.29-.37.57-.73.86-1.1,1.51-1.98,3.41-3.47,5.7-4.46,2.07-.89,4.22-1.45,6.45-1.76,1.42-.2,2.83-.39,4.26-.54,4.76-.49,8.88-2.42,12.53-5.46,2.27-1.88,4.33-3.97,6.32-6.13,2-2.18,3.91-4.43,5.68-6.8,1.32-1.76,2.61-3.55,3.82-5.38,1.3-1.95,2.53-3.95,3.72-5.97,1.53-2.59,2.88-5.27,4.16-7.99,2.25-4.79,4.07-9.75,5.68-14.78,1.25-3.9,2.47-7.8,3.76-11.69.6-1.81,1.31-3.59,2-5.37.14-.35.37-.68.62-.96.47-.53,1.15-.62,1.74-.21.28.2.55.46.73.75.26.4.48.84.66,1.28,1.25,3.07,2.46,6.15,3.73,9.2,1.11,2.67,2.39,5.26,3.96,7.71,1.61,2.52,3.5,4.79,5.83,6.69,1.69,1.38,3.53,2.51,5.52,3.41,5.08,2.3,10.44,3.07,15.97,2.97,2.95-.05,5.86-.42,8.76-.94,2.26-.4,4.53-.79,6.8-1.11,1.16-.16,2.34-.17,3.51-.23.6-.03,1.18.08,1.7.42.59.38.82.87.68,1.55-.13.65-.48,1.19-.91,1.67-.31.35-.65.66-1.01.96-3,2.5-6.21,4.73-9.44,6.91-3.55,2.4-7.12,4.78-10.63,7.24-3.19,2.23-6.19,4.7-8.91,7.49-1.85,1.89-3.55,3.89-5.05,6.06-1.21,1.75-2.27,3.58-3.14,5.52-1.65,3.67-2.48,7.52-2.41,11.55.04,2.02.13,4.05.2,6.07.08,2.25.1,4.5-.27,6.73-.52,3.09-1.79,5.82-4.04,8.04-.55.54-1.17,1.01-1.82,1.41-2.23,1.35-4.57,1.48-6.98.53-1.4-.55-2.66-1.36-3.84-2.28-1.44-1.13-2.85-2.3-4.3-3.41-1.83-1.4-3.78-2.61-5.79-3.72-5.28-2.92-10.9-4.84-16.87-5.73-1.72-.26-3.45-.35-5.19-.27-4.07.19-7.55,1.67-10.35,4.67-1.13,1.21-2.26,2.42-3.42,3.59-2.42,2.43-5.38,3.73-8.74,4.2-2.26.31-4.41-.11-6.49-.98-.26-.11-.55-.16-.82-.24-.5-.29-1-.58-1.5-.87-.17-.17-.31-.37-.5-.51-1.38-1.03-2.52-2.29-3.34-3.81-2.03-3.78-2.21-7.68-.62-11.66.18-.45.36-.89.54-1.33.18-.31.35-.61.53-.92Z"/>
  </g>
  <g id="_레이어_4" data-name="레이어 4">
    <rect class="cls-3" x="1208.6" y="3936.93" width="61.97" height="50.61" rx="21.05" ry="21.05"/>
    <path class="cls-5" d="m1202.86,3789.72c3.04-2.17,7.26-1.5,9.49,1.5l24.54,33.95c2.56,3.59,1.72,8.58-1.87,11.13h0c-3.59,2.56-8.58,1.72-11.13-1.87l-22.71-35.27c-2.1-3.08-1.35-7.28,1.69-9.44h0Z"/>
    <path class="cls-5" d="m1228.16,3822.06c-4.18,1.18-6.65,5.49-5.55,9.69l17.13,65.81c1.2,4.24,5.61,6.71,9.85,5.51h0c4.24-1.2,6.71-5.61,5.51-9.86l-17.05-65.48c-1.13-4.33-5.59-6.89-9.9-5.67h0Z"/>
    <path class="cls-1" d="m1251.08,3847.77l-28.83,8.52,13.15,41.18c1.72,5.4,6.21,9.46,11.75,10.66h0c5.21,1.12,10.04-3.07,9.67-8.38l-5.73-51.96Z"/>
    <g>
      <path class="cls-5" d="m1212.99,3792.16l-8.25-18.8c-.41-.96-1.55-1.38-2.49-.92h0c-.86.42-1.25,1.44-.89,2.33l.94,2.22,7.01,16.52,3.67-1.35Z"/>
      <path class="cls-5" d="m1208.25,3789.42l-7.93-16.74c-.4-1-1.53-1.48-2.53-1.09h0c-1.01.39-1.51,1.52-1.13,2.53l1.12,2.88,5.8,14.53,4.66-2.1Z"/>
      <path class="cls-5" d="m1205.55,3792.08l-9.26-18.27c-.39-1.02-1.5-1.57-2.55-1.26h0c-1.14.34-1.77,1.58-1.37,2.7l1.1,2.79,5.48,14.19,6.6-.16Z"/>
      <path class="cls-5" d="m1204.03,3792.7l-11.69-16.56c-.54-.91-1.7-1.24-2.64-.75h0c-1.01.52-1.39,1.79-.82,2.78l3.89,6.36,7.25,9.79,4.01-1.61Z"/>
      <path class="cls-5" d="m1200.67,3798.3s-4.59-5.18-7.37-7.24c-1.75-1.3-4.79-3.6-6.78-5.12-1.08-.82-1.25-2.37-.38-3.41h0c.85-1.02,2.31-1.28,3.47-.62l6.95,3.98,4.78,6.1,8.25-4.29,2.51,6.89-11.43,3.71Z"/>
      <path class="cls-2" d="m1200.04,3781.1s.01,0,.02,0c.22-.11.31-.38.2-.6l-2.62-5.28c-.11-.22-.41-.31-.6-.2-.22.11-.31.38-.2.6l2.62,5.28c.11.22.36.31.58.21Z"/>
      <path class="cls-2" d="m1202.99,3778.58h0c.23-.1.33-.37.23-.59l-1.47-3.37c-.1-.23-.36-.33-.59-.23-.19.08-.34.36-.24.59l1.47,3.37c.1.23.36.33.59.23Z"/>
      <path class="cls-2" d="m1196.06,3783.12s.01,0,.02,0c.22-.11.31-.38.2-.6l-2.62-5.28c-.11-.22-.41-.31-.6-.2-.22.11-.31.38-.2.6l2.62,5.28c.11.22.36.31.58.21Z"/>
    </g>
    <path class="cls-5" d="m1161.39,3943.81l-2.01.78c-6.16,2.4-9.25,9.18-6.88,15.1l44.07,110.02c2.34,5.84,9.13,8.64,15.21,6.27h0c6.08-2.37,9.18-9.03,6.95-14.91l-42.06-110.81c-2.26-5.96-9.13-8.86-15.28-6.46Z"/>
    <path class="cls-1" d="m1217.46,4054.53l14.73,24.02-56.8,24.89c-2.08.91-4.5-.04-5.41-2.11l-1.39-3.17c-1.86-4.24-.46-9.16,3.29-11.58l13.15-8.48,10.8-14.09,21.63-9.48Z"/>
    <path class="cls-1" d="m1199.24,4064.07l-4.62-5.85c-1.44-1.82-4.02-2.1-5.73-.62h0c-2.37,2.05-1.62,6.02,1.33,7.12l5.77,2.15,3.25-2.8Z"/>
    <path class="cls-5" d="m1267.03,3970.98h0c1.04-7.15-3.91-13.79-11.05-14.83l-89.2-13.02c-7.15-1.04-13.79,3.91-14.83,11.05h0c-1.04,7.15,3.91,13.79,11.05,14.83l89.2,13.02c7.15,1.04,13.79-3.91,14.83-11.05Z"/>
    <path class="cls-5" d="m1228.16,3860.07h1.77c2.06,0,3.74,1.68,3.74,3.74v14.77c0,2.07-1.68,3.74-3.74,3.74h-1.77c-2.06,0-3.74-1.68-3.74-3.74v-14.77c0-2.06,1.68-3.74,3.74-3.74Z" transform="translate(-640.38 265.37) rotate(-9.79)"/>
    <g>
      <path class="cls-5" d="m1238,3857.17c1.94-7.72-2.5-14.6-9.7-16.41s-12.88,2.98-14.82,10.7c-1.94,7.72-.6,13.98,6.72,15.22,7.51,1.27,15.87-1.79,17.8-9.51Z"/>
      <polygon class="cls-5" points="1214.05 3852.86 1210.78 3852.07 1213.19 3856.78 1214.05 3852.86"/>
      <path class="cls-2" d="m1228.54,3840.82c7.26,1.82,13,6.74,10.64,16.13-1.51,6.03-6.08,9.24-9.88,9.43l-.15-11.52c-3.74-2.72-.38-10.05-.38-10.05,0,0-8.98-.43-9.49-2.52,2.56-1.72,5.72-2.35,9.26-1.46Z"/>
      <path class="cls-5" d="m1227.69,3855.39c1.54-1.45,3.84-1.52,5.14-.14,1.3,1.38,1.11,3.67-.43,5.12-1.54,1.45-3.84,1.52-5.14.14-1.3-1.38-1.11-3.67.43-5.12Z"/>
    </g>
    <path class="cls-3" d="m1269.85,3971.54c1.22-8.35-4.7-16.13-13.21-17.37l-73.19-10.68-4.41,30.25,73.19,10.68c8.51,1.24,16.41-4.52,17.62-12.87h0Z"/>
    <path class="cls-5" d="m1139.25,3812.7c-2.84,2.43-3.21,6.69-.83,9.57l27.04,32c2.87,3.35,7.91,3.73,11.26.87h0c3.35-2.87,3.74-7.91.87-11.26l-28.76-30.54c-2.49-2.78-6.74-3.06-9.57-.63h0Z"/>
    <path class="cls-5" d="m1165.4,3843.64c2.86-3.27,7.8-3.66,11.13-.87l52.14,43.66c3.32,2.9,3.66,7.94.76,11.26h0c-2.9,3.32-7.95,3.66-11.27.76l-51.88-43.44c-3.43-2.87-3.83-8-.89-11.37h0Z"/>
    <path class="cls-1" d="m1176.26,3880.11l19.44-22.93,32.35,28.67c4.24,3.76,6.15,9.5,5,15.05h0c-1.08,5.22-6.86,7.94-11.58,5.46l-45.21-26.25Z"/>
    <g>
      <path class="cls-5" d="m1138.84,3822.78l-13.87-15.14c-.71-.77-.64-1.98.16-2.65h0c.74-.62,1.82-.56,2.49.13l1.65,1.76,12.28,13.09-2.71,2.81Z"/>
      <path class="cls-5" d="m1138.26,3817.34l-12.11-14.02c-.75-.77-.74-2,.02-2.76h0c.76-.76,2-.77,2.77,0l2.18,2.19,10.94,11.18-3.81,3.42Z"/>
      <path class="cls-5" d="m1141.78,3815.94l-12.97-15.86c-.78-.77-.83-2.01-.12-2.84h0c.78-.91,2.16-.98,3.02-.16l2.11,2.14,10.77,10.75-2.81,5.97Z"/>
      <path class="cls-5" d="m1142.96,3814.8l-10.42-17.39c-.61-.86-.44-2.06.38-2.72h0c.89-.72,2.2-.55,2.87.37l4.24,6.13,6.02,10.59-3.09,3.02Z"/>
      <path class="cls-5" d="m1149.44,3813.99s-2.88-6.3-3.64-9.66c-.48-2.13-1.36-5.83-1.94-8.27-.31-1.32-1.66-2.1-2.96-1.73h0c-1.28.37-2.11,1.6-1.97,2.92l.83,7.97,3.64,6.84-7.26,5.81,5.29,5.08,8.01-8.96Z"/>
      <path class="cls-2" d="m1133.96,3806.46s-.01.01-.02.02c-.19.16-.48.13-.64-.06l-3.77-4.52c-.16-.19-.12-.5.06-.63.19-.16.48-.13.63.06l3.77,4.52c.15.19.14.46-.04.62Z"/>
      <path class="cls-2" d="m1130.47,3808.15h0c-.18.17-.47.16-.64-.02l-2.49-2.71c-.17-.18-.16-.47.02-.64.15-.15.47-.16.64.02l2.49,2.71c.17.18.16.47-.02.64Z"/>
      <path class="cls-2" d="m1137.42,3803.64s-.01.01-.02.02c-.19.16-.48.13-.64-.06l-3.77-4.52c-.16-.19-.12-.5.06-.63.19-.16.48-.13.63.06l3.77,4.52c.15.19.14.46-.04.62Z"/>
    </g>
    <path class="cls-5" d="m1224.56,3943.07h0c-7.18.82-12.33,7.3-11.51,14.47l10.2,89.57c.82,7.18,7.3,12.33,14.47,11.51h0c7.18-.82,12.33-7.3,11.51-14.47l-10.2-89.57c-.82-7.18-7.3-12.33-14.47-11.51Z"/>
    <path class="cls-5" d="m1234.92,4032.89l-2.12.4c-6.5,1.22-10.76,7.5-9.48,13.98l23.69,120.63c1.26,6.41,7.44,10.6,13.86,9.4h0c6.42-1.2,10.67-7.35,9.52-13.78l-21.57-121.03c-1.16-6.51-7.4-10.82-13.9-9.6Z"/>
    <path class="cls-1" d="m1270.88,4161.82l8.92,26.73-61.67,11.55c-1.84.34-3.6-.87-3.95-2.7l-.77-4.12c-.85-4.56,1.62-9.03,5.82-10.54l14.73-5.29,13.7-11.29,23.21-4.35Z"/>
    <path class="cls-1" d="m1251.11,4167.36l-3.92-6.34c-1.22-1.97-3.75-2.55-5.62-1.28h0c-2.59,1.76-2.3,5.8.51,7.23l5.49,2.79,3.55-2.41Z"/>
    <path class="cls-3" d="m1223.8,3938.46c-8.58.98-14.72,8.96-13.71,17.83l8.51,74.69,31.08-3.54-8.51-74.69c-1.01-8.87-8.79-15.27-17.37-14.29h0Z"/>
    <path class="cls-2" d="m1245.19,3995.51l-1.71-16.77c-.03-.25.15-.47.4-.49s.47.16.49.4l1.71,16.77c.03.25-.16.47-.4.49s-.47-.16-.49-.4Z"/>
    <polygon class="cls-1" points="1233.5 3872.51 1251.09 3873.43 1271 3955.99 1211.05 3963.48 1203 3880.43 1225.2 3873.9 1233.5 3872.51"/>
    <path class="cls-2" d="m1212.85,3980.7l-1.88-16.75c-.03-.25.15-.47.4-.5s.47.15.5.4l1.88,16.75c.03.25-.15.47-.4.5s-.47-.15-.5-.4Z"/>
  </g>
</svg>