<?xml version="1.0" encoding="UTF-8"?>
<svg id="home_character" xmlns="http://www.w3.org/2000/svg" viewBox="0 0 3472.76 3091.15">
  <defs>
    <style>
      .cls-1 {
        fill: #5774cd;
      }

      .cls-1, .cls-2, .cls-3, .cls-4, .cls-5 {
        stroke-width: 0px;
      }

      .cls-3 {
        fill: #ed8c6b;
      }

      .cls-4 {
        fill: #ffc849;
      }

      .cls-6 {
        stroke: #ffc849;
        stroke-width: 8.83px;
      }

      .cls-6, .cls-7, .cls-8 {
        fill: none;
        stroke-miterlimit: 10;
      }

      .cls-7 {
        stroke: #fd521b;
        stroke-width: 3.53px;
      }

      .cls-7, .cls-8 {
        stroke-linecap: round;
      }

      .cls-8 {
        stroke: #fff;
        stroke-width: 1.77px;
      }

      .cls-5 {
        fill: #fd521b;
      }
    </style>
  </defs>
  <line class="cls-6" x1="2241.83" y1="2608.9" x2="2241.83" y2="2011.15"/>
  <g id="_오른쪽_손" data-name="오른쪽 손">
    <g>
      <path class="cls-3" d="m2347.74,2718.87s-.98,36.56-18.23,58.67c-14.48,18.56-28.9,21.09-35.27,20.73-1.61-.09-2.96-1.25-3.3-2.83h0c-.56-2.64.82-5.3,3.29-6.39,2.98-1.31,7.24-3.65,12.01-7.67,9.07-7.65,14.39-26.82,14.39-26.82l5.84-32.79,21.28-2.91Z"/>
      <path class="cls-3" d="m2317.35,2718.67s-4.33,26.28-8.27,39.63c-3.94,13.35-.59,15.32,3.69,16.35,6.8,1.64,10.93-11.01,13.29-19,2.36-7.99,6.19-7.83,6.19-7.83l-1.83-33.82-13.07,4.66Z"/>
      <path class="cls-3" d="m2338.3,2719.8s1.07,32.15-15.17,57.39c-12.7,19.73-28.79,21.09-35.21,20.73-1.65-.09-3.03-1.28-3.38-2.9h0c-.55-2.61.81-5.23,3.25-6.3,2.98-1.31,7.27-3.65,12.06-7.69,9.07-7.65,14.39-26.82,14.39-26.82l5.84-32.79,18.22-1.63Z"/>
      <path class="cls-3" d="m2342.75,2725.14s-6.02,28.06-23.89,48.12c-12.58,14.12-24.09,14.97-29.81,14.24-2.16-.28-3.72-2.19-3.6-4.36h0c.1-1.75,1.29-3.23,2.98-3.7,2.55-.71,6.67-2.24,11.71-5.52,8.6-5.6,16.78-21.65,16.78-21.65l11.47-27.82,14.36.69Z"/>
      <path class="cls-3" d="m2344.92,2717.8s-6.02,28.06-23.89,48.12c-13.48,15.14-25.75,15.02-30.96,14.06-1.52-.28-2.59-1.66-2.51-3.2h0c.13-2.29,1.67-4.25,3.87-4.93,2.57-.79,7.02-1.5,10.88-5.28,14.61-14.3,4.53-21.72,8.78-36.09,6.77-22.92,19.47-13.37,19.47-13.37l14.36.69Z"/>
      <path class="cls-2" d="m2290.01,2781.07l-.14-.02c-1-.19-4.05-.76-3.9-3.46.03-.6.54-1.06,1.14-1.02.59.03,1.06.54,1.02,1.14-.02.28-.04.8,2.13,1.2l.12.02c4.69.83,16.41.83,26.71-16.1.31-.51.98-.68,1.49-.36s.67.98.36,1.49c-11,18.06-23.81,18.02-28.95,17.11Z"/>
      <path class="cls-2" d="m2287.49,2789.02c-.57-.1-.96-.63-.89-1.2.08-.59.62-1.02,1.21-.94,5.53.71,19.54.74,30.16-14.24,1.19-1.67,2.4-4.09,3.79-6.87.51-1.01,1.04-2.08,1.61-3.18.28-.53.94-.74,1.46-.47.53.28.74.93.47,1.46-.57,1.1-1.1,2.16-1.6,3.16-1.44,2.87-2.68,5.35-3.97,7.16-11.3,15.93-26.29,15.89-32.21,15.14h-.05Z"/>
      <path class="cls-2" d="m2288.12,2799.84c-.53-.09-.92-.57-.89-1.13.03-.6.54-1.06,1.14-1.02,4.6.25,20.62-.53,33.85-21.09,2.28-3.55,4.35-7.45,6.14-11.59.24-.55.88-.81,1.43-.56.55.24.8.88.56,1.43-1.84,4.25-3.96,8.25-6.31,11.9-13.86,21.54-30.9,22.35-35.79,22.08-.05,0-.09,0-.13-.01Z"/>
    </g>
  </g>
  <g id="_오른쪽_하박_팔" data-name="오른쪽 하박 팔">
    <path class="cls-3" d="m2327.79,2748.86c8.95.91,16.98-5.5,18.07-14.44l15.9-131.06c1.07-10.56-6.61-19.99-17.17-21.06h0c-10.56-1.08-19.99,6.61-21.06,17.17l-10.52,131.64c-.71,8.95,5.85,16.83,14.78,17.74h0Z"/>
  </g>
  <g id="_오른쪽_상박_팔" data-name="오른쪽 상박 팔">
    <path class="cls-3" d="m2344.06,2620.56c10.42-.86,18.24-9.89,17.6-20.32l-10.02-163.39c-.87-10.58-10.15-18.44-20.73-17.57h0c-10.58.87-18.45,10.16-17.57,20.73l9.97,162.58c.66,10.75,10.02,18.86,20.75,17.97h0Z"/>
  </g>
  <g id="_오른쪽발목" data-name="오른쪽발목">
    <rect class="cls-3" x="1943.57" y="2929.33" width="43.58" height="122.77" transform="translate(2113.36 -584.91) rotate(35.68)"/>
  </g>
  <g id="_오른쪽신발1" data-name="오른쪽신발1">
    <path class="cls-4" d="m1960.18,3041.28l-24.43,46.87c-1.57,3-5.43,3.93-8.18,1.95l-117.47-84.36c-2.5-1.79-3.07-5.27-1.27-7.77l4.04-5.63c7.76-10.81,22.25-14.35,34.12-8.33l28.34,14.37c.28.14.58.26.89.36l52.69,16.15c.51.16.99.38,1.44.68l27.97,18.49c2.38,1.57,3.18,4.69,1.87,7.22Z"/>
  </g>
  <g id="_오른쪽신발2" data-name="오른쪽신발2">
    <path class="cls-4" d="m1927.36,3016.67l4.07-16.59c1.27-5.17-1.95-10.37-7.14-11.55h0c-7.19-1.63-13.42,5.17-11.17,12.19l4.4,13.69,9.84,2.25Z"/>
  </g>
  <g id="_오른쪽_종아리" data-name="오른쪽 종아리">
    <path class="cls-2" d="m2015.52,2982.71l145.36-202.43c13.03-18.14,10.78-42.05-5.02-53.39h0c-15.8-11.35-39.17-5.84-52.2,12.31l-145.36,202.43,57.22,41.09Z"/>
  </g>
  <g id="_오른쪽_허벅지" data-name="오른쪽 허벅지">
    <path class="cls-2" d="m2327.58,2639.12c10.25,16.53,3.55,39.24-14.98,50.73l-155.98,96.74c-16.99,10.53-39.07,5.67-49.32-10.86h0c-10.25-16.53-4.79-38.47,12.19-49l155.98-96.74c18.52-11.49,41.85-7.4,52.1,9.13h0Z"/>
  </g>
  <path class="cls-5" d="m2222.3,2750.73h0c-17.78-18.99-32.74-40.07-44.81-63.12h0s19.53-13.86,19.53-13.86h0c12.07,23.05,27.03,44.12,44.81,63.12h0s-19.53,13.86-19.53,13.86Z"/>
  <g id="_오른쪽_소매" data-name="오른쪽 소매">
    <path class="cls-1" d="m2299.64,2551.07l77.14-8.11-13.14-103.21c-1.72-13.53-10.56-25.11-23.15-30.36h0c-11.84-4.93-25.1,2.88-26.55,15.62l-14.29,126.05Z"/>
  </g>
  <g id="_왼쪽발목" data-name="왼쪽발목">
    <rect class="cls-3" x="1851.01" y="2865.98" width="45.17" height="127.25" transform="translate(2640.64 -462.24) rotate(45.34)"/>
  </g>
  <g id="_왼쪽신발1" data-name="왼쪽신발1">
    <path class="cls-4" d="m1860.84,2974.39l-40.28,53.09-109.21-110.52c-2.7-2.73-2.67-7.13.06-9.83l7.78-7.69c7.79-7.7,20.03-8.56,28.83-2.04l30.83,22.85,52.22,26.26,29.76,27.88Z"/>
  </g>
  <g id="_왼쪽신발2" data-name="왼쪽신발2">
    <path class="cls-4" d="m1830.26,2949.52l7.04-16.24c2.19-5.06-.19-10.93-5.28-13.04h0c-7.06-2.92-14.61,2.95-13.53,10.51l2.11,14.75,9.67,4.01Z"/>
  </g>
  <path class="cls-3" d="m2290.94,2359.73h15.23c2.07,0,3.74,1.68,3.74,3.74v47.14c0,2.06-1.68,3.74-3.74,3.74h-15.23c-2.06,0-3.74-1.68-3.74-3.74v-47.14c0-2.06,1.68-3.74,3.74-3.74Z" transform="translate(132.1 -120.51) rotate(3.09)"/>
  <path class="cls-3" d="m2290.95,2359.62h15.23c2.07,0,3.74,1.68,3.74,3.74v47.14c0,2.06-1.68,3.74-3.74,3.74h-15.23c-2.06,0-3.74-1.68-3.74-3.74v-47.14c0-2.06,1.68-3.74,3.74-3.74Z" transform="translate(132.09 -120.51) rotate(3.09)"/>
  <path class="cls-3" d="m2327.43,2345.05c1.05-19.52-12.85-34.02-31.06-35-18.21-.98-29.66,13.21-30.71,32.73s5.09,33.97,23.32,33.53c18.7-.45,37.4-11.73,38.45-31.25Z"/>
  <polygon class="cls-3" points="2267.69 2345.87 2259.45 2345.49 2267.45 2355.72 2267.69 2345.87"/>
  <path class="cls-5" d="m2296.99,2310.08c18.35.99,34.48,10.16,33.2,33.89-.82,15.24-10.33,25.1-19.41,27.34l-5.75-27.7c-10.29-4.79-17.29-19.23-17.29-19.23l1.57,7.91c-7.24-2.08-11.73-9.57-13.94-14.36,5.36-5.34,12.69-8.34,21.62-7.85Z"/>
  <path class="cls-3" d="m2301.74,2345.58c3.02-4.22,8.54-5.45,12.32-2.74,3.78,2.71,4.39,8.32,1.37,12.54-3.02,4.22-8.54,5.45-12.32,2.74-3.78-2.71-4.39-8.32-1.37-12.54Z"/>
  <g id="_왼쪽_종아리" data-name="왼쪽 종아리">
    <path class="cls-2" d="m1906.17,2928.44l183.74-181.56c16.47-16.27,18.52-40.89,4.59-54.99h0c-13.93-14.1-38.58-12.34-55.04,3.93l-183.74,181.56,50.45,51.06Z"/>
  </g>
  <g id="_왼쪽_허벅지" data-name="왼쪽 허벅지">
    <path class="cls-2" d="m2289.52,2648.57c6.01,18.89-6.27,39.66-27.44,46.4l-181.94,57.92c-19.74,6.28-40.62-3.93-46.63-22.82h0c-6.01-18.89,5.12-39.29,24.86-45.58l181.94-57.92c21.17-6.74,43.2,3.11,49.21,22h0Z"/>
  </g>
  <path class="cls-2" d="m2257.71,2557.22l50.13,2.71c16.4.89,28.8,18.22,27.69,38.71l-2.69,49.84c-1.11,20.49-15.3,36.39-31.7,35.51l-50.13-2.71c-16.4-.89-23.87-17.95-22.77-38.45l5.71-32.43c1.11-20.49,7.36-54.07,23.76-53.18Z"/>
  <g id="_몸통" data-name="몸통">
    <polygon class="cls-1" points="2309.21 2400.36 2338.54 2408.78 2344.56 2619.26 2222.52 2613.63 2257.77 2403.25 2286.52 2399.39 2309.21 2400.36"/>
  </g>
  <line class="cls-8" x1="2094.84" y1="2749.1" x2="2255.77" y2="2698.08"/>
  <path class="cls-5" d="m2176.5,2725.59h0c-11.13-23.52-18.94-48.15-23.39-73.79h0s22.83-7.24,22.83-7.24h0c4.45,25.63,12.26,50.27,23.39,73.79h0s-22.83,7.24-22.83,7.24Z"/>
  <path class="cls-7" d="m2306.01,2637.78s13.77,92.79-68.3,95.88"/>
  <path class="cls-7" d="m2306.01,2637.78s-44.48,80.94-119.03,74.07"/>
  <path class="cls-5" d="m2335.59,2638.09h0c-37.9.18-75.79-1.86-113.45-6.13h0s.82-15.21.82-15.21h0c37.66,4.26,75.55,6.31,113.45,6.13h0s-.82,15.21-.82,15.21Z"/>
  <g id="_오른쪽_손-2" data-name="오른쪽 손">
    <g>
      <path class="cls-3" d="m2202.35,2709.29s-11.85,35.37-3.06,62.58c7.38,22.85,20.3,30.31,26.54,32.2,1.58.48,3.28-.16,4.15-1.56h0c1.46-2.33,1.07-5.36-.92-7.27-2.39-2.3-5.66-6.03-8.82-11.54-6.01-10.5-4.4-30.73-4.4-30.73l5.87-33.45-19.36-10.23Z"/>
      <path class="cls-3" d="m2231.54,2719.73s-5.05,26.69-5.93,40.86c-.89,14.16-4.79,14.88-9.26,14.37-7.08-.8-6.62-14.37-6.09-22.85.53-8.48-3.19-9.66-3.19-9.66l13.58-31.75,10.89,9.04Z"/>
      <path class="cls-3" d="m2211.07,2713.48s-12.27,30.42-5.54,60.28c5.26,23.35,20.21,30.27,26.48,32.18,1.61.49,3.35-.17,4.25-1.6h0c1.44-2.3,1.06-5.29-.91-7.17-2.4-2.29-5.69-6.03-8.87-11.59-6.01-10.5-4.4-30.73-4.4-30.73l5.87-33.45-16.88-7.93Z"/>
      <path class="cls-3" d="m2204.94,2717.04s-4.05,28.99,6.05,54.45c7.11,17.92,17.84,22.77,23.58,24.06,2.16.49,4.33-.8,4.97-2.92h0c.52-1.71-.11-3.55-1.56-4.59-2.19-1.57-5.6-4.48-9.29-9.39-6.28-8.37-8.5-26.6-8.5-26.6l-1.26-30.66-14-4.36Z"/>
      <path class="cls-3" d="m2205.43,2709.24s-4.05,28.99,6.05,54.45c7.62,19.21,19.41,23.4,24.74,24.29,1.56.26,3.06-.68,3.52-2.19h0c.68-2.24-.12-4.65-1.98-6.07-2.18-1.66-6.2-3.89-8.57-8.86-8.99-18.81,3.25-22.39,4.21-37.64,1.53-24.32-13.97-19.62-13.97-19.62l-14-4.36Z"/>
      <path class="cls-2" d="m2235.9,2789.06l.14.02c1.02.17,4.14.69,4.94-1.95.18-.58-.15-1.2-.74-1.38-.58-.17-1.2.15-1.38.74-.08.27-.24.78-2.46.41l-.12-.02c-4.78-.84-16.01-4.95-19.96-24.76-.12-.6-.7-.99-1.3-.87s-.99.7-.87,1.3c4.22,21.15,16.5,25.59,21.75,26.51Z"/>
      <path class="cls-2" d="m2235.54,2797.55c.58.1,1.14-.27,1.27-.84.14-.6-.24-1.19-.83-1.33-5.55-1.26-18.98-6.13-23.91-24.19-.55-2.02-.87-4.75-1.23-7.91-.13-1.15-.27-2.35-.43-3.61-.08-.6-.64-1.04-1.24-.96-.61.08-1.04.63-.96,1.24.16,1.25.3,2.45.43,3.59.37,3.25.7,6.06,1.3,8.24,5.25,19.21,19.62,24.42,25.56,25.76h.05Z"/>
      <path class="cls-2" d="m2231.15,2807.7c.54.1,1.08-.23,1.25-.77.18-.58-.15-1.2-.74-1.38-4.49-1.37-19.57-7.72-25.05-32.04-.94-4.2-1.56-8.65-1.83-13.25-.03-.61-.56-1.08-1.17-1.04-.61.04-1.08.56-1.04,1.17.28,4.71.91,9.29,1.88,13.6,5.75,25.49,21.79,32.22,26.56,33.67.04.01.09.02.13.03Z"/>
    </g>
  </g>
  <g id="_오른쪽_하박_팔-2" data-name="오른쪽 하박 팔">
    <path class="cls-3" d="m2210.98,2744.99c-8.89-2.25-14.34-11.21-12.26-20.15l30.6-131.11c2.66-10.49,13.33-16.83,23.81-14.17h0c10.49,2.66,16.84,13.33,14.17,23.82l-35.97,129.78c-2.44,8.82-11.49,14.07-20.36,11.82h0Z"/>
  </g>
  <g id="_오른쪽_상박_팔-2" data-name="오른쪽 상박 팔">
    <path class="cls-3" d="m2247.5,2617.28c-10.65-.47-18.97-9.37-18.72-20.03l3.88-166.89c.48-10.81,9.63-19.19,20.44-18.71h0c10.81.48,19.19,9.63,18.71,20.45l-3.86,166.06c-.26,10.98-9.48,19.6-20.45,19.12h0Z"/>
  </g>
  <g id="_오른쪽_소매-2" data-name="오른쪽 소매">
    <path class="cls-1" d="m2289.3,2550.22l-78.36-10.72,16.68-104.78c2.19-13.74,11.56-25.26,24.57-30.2h0c12.23-4.65,25.5,3.73,26.56,16.77l10.55,128.94Z"/>
  </g>
  <line class="cls-8" x1="2289.36" y1="2550.88" x2="2281.91" y2="2459.9"/>
  <line class="cls-8" x1="2289.26" y1="2551.04" x2="2269.19" y2="2548.29"/>
  <line class="cls-8" x1="2341.75" y1="2546.45" x2="2337.94" y2="2474.49"/>
</svg>