<?xml version="1.0" encoding="UTF-8"?>
<svg id="_레이어_8" data-name="레이어 8" xmlns="http://www.w3.org/2000/svg" viewBox="0 0 3411.69 5692.52">
  <defs>
    <style>
      .cls-1 {
        fill: #5774cd;
      }

      .cls-1, .cls-2, .cls-3, .cls-4, .cls-5, .cls-6, .cls-7, .cls-8, .cls-9, .cls-10, .cls-11 {
        stroke-width: 0px;
      }

      .cls-12 {
        font-size: 20px;
      }

      .cls-12, .cls-13 {
        fill: #333;
        font-family: MalgunGothic-Semilight, 'Malgun Gothic';
        font-weight: 300;
      }

      .cls-14 {
        letter-spacing: -.01em;
      }

      .cls-2 {
        fill: #be6554;
      }

      .cls-15 {
        stroke: #fa4659;
        stroke-miterlimit: 10;
        stroke-width: .5px;
      }

      .cls-15, .cls-16 {
        fill: #fa4659;
        font-family: MalgunGothicBold, 'Malgun Gothic';
        font-size: 84px;
      }

      .cls-4 {
        fill: #ed8c6b;
      }

      .cls-5 {
        fill: #040000;
      }

      .cls-17 {
        letter-spacing: -.1em;
      }

      .cls-6 {
        fill: #ffc849;
      }

      .cls-7 {
        fill: #fff;
      }

      .cls-18 {
        letter-spacing: 0em;
      }

      .cls-8 {
        fill: #fd521b;
      }

      .cls-13 {
        font-size: 18px;
      }

      .cls-9 {
        fill: #555;
      }

      .cls-10 {
        fill: #aaa;
      }

      .cls-11 {
        fill: #c66855;
      }
    </style>
  </defs>
  <path class="cls-10" d="m1062.73,3591.67c.02-.69.05-1.37.06-2.06.06-3.69,1.02-7.12,2.88-10.3,1.68-2.87,3.76-5.42,6.14-7.73,1.51-1.47,3.03-2.95,4.59-4.37,5.24-4.75,8.45-10.66,10.15-17.47,1.05-4.22,1.68-8.51,2.16-12.83.48-4.34.78-8.7.82-13.06.03-3.25,0-6.5-.16-9.75-.17-3.46-.45-6.92-.8-10.36-.45-4.42-1.18-8.8-2.04-13.16-1.51-7.68-3.68-15.17-6.17-22.57-1.93-5.73-3.88-11.46-5.75-17.21-.87-2.68-1.58-5.42-2.32-8.14-.15-.54-.15-1.13-.1-1.69.1-1.05.83-1.74,1.89-1.77.51-.01,1.05.07,1.53.25.66.25,1.3.58,1.91.95,4.17,2.56,8.3,5.17,12.49,7.7,3.66,2.21,7.46,4.17,11.45,5.72,4.12,1.59,8.36,2.64,12.79,2.86,3.22.16,6.4-.1,9.55-.77,8.06-1.71,15.12-5.48,21.61-10.43,3.46-2.64,6.61-5.63,9.61-8.78,2.34-2.46,4.7-4.9,7.13-7.28,1.23-1.21,2.63-2.25,3.97-3.34.69-.56,1.47-.94,2.39-.99,1.03-.06,1.74.32,2.18,1.25.42.89.47,1.84.38,2.79-.06.68-.2,1.36-.36,2.03-1.39,5.6-3.26,11.06-5.19,16.49-2.13,5.97-4.29,11.92-6.33,17.92-1.85,5.44-3.25,11.01-4.06,16.71-.55,3.86-.82,7.73-.7,11.64.09,3.14.43,6.25,1.09,9.32,1.25,5.82,3.63,11.13,7.24,15.86,1.81,2.38,3.7,4.7,5.55,7.05,2.06,2.61,4.06,5.27,5.56,8.25,2.08,4.14,2.97,8.5,2.22,13.11-.18,1.11-.5,2.23-.93,3.27-1.47,3.56-4.15,5.76-7.85,6.74-2.15.57-4.36.7-6.57.64-2.7-.08-5.4-.24-8.11-.29-3.4-.06-6.78.19-10.15.63-8.84,1.14-17.22,3.77-25.11,7.94-2.27,1.2-4.41,2.6-6.41,4.22-4.68,3.78-7.53,8.59-8.24,14.62-.29,2.43-.57,4.85-.94,7.27-.75,5-3.14,9.15-6.74,12.65-2.42,2.35-5.35,3.73-8.59,4.51-.41.1-.79.28-1.19.43-.85.09-1.7.19-2.55.28-.35-.06-.69-.16-1.04-.17-2.55-.02-5.01-.52-7.31-1.61-5.73-2.73-9.35-7.2-10.94-13.34-.18-.69-.35-1.38-.52-2.06-.06-.52-.11-1.04-.17-1.56Z"/>
  <path class="cls-10" d="m1087.18,3093.02c.42-.54.85-1.08,1.27-1.62,2.23-2.93,5.03-5.13,8.42-6.6,3.05-1.32,6.24-2.14,9.52-2.6,2.09-.29,4.19-.58,6.29-.8,7.03-.73,13.12-3.58,18.52-8.07,3.35-2.78,6.4-5.87,9.33-9.06,2.96-3.22,5.78-6.55,8.4-10.04,1.95-2.6,3.85-5.24,5.65-7.95,1.91-2.89,3.74-5.84,5.49-8.82,2.25-3.83,4.26-7.79,6.15-11.81,3.33-7.08,6.02-14.4,8.4-21.84,1.84-5.76,3.66-11.53,5.56-17.27.89-2.68,1.93-5.3,2.95-7.94.2-.52.55-1,.92-1.42.7-.79,1.7-.91,2.57-.31.42.29.81.68,1.08,1.1.39.59.71,1.24.97,1.89,1.84,4.53,3.63,9.08,5.5,13.6,1.64,3.95,3.54,7.78,5.84,11.39,2.38,3.72,5.18,7.08,8.62,9.88,2.5,2.03,5.22,3.71,8.15,5.04,7.5,3.4,15.43,4.54,23.59,4.39,4.36-.08,8.66-.62,12.95-1.38,3.34-.59,6.69-1.17,10.05-1.64,1.71-.24,3.45-.26,5.18-.34.89-.04,1.74.12,2.51.62.87.56,1.21,1.28,1.01,2.3-.19.96-.71,1.76-1.35,2.47-.45.51-.96.98-1.49,1.42-4.44,3.69-9.17,6.98-13.95,10.21-5.25,3.55-10.52,7.07-15.71,10.69-4.71,3.29-9.14,6.95-13.17,11.06-2.73,2.79-5.24,5.75-7.46,8.96-1.78,2.59-3.35,5.3-4.64,8.16-2.44,5.43-3.67,11.12-3.56,17.07.05,2.99.2,5.98.3,8.97.12,3.32.15,6.65-.41,9.94-.77,4.57-2.64,8.61-5.98,11.88-.81.79-1.73,1.5-2.69,2.09-3.29,2-6.76,2.18-10.32.78-2.07-.81-3.93-2.01-5.67-3.38-2.13-1.66-4.21-3.39-6.36-5.04-2.7-2.06-5.58-3.86-8.56-5.5-7.8-4.31-16.11-7.16-24.93-8.47-2.54-.38-5.1-.52-7.67-.4-6.01.28-11.16,2.46-15.3,6.9-1.67,1.79-3.34,3.57-5.06,5.3-3.57,3.59-7.95,5.51-12.92,6.2-3.34.46-6.51-.16-9.59-1.45-.39-.16-.81-.24-1.21-.36-.74-.43-1.48-.86-2.22-1.28-.25-.25-.46-.54-.74-.75-2.05-1.53-3.73-3.38-4.93-5.62-3-5.59-3.27-11.34-.91-17.23.26-.66.53-1.31.8-1.97.26-.45.52-.9.78-1.36Z"/>
  <path class="cls-10" d="m1056.09,2807.14c-.43.53-.87,1.06-1.29,1.6-2.28,2.9-5.11,5.06-8.52,6.47-3.07,1.27-6.27,2.05-9.56,2.46-2.1.26-4.19.52-6.3.71-7.04.62-13.17,3.39-18.64,7.8-3.39,2.73-6.48,5.77-9.47,8.93-3,3.17-5.87,6.46-8.54,9.92-1.99,2.57-3.93,5.19-5.76,7.87-1.96,2.86-3.82,5.78-5.62,8.74-2.31,3.79-4.37,7.72-6.32,11.72-3.43,7.03-6.23,14.31-8.72,21.72-1.93,5.73-3.82,11.48-5.81,17.19-.93,2.66-2.01,5.27-3.07,7.89-.21.51-.56,1-.94,1.41-.71.78-1.72.89-2.57.27-.41-.3-.8-.69-1.07-1.12-.38-.6-.69-1.25-.95-1.91-1.78-4.56-3.5-9.14-5.31-13.68-1.58-3.97-3.42-7.83-5.68-11.48-2.32-3.76-5.07-7.16-8.47-10.01-2.47-2.07-5.16-3.79-8.08-5.16-7.45-3.51-15.36-4.76-23.52-4.74-4.36.01-8.67.5-12.96,1.19-3.35.54-6.71,1.07-10.07,1.5-1.71.22-3.46.21-5.19.27-.89.03-1.74-.14-2.51-.65-.86-.58-1.19-1.3-.98-2.31.2-.96.74-1.75,1.38-2.45.46-.51.98-.97,1.51-1.4,4.49-3.63,9.27-6.85,14.1-10.01,5.3-3.47,10.62-6.91,15.87-10.46,4.76-3.22,9.24-6.81,13.33-10.87,2.77-2.75,5.33-5.67,7.59-8.85,1.82-2.56,3.43-5.25,4.76-8.09,2.52-5.39,3.83-11.06,3.81-17.02,0-2.99-.11-5.98-.17-8.97-.07-3.33-.05-6.65.55-9.94.84-4.56,2.77-8.57,6.15-11.79.82-.78,1.75-1.47,2.72-2.05,3.32-1.95,6.79-2.08,10.33-.63,2.06.84,3.9,2.07,5.62,3.46,2.11,1.69,4.16,3.46,6.29,5.13,2.67,2.1,5.52,3.94,8.48,5.63,7.74,4.43,16,7.39,24.81,8.83,2.54.41,5.09.59,7.66.51,6.02-.19,11.19-2.3,15.39-6.67,1.69-1.76,3.39-3.52,5.14-5.23,3.62-3.53,8.03-5.4,13.01-6.01,3.35-.41,6.51.26,9.57,1.59.38.17.8.25,1.21.38.73.44,1.47.88,2.2,1.32.24.26.45.55.73.76,2.02,1.56,3.68,3.44,4.85,5.7,2.92,5.63,3.1,11.39.66,17.24-.27.65-.55,1.31-.83,1.96-.27.45-.54.9-.8,1.35Z"/>
  <g>
    <circle class="cls-2" cx="1063.4" cy="2934.51" r="19.77"/>
    <path class="cls-2" d="m1046.88,2937.26c-1.67-2.62-4.93-3.53-7.28-2.04-2.35,1.5-2.9,4.84-1.22,7.46,1.67,2.62,4.93,3.53,7.28,2.04,2.35-1.5,2.9-4.84,1.22-7.46Z"/>
    <path class="cls-2" d="m1079.74,2937.26c1.67-2.62,4.93-3.53,7.28-2.04,2.35,1.5,2.9,4.84,1.22,7.46s-4.93,3.53-7.28,2.04c-2.35-1.5-2.9-4.84-1.22-7.46Z"/>
    <rect class="cls-2" x="1056.6" y="2953.55" width="13.6" height="19.93"/>
    <path class="cls-5" d="m1043.63,2936.12c0-11.7,8.85-15.27,19.77-15.27,10.92,0,19.77,3.56,19.77,15.27,0,11.7-8.85,21.19-19.77,21.19-10.92,0-19.77-9.49-19.77-21.19Z"/>
    <path class="cls-5" d="m1058.53,2957.11c-1.25,1.37-1.61,3.07-.81,3.8.8.73,2.46.22,3.71-1.15,1.25-1.37.81-3.8.81-3.8,0,0-2.46-.22-3.71,1.15Z"/>
    <path class="cls-5" d="m1062.63,2959.96c1.03,1.84,2.74,2.84,3.82,2.24,1.08-.6,1.11-2.59.08-4.43-1.03-1.84-3.82-2.24-3.82-2.24,0,0-1.11,2.59-.08,4.43Z"/>
    <polygon class="cls-2" points="1063.56 2911.08 1066.27 2915.77 1060.53 2915.77 1063.56 2911.08"/>
  </g>
  <rect class="cls-6" x="1018.69" y="3047.17" width="91.56" height="74.78" rx="21.05" ry="21.05" transform="translate(2970.89 5732.81) rotate(163.29)"/>
  <path class="cls-2" d="m1038.17,3188.2l-3.23.03c-9.9.08-17.84,6.52-17.69,14.34l8.46,145.89c.15,7.72,2.35,13.88,12.12,13.8l.11-.48c9.77-.08,14.83-5.96,14.86-13.68l3.3-145.84c.02-7.82-8.02-14.13-17.92-14.05Z"/>
  <path class="cls-2" d="m1040.12,3069.5h0c-10.67-.18-19.52,7.29-19.76,16.69l-3.1,117.27c-.25,9.4,8.2,17.16,18.86,17.34h0c10.67.18,19.52-7.29,19.76-16.69l3.1-117.27c.25-9.4-8.2-17.16-18.86-17.34Z"/>
  <path class="cls-6" d="m1040.44,3065.51c-12.47-.21-22.8,8.26-23.09,18.92l-2.45,91.65,45.14.76,2.45-91.65c.28-10.66-9.59-19.48-22.05-19.69h0Z"/>
  <path class="cls-2" d="m1090.36,3092.37l2.3-.25c7.04-.75,13.17,2.75,13.65,7.8l8.88,93.91c.47,4.99-4.76,9.61-11.71,10.35h0c-6.96.74-13.04-2.67-13.63-7.64l-11.18-93.66c-.6-5.04,4.65-9.76,11.69-10.51Z"/>
  <path class="cls-6" d="m1097.07,3131.05c-12.52,2.47-23.54.08-24.61-5.34l-9-45.63,45.34-8.94,9,45.63c1.07,5.42-8.22,11.81-20.74,14.28h0Z"/>
  <path class="cls-2" d="m1156.66,3081.85c-5.76,2.93-12.71,1.26-15.65-3.74l-45.92-78.37c-2.85-5.14-.43-11.72,5.42-14.69h0c5.85-2.97,12.91-1.21,15.76,3.94l45.7,77.98c3.02,5.16.63,11.87-5.31,14.88h0Z"/>
  <path class="cls-8" d="m1165.2,3037.46l-39.03,22.1-30.53-56.8c-4-7.45-3.72-16.47.75-23.65h0c4.2-6.75,13.7-7.59,19.02-1.68l49.8,60.03Z"/>
  <path class="cls-2" d="m998.01,2821.11c-5.5-.9-10.71,2.78-11.71,8.26l-10.47,61.62c-1.06,6.49,3.35,12.61,9.84,13.67h0c6.49,1.06,12.61-3.35,13.67-9.84l7.16-62.18c.77-5.51-2.99-10.63-8.49-11.52h0Z"/>
  <g>
    <path class="cls-2" d="m985.29,2835.92l2.73-40.51c.11-1.56,1.5-2.71,3.05-2.53h0c1.42.17,2.47,1.41,2.4,2.84l-.64,13.56-1.71,26.72-5.83-.08Z"/>
    <path class="cls-2" d="m989.64,2829.78l5.4-39.92c.16-1.59,1.57-2.77,3.17-2.63h0c1.61.14,2.8,1.55,2.67,3.15l-1.06,13.39-2.62,27.06-7.56-1.05Z"/>
    <path class="cls-2" d="m995.67,2832.49l6.18-43.76c.13-1.63,1.49-2.88,3.13-2.87h0c1.78.01,3.19,1.52,3.09,3.3l-.77,13.27-2.1,27.52-9.52,2.54Z"/>
    <path class="cls-2" d="m998.2,2832.75l10.24-39.26c.4-1.53,1.92-2.48,3.47-2.18h0c1.67.32,2.74,1.98,2.34,3.63l-2.99,12.57-6.64,25.87-6.42-.62Z"/>
    <path class="cls-2" d="m1005.35,2839.36s4.41-9.35,7.52-13.45c1.97-2.59,5.35-7.16,7.57-10.17,1.2-1.62.8-3.91-.88-5.04h0c-1.65-1.1-3.85-.87-5.23.56l-8.29,8.61-4.29,10.73-13.61-2.69-.7,10.92,17.92.52Z"/>
    <path class="cls-5" d="m1004.36,2811.33s-.08,0-.12-.02c-.36-.08-.59-.45-.5-.81l3.24-14.04c.08-.36.44-.59.81-.5.36.08.59.45.5.81l-3.24,14.04c-.07.32-.37.53-.68.52Z"/>
    <path class="cls-5" d="m999.19,2810.64s-.02,0-.03,0c-.37-.03-.64-.36-.61-.73l.81-8.75c.03-.37.4-.65.73-.61.37.03.64.36.61.73l-.81,8.75c-.03.36-.34.62-.7.61Z"/>
    <path class="cls-5" d="m992.8,2809.95h0c-.37-.02-.66-.33-.64-.7l.26-5.48c.02-.37.33-.66.7-.64.31,0,.66.33.64.7l-.26,5.48c-.02.37-.33.66-.7.64Z"/>
  </g>
  <path class="cls-2" d="m982.79,2882.32c5.93-2.61,12.86.01,15.59,5.89l42.74,92.02c2.64,6.02-.09,13.05-6.12,15.69h0c-6.02,2.65-13.05-.09-15.69-6.12l-42.53-91.56c-2.81-6.05-.1-13.23,6.01-15.92h0Z"/>
  <path class="cls-8" d="m974.33,2938.9l40.55-19.17,26.28,58.89c3.45,7.72,2.5,16.7-2.48,23.53h0c-4.68,6.42-14.22,6.56-19.09.28l-45.26-63.53Z"/>
  <polygon class="cls-8" points="1057.16 2969.05 1020.3 2973.37 1017.14 3083.06 1113.87 3082.4 1108.98 2973.1 1071.07 2969.18 1057.16 2969.05"/>
  <path class="cls-5" d="m1052.62,3127.41l24.08-7.23c.36-.11.56-.48.45-.84s-.48-.56-.84-.45l-24.08,7.23c-.36.11-.56.48-.45.84s.48.56.84.45Z"/>
  <path class="cls-8" d="m1025.2,3346.96l-4.09,11.34c-1.07,2.97-1.7,6.09-1.86,9.24l-1.85,35.74c-.43,8.39,12.92,17.63,20.2,18.01l1.79.03c7.28.38,17.42-7.59,17.86-15.97l-.13-6.45c-.17-8.37.36-16.73,1.6-25l.25-1.65c.26-4.99-.66-9.98-2.67-14.56l-3.71-8.45-27.37-2.26Z"/>
  <g>
    <path class="cls-2" d="m1201.31,3044.34l17.99-24.43c.93-1.24.63-3-.66-3.87h0c-1.18-.79-2.76-.54-3.64.58l-2.15,2.85-15.98,21.17,4.43,3.7Z"/>
    <path class="cls-2" d="m1201.32,3036.26l15.58-22.5c.98-1.25.77-3.05-.47-4.05h0c-1.24-1-3.06-.81-4.07.43l-2.86,3.55-14.32,18.15,6.13,4.42Z"/>
    <path class="cls-2" d="m1195.92,3034.76l16.55-25.34c1.02-1.25.9-3.08-.28-4.19h0c-1.28-1.21-3.32-1.1-4.47.24l-2.76,3.47-14.13,17.48,5.08,8.33Z"/>
    <path class="cls-2" d="m1194.01,3033.26l12.57-27.19c.76-1.37.33-3.09-.99-3.94h0c-1.42-.91-3.31-.46-4.16.99l-5.26,9.67-7.18,16.5,5.02,3.95Z"/>
    <path class="cls-2" d="m1184.37,3033.1s3.24-9.71,3.83-14.77c.37-3.2,1.08-8.79,1.55-12.46.25-1.98,2.11-3.35,4.08-3h0c1.94.34,3.35,2.02,3.36,3.98l.03,11.84-4.28,10.62,11.58,7.39-6.97,8.3-13.18-11.9Z"/>
    <path class="cls-5" d="m1205.91,3019.6s.02.01.03.02c.31.2.72.12.92-.18l4.83-7.24c.2-.31.09-.75-.18-.92-.31-.2-.72-.12-.92.18l-4.83,7.24c-.2.3-.13.69.16.9Z"/>
    <path class="cls-5" d="m1211.31,3021.52h0c.3.22.71.16.93-.14l3.24-4.37c.22-.29.16-.71-.14-.93-.24-.19-.71-.16-.93.14l-3.24,4.37c-.22.29-.16.71.14.93Z"/>
    <path class="cls-5" d="m1200.39,3015.99s.02.01.03.02c.31.2.72.12.92-.18l4.83-7.24c.2-.31.09-.75-.18-.92-.31-.2-.72-.12-.92.18l-4.83,7.24c-.2.3-.13.69.16.9Z"/>
  </g>
  <path class="cls-2" d="m1201.19,3031.93c3.3,4.13,2.96,10.04-.76,13.28l-42.13,35.77c-4.46,3.73-11.23,2.8-15.11-2.08h0c-3.89-4.88-3.42-11.85,1.04-15.58l44.13-33.29c3.84-3.06,9.54-2.22,12.83,1.9h0Z"/>
  <path class="cls-8" d="m1088.17,3191.22l2.45,34.82,56.65-15.82c2.75-.58,4.51-3.28,3.93-6.02l-.88-4.2c-1.18-5.62-6.13-9.57-11.65-9.3l-5.36.93-16.52-6.43-28.62,6.02Z"/>
  <path class="cls-8" d="m1113.4,3187.72l.45-9.22c.14-2.87,2.54-5.01,5.33-4.76h0c3.86.36,5.97,4.9,3.79,8.14l-4.27,6.32-5.29-.48Z"/>
  <path class="cls-5" d="m1024.09,3201.63h0c7.97-1.23,16.08-1.28,24.06-.15l1.08.15c.37,0,.67-.3.67-.67s-.3-.67-.67-.67l-1.08-.15c-7.98-1.13-16.09-1.08-24.06.15h0c-.37,0-.67.3-.67.67s.3.67.67.67Z"/>
  <polygon class="cls-10" points="1002 4675 857 4800 887 4962 1063 5003.96 1254 4910 1002 4675"/>
  <path class="cls-9" d="m1183.98,4866.21c-6.89-3.34-12.61-8.68-16.41-15.32-4.23-7.39-11.18-16.49-19.57-15.89-14,1-59,13-46,52s77.52,70.29,114.14,26.64c2.09-2.49,3.85-5.23,5.24-8.17,4.57-9.67,11.85-31.47-15.39-31.47-4.84,0-14.31-4.05-22.02-7.79Z"/>
  <g>
    <rect class="cls-4" x="1210.96" y="4867.82" width="19.66" height="54.66" transform="translate(2752.71 9702.03) rotate(176.33)"/>
    <path class="cls-1" d="m1199.34,4910.91v96.14c0,8.62,10.07,15.6,22.5,15.6h0c12.42,0,22.5-6.98,22.5-15.6v-96.14s-44.99,0-44.99,0Z"/>
    <g>
      <path class="cls-4" d="m1198.68,4910.9l-1.62-25.36c-.07-1.3-1.21-2.27-2.5-2.13h0c-1.18.13-2.06,1.15-2.02,2.33l.16,2.98,1.15,22.19h4.84Z"/>
      <path class="cls-4" d="m1194.33,4905.71l-2.12-22.83c-.05-1.33-1.15-2.37-2.48-2.35h0c-1.34.03-2.4,1.13-2.38,2.47l.08,3.82.59,19.36,6.31-.47Z"/>
      <path class="cls-4" d="m1190.06,4907.66l-3.03-25.18c-.02-1.35-1.08-2.46-2.44-2.54h0c-1.48-.09-2.72,1.08-2.73,2.56l.1,3.71.36,18.83,7.75,2.61Z"/>
      <path class="cls-4" d="m1188.02,4907.73l-6.58-24.22c-.25-1.29-1.45-2.16-2.75-1.99h0c-1.4.18-2.37,1.49-2.14,2.88l1.83,9.04,4.28,14.46,5.35-.17Z"/>
      <path class="cls-4" d="m1181.75,4912.82s-3.15-7.97-5.5-11.54c-1.49-2.25-4.04-6.22-5.72-8.83-.9-1.41-.45-3.28,1-4.12h0c1.42-.83,3.24-.51,4.3.75l6.4,7.58,2.98,9.12,11.42-1.5v9.08s-14.87-.53-14.87-.53Z"/>
      <path class="cls-3" d="m1188.3,4892.55s.02,0,.03,0c.31-.03.53-.31.49-.62l-.81-7.25c-.03-.31-.34-.53-.62-.49-.31.03-.53.31-.49.62l.81,7.25c.03.3.29.51.59.5Z"/>
      <path class="cls-3" d="m1192.8,4890.88h0c.31-.02.54-.28.52-.59l-.27-4.55c-.02-.31-.28-.54-.59-.52-.26,0-.54.28-.53.59l.27,4.55c.02.31.28.54.59.52Z"/>
      <path class="cls-3" d="m1182.81,4893.21s.02,0,.03,0c.31-.03.53-.31.49-.62l-.81-7.25c-.03-.31-.34-.53-.62-.49-.31.03-.53.31-.49.62l.81,7.25c.03.3.29.51.59.5Z"/>
    </g>
    <g>
      <path class="cls-4" d="m1136.58,4889.73l15.29-19.22c.77-.99,2.21-1.13,3.16-.3h0c.87.75,1,2.05.31,2.97l-1.77,2.28-13.16,16.96-3.83-2.68Z"/>
      <path class="cls-4" d="m1142.89,4888.02l14.29-16.94c.77-1.03,2.22-1.25,3.26-.49h0c1.05.76,1.28,2.22.53,3.27l-2.17,2.98-11.16,15.03-4.75-3.85Z"/>
      <path class="cls-4" d="m1145.21,4891.92l16.3-18.3c.76-1.06,2.22-1.36,3.33-.67h0c1.22.75,1.56,2.36.75,3.54l-2.13,2.89-10.68,14.74-7.59-2.2Z"/>
      <path class="cls-4" d="m1146.78,4893.1l18.59-15.58c.91-.88,2.34-.91,3.28-.06h0c1.01.92,1.06,2.49.1,3.46l-6.45,6.16-11.38,9.1-4.15-3.09Z"/>
      <path class="cls-4" d="m1143.21,4895.72s8.27.51,12.25,1.61c2.52.7,6.92,1.86,9.82,2.62,1.56.41,3.15-.57,3.49-2.15h0c.33-1.56-.5-3.13-1.97-3.73l-8.88-3.62h-9.27s-2.04-10.95-2.04-10.95l-4.7,4.24,1.29,11.98Z"/>
      <path class="cls-3" d="m1154.94,4880.9s-.01-.01-.02-.02c-.22-.2-.25-.54-.05-.76l4.64-5.3c.2-.22.57-.23.76-.05.22.2.25.54.05.76l-4.64,5.3c-.19.22-.52.25-.74.07Z"/>
      <path class="cls-3" d="m1152.29,4877.09h0c-.23-.19-.27-.53-.09-.76l2.73-3.45c.18-.23.52-.27.76-.09.2.15.28.52.09.76l-2.73,3.45c-.18.23-.52.27-.76.09Z"/>
      <path class="cls-3" d="m1158.93,4884.46s-.01-.01-.02-.02c-.22-.2-.25-.54-.05-.76l4.64-5.3c.2-.22.57-.23.76-.05.22.2.25.54.05.76l-4.64,5.3c-.19.22-.52.25-.74.07Z"/>
    </g>
    <path class="cls-1" d="m1144.54,5091.32s-35.93-13.14-76.52-9.82c-6.91.57-12.31,1-16.51,1.32-8.2.63-14.04,11.23-13.02,23.64h0c1.01,12.38,8.47,21.88,16.65,21.21l45.9-3.76,45.01-4.87-1.5-27.72Z"/>
    <path class="cls-1" d="m1186.09,5103.53s30.67-30.65,49.37-74.02c3.19-7.39,5.68-13.15,7.64-17.63,3.81-8.75-2.38-19.86-13.81-24.79h0c-11.41-4.92-23.71-1.82-27.48,6.93l-21.15,49.05-19.7,48.66,25.13,11.8Z"/>
    <rect class="cls-4" x="954.06" y="5100.36" width="19.66" height="54.66" transform="translate(5396.63 2375.76) rotate(68.81)"/>
    <path class="cls-1" d="m954.1,5117.57l92.74-33.4c8.31-2.99,18.46,4.06,22.67,15.74h0c4.21,11.69.89,23.59-7.43,26.59l-92.74,33.4-15.25-42.33Z"/>
    <path class="cls-1" d="m1167.79,5115.3h0c21.92-7.92,34.62-30.43,24.83-46.06l-12.65-16.56-62.3,22.51,1.15,22.09c3.05,17.8,27.46,25.8,48.98,18.03Z"/>
    <path class="cls-3" d="m1186.3,5061.72l-66.99,24.21c-.31.11-.65-.05-.76-.36s.05-.65.36-.76l66.99-24.21c.31-.11.65.05.76.36s-.05.65-.36.76Z"/>
    <path class="cls-3" d="m1148.54,5119.02l-21.71-4.65c-.32-.07-.53-.38-.46-.7s.38-.53.7-.46l21.71,4.65c.32.07.53.38.46.7s-.38.53-.7.46Z"/>
    <path class="cls-4" d="m1203.24,4969.87c4.95,2.13,7.28,7.82,5.26,12.81l-31.69,78.12c-2.16,5.02-7.98,7.34-13,5.18h0c-5.02-2.16-7.34-7.98-5.18-13l31.53-77.74c2.08-5.14,7.99-7.56,13.08-5.37h0Z"/>
    <path class="cls-4" d="m1188.95,4902.69c4.59-.64,8.85,2.51,9.57,7.09l10.68,67.15c.75,5.41-3.02,10.41-8.44,11.17h0c-5.41.75-10.41-3.02-11.17-8.44l-7.91-67.55c-.54-4.59,2.69-8.77,7.27-9.41h0Z"/>
    <path class="cls-8" d="m1201.5,5040.15l-35.94-17.43-13.22,34.12c-2.93,6.39-2.21,13.85,1.87,19.57h0c3.84,5.38,11.76,5.57,15.86.39l31.43-36.65Z"/>
    <path class="cls-4" d="m1109.2,4942.11c-5.38,0-9.78,4.3-9.9,9.68l-1.83,84.28c0,5.47,4.42,9.9,9.89,9.9h0c5.47,0,9.9-4.42,9.9-9.89l1.82-83.87c.12-5.54-4.34-10.11-9.88-10.11h0Z"/>
    <path class="cls-4" d="m1148.92,4886.09c-3.96-2.4-9.12-1.2-11.6,2.72l-36.39,57.44c-2.83,4.67-1.34,10.76,3.33,13.59h0c4.67,2.84,10.76,1.35,13.6-3.33l34.01-58.9c2.31-4,1-9.12-2.95-11.52h0Z"/>
    <path class="cls-8" d="m1083.11,5011.62l39.91,1.79-3.57,40.27c-.47,7.01-4.65,13.24-10.97,16.32h0c-5.94,2.9-12.99-.7-14.13-7.21l-11.24-51.17Z"/>
    <path class="cls-8" d="m1146.5,5055.93l27.01,14.72-3.93,11.19c-4.3,10.7-16.62,15.69-27.15,11l-35.44-12.21c-10.59-4.72-15.09-17.32-9.91-27.68l8.83-11.63,29.94,10.12,10.65,4.49Z"/>
    <ellipse class="cls-4" cx="1137.81" cy="5054.46" rx="20.58" ry="19.2" transform="translate(-3954.11 4098.11) rotate(-66.68)"/>
    <path class="cls-4" d="m1152.1,5061.84c2.5-1.7,5.75-1.26,7.27.98,1.52,2.24.72,5.43-1.78,7.12s-5.75,1.26-7.27-.98c-1.52-2.24-.72-5.43,1.78-7.12Z"/>
    <path class="cls-4" d="m1122.79,5049.2c-.48-2.98-3.04-5.05-5.71-4.61-2.67.43-4.44,3.2-3.96,6.18s3.04,5.05,5.71,4.61c2.67-.43,4.44-3.2,3.96-6.18Z"/>
    <path class="cls-3" d="m1155.44,5062.06c4.5-10.44-2.59-15.7-12.33-19.9s-18.43-5.74-22.93,4.7c-4.5,10.44-.26,22.3,9.48,26.5s21.28-.86,25.78-11.3Z"/>
    <rect class="cls-3" x="1120.04" y="5057.23" width="36.79" height="57.52" transform="translate(-168.55 40.68) rotate(-1.91)"/>
    <polygon class="cls-4" points="1147.55 5031.44 1142.95 5034.86 1148.53 5037.27 1147.55 5031.44"/>
    <g>
      <path class="cls-6" d="m1209.78,4892.55l-24.3-26.24,71.66-49.52,5.46,7.9c3.34,4.83,2.66,11.38-1.61,15.42l-14.95,14.16-18.75,25.14-17.51,13.13Z"/>
      <path class="cls-6" d="m1225.77,4878.71l7.93,5.23c2.47,1.63,5.8.92,7.38-1.58h0c2.2-3.46-.2-8-4.29-8.13l-7.99-.26-3.02,4.73Z"/>
    </g>
    <path class="cls-6" d="m946.72,5148.24l-20.3,8.09-18.51-53.91c-.72-2.11.29-4.42,2.33-5.31l5.18-2.27c5.38-2.36,6.96-.87,10.12,4.08l4.22,13.91,11.84,12.19,5.12,23.22Z"/>
    <path class="cls-6" d="m937.13,5129.58l6.65-6.78c2.07-2.11,2.01-5.51-.14-7.55h0c-2.98-2.82-7.89-1.33-8.8,2.67l-1.78,7.8,4.07,3.87Z"/>
  </g>
  <path class="cls-10" d="m2329.01,4169.12c-2.06,12.26-4.91,24.64-13.67,36.6-8.87,11.81-23.81,23.31-34.71,20.09-10.91-3.22-17.89-21.31-23.71-35.87s-10.39-25.46-10.35-37.82c.04-12.37,4.88-25.92,14.31-32.28,9.43-6.36,23.79-5.33,36.72-2,12.93,3.33,24.18,8.91,29.49,17.76,5.06,8.81,3.89,21.11,1.93,33.52"/>
  <path class="cls-10" d="m2049.3,4345.29c10.3,6.57,20.78,16.87,19.18,25.76-1.42,8.88-14.92,16.16-25.22,24.51-10.3,8.35-17.76,17.58-27,19.54-9.24,1.95-20.43-3.55-30.73-11.9-10.48-8.35-20.07-19.54-18.12-28.77,1.95-9.24,15.28-16.52,25.76-23.27,10.48-6.57,17.76-12.43,26.64-14.03,8.88-1.24,19.18,1.6,29.49,8.17"/>
  <path class="cls-10" d="m2057.75,3987.24c13.14,8.7,27.89,20.43,29.13,33.57,1.42,12.97-10.48,27.53-23.62,41.03-13.14,13.5-27.53,26.29-39.61,23.8-12.08-2.49-21.67-19.89-28.6-33.57-6.93-13.5-11.19-23.09-11.37-32.86,0-9.59,4.09-19.36,11.01-28.06,6.93-8.7,16.7-16.34,27.35-17.41,10.83-.89,22.56,4.8,35.7,13.5"/>
  <path class="cls-10" d="m1826.66,3831.66c10.12,4.97,23.27,12.26,25.4,21.49,2.13,9.41-6.39,20.96-16.52,29.31-10.12,8.35-21.67,13.68-31.26,11.72s-17.41-11.01-22.56-19.36c-5.15-8.35-7.99-16.16-11.01-27s-6.39-24.69-1.24-29.66,19.18-1.24,29.66,2.13c10.48,3.37,17.41,6.39,27.53,11.37"/>
  <path class="cls-4" d="m2011.81,3910.88h5.38c2.07,0,3.74,1.68,3.74,3.74v23.45c0,2.06-1.68,3.74-3.74,3.74h-5.38c-2.06,0-3.74-1.68-3.74-3.74v-23.45c0-2.06,1.68-3.74,3.74-3.74Z"/>
  <path class="cls-4" d="m2011.81,3910.82h5.38c2.07,0,3.74,1.68,3.74,3.74v23.45c0,2.06-1.68,3.74-3.74,3.74h-5.38c-2.06,0-3.74-1.68-3.74-3.74v-23.45c0-2.06,1.68-3.74,3.74-3.74Z"/>
  <path class="cls-4" d="m2004.71,3896.85c4-10.32,14.56-14.57,24.19-10.84s12.24,13.73,8.23,24.05-10.54,16.35-19.85,11.88c-9.55-4.59-16.58-14.77-12.58-25.09Z"/>
  <polygon class="cls-4" points="2035.36 3911.18 2039.7 3912.91 2033.19 3916.33 2035.36 3911.18"/>
  <path class="cls-8" d="m2028.57,3885.88c-9.71-3.76-20.17-2.78-25.03,9.77-3.12,8.06-.51,15.37,3.65,18.64l9.42-12.96c6.43-.08,13.41-5.9,13.41-5.9l-2.65,3.72c4.23.61,8.29-2.21,10.54-4.17-1.52-4.01-4.61-7.26-9.33-9.09Z"/>
  <path class="cls-4" d="m2017.84,3903.1c-.58-2.88-3.14-4.8-5.72-4.28-2.58.52-4.21,3.27-3.63,6.16.58,2.88,3.14,4.8,5.72,4.28,2.58-.52,4.21-3.27,3.63-6.16Z"/>
  <rect class="cls-4" x="2009.17" y="4260.01" width="25.58" height="72.07" transform="translate(-1367.15 970.65) rotate(-20.34)"/>
  <path class="cls-6" d="m2041.13,4309.36l16.3,27.48-54.26,41.04c-1.74,1.13-14.42,2.79-15.55,1.05l-3.48-5.35c-3.38-5.2-2.46-12.09,2.16-16.23l15.43-8.69,20.53-25.97,18.87-13.33Z"/>
  <path class="cls-6" d="m2021.96,4324.28l-8.21-5.76c-2.56-1.79-6.09-1.14-7.84,1.44h0c-2.42,3.58-.03,8.44,4.29,8.71l8.43.51,3.33-4.91Z"/>
  <rect class="cls-4" x="2259.3" y="4150.37" width="25.58" height="72.07" transform="translate(-2165.03 2454.23) rotate(-40.19)"/>
  <path class="cls-6" d="m2278.6,4216.55l26.59,26.79,42.48-60.93c1.33-1.91.92-4.53-.94-5.94l-4.76-3.59c-4.95-3.74-11.89-3.31-16.34,1.01l-14.97,17.01-17.44,7.76-14.62,17.88Z"/>
  <path class="cls-6" d="m2294.79,4199.12l-5.17-8.59c-1.61-2.68-.71-6.15,1.99-7.72h0c3.75-2.17,8.43.56,8.38,4.89l-.08,8.44-5.13,2.98Z"/>
  <g id="_왼쪽_종아리" data-name="왼쪽 종아리">
    <path class="cls-3" d="m2038.96,4302.89l-33.56-142.41c-3.01-12.76-14.31-21.02-25.23-18.45h0c-10.93,2.58-17.35,15.01-14.34,27.77l33.56,142.41,39.57-9.33Z"/>
  </g>
  <g id="_왼쪽_허벅지" data-name="왼쪽 허벅지">
    <path class="cls-3" d="m2024.65,4037.57c10.73,3.32,16.41,15.75,12.69,27.77l-31.95,103.32c-3.47,11.21-14.97,17.61-25.7,14.29h0c-10.73-3.32-16.61-15.09-13.15-26.3l31.95-103.32c3.72-12.02,15.42-19.08,26.15-15.76h0Z"/>
  </g>
  <g id="_오른쪽_종아리" data-name="오른쪽 종아리">
    <path class="cls-3" d="m2282.9,4168.04l-94.41-111.78c-8.46-10.02-22.39-12.17-31.12-4.8h0c-8.72,7.37-8.94,21.46-.48,31.48l94.41,111.78,31.59-26.68Z"/>
  </g>
  <g id="_오른쪽_허벅지" data-name="오른쪽 허벅지">
    <path class="cls-3" d="m2040.14,4061.43c.57-11.41,11.4-20.13,24.18-19.49l107.62,5.42c11.72.59,20.75,10.31,20.18,21.72h0c-.57,11.41-10.54,20.17-22.26,19.58l-107.62-5.42c-12.78-.64-22.68-10.41-22.1-21.82h0Z"/>
  </g>
  <g id="_코어" data-name="코어">
    <g id="_코어-2" data-name="코어">
      <rect class="cls-3" x="1993.21" y="4015.65" width="87.85" height="70.37" rx="21.05" ry="21.05" transform="translate(4949.18 7526.33) rotate(166.74)"/>
    </g>
    <path class="cls-7" d="m2055.57,4083.28l-22.81,5.38c-.34.08-.67-.13-.75-.47s.13-.67.47-.75l22.81-5.38c.34-.08.67.13.75.47s-.13.67-.47.75Z"/>
  </g>
  <g id="_오른쪽_손" data-name="오른쪽 손">
    <g>
      <path class="cls-4" d="m2126.72,4084.59s7.84,19.62,3.75,35.29c-3.44,13.16-10.5,17.8-13.97,19.06-.88.32-1.86.01-2.4-.75h0c-.9-1.27-.78-3,.29-4.14,1.28-1.38,3.01-3.59,4.61-6.81,3.06-6.13,1.5-17.52,1.5-17.52l-4.4-18.73,10.62-6.41Z"/>
      <path class="cls-4" d="m2110.55,4091.43s3.71,14.93,4.67,22.91c.96,7.98,3.19,8.26,5.7,7.83,3.98-.68,3.28-8.34,2.7-13.12-.58-4.78,1.49-5.57,1.49-5.57l-8.71-17.52-5.86,5.46Z"/>
      <path class="cls-4" d="m2121.92,4087.24s7.92,16.81,5.08,33.91c-2.22,13.37-10.45,17.77-13.93,19.05-.9.33-1.9.01-2.45-.76h0c-.89-1.26-.77-2.96.28-4.08,1.28-1.37,3.02-3.6,4.64-6.84,3.06-6.13,1.5-17.52,1.5-17.52l-4.4-18.73,9.29-5.03Z"/>
      <path class="cls-4" d="m2125.5,4089.05s3.23,16.26-1.67,30.99c-3.44,10.36-9.35,13.45-12.56,14.37-1.21.35-2.47-.31-2.91-1.49h0c-.35-.95-.05-2.01.73-2.64,1.19-.96,3.02-2.71,4.95-5.61,3.28-4.94,3.95-15.32,3.95-15.32l-.28-17.38,7.77-2.92Z"/>
      <path class="cls-4" d="m2124.98,4084.66s3.23,16.26-1.67,30.99c-3.69,11.11-10.22,13.86-13.21,14.54-.87.2-1.75-.29-2.06-1.13h0c-.46-1.24-.08-2.64.92-3.5,1.18-1.01,3.38-2.4,4.56-5.29,4.48-10.93-2.56-12.56-3.6-21.15-1.65-13.71,7.27-11.55,7.27-11.55l7.77-2.92Z"/>
      <path class="cls-3" d="m2110.32,4130.78l-.08.02c-.57.13-2.32.52-2.86-.94-.12-.32.05-.69.37-.8.32-.12.68.05.8.37.06.15.16.43,1.4.15l.07-.02c2.68-.63,8.89-3.31,10.49-14.65.05-.34.37-.58.71-.53s.58.37.53.71c-1.7,12.1-8.51,15-11.44,15.69Z"/>
      <path class="cls-3" d="m2110.8,4135.57c-.32.08-.65-.11-.75-.44-.1-.33.1-.68.43-.78,3.1-.89,10.53-4.08,12.74-14.45.25-1.16.34-2.72.44-4.51.04-.65.08-1.34.13-2.06.03-.34.33-.61.67-.58.35.02.61.32.58.67-.05.71-.09,1.39-.13,2.04-.11,1.85-.2,3.45-.47,4.7-2.35,11.03-10.31,14.44-13.62,15.39h-.03Z"/>
      <path class="cls-3" d="m2113.61,4141.17c-.3.07-.62-.09-.73-.39-.12-.32.05-.69.37-.8,2.5-.92,10.81-5,13.13-18.93.4-2.4.6-4.94.61-7.55,0-.35.28-.63.63-.63.35,0,.63.28.63.63,0,2.67-.21,5.28-.63,7.75-2.43,14.6-11.28,18.92-13.93,19.9-.02,0-.05.02-.07.02Z"/>
    </g>
  </g>
  <g id="_오른쪽_손-2" data-name="오른쪽 손">
    <g>
      <path class="cls-4" d="m1863.11,3857.34s-12.77-16.83-28.3-21.41c-13.05-3.84-20.66-.18-23.54,2.14-.73.59-.97,1.59-.6,2.44h0c.62,1.43,2.17,2.21,3.69,1.89,1.84-.39,4.63-.73,8.22-.44,6.83.54,15.78,7.75,15.78,7.75l13.77,13.43,10.97-5.79Z"/>
      <path class="cls-4" d="m1848.91,3867.66s-10.88-10.88-17.22-15.82c-6.34-4.94-5.43-6.99-3.77-8.92,2.64-3.06,8.84,1.49,12.63,4.45,3.8,2.96,5.54,1.59,5.54,1.59l10.52,16.49-7.7,2.21Z"/>
      <path class="cls-4" d="m1858.36,3860.08s-10.31-15.45-26.44-21.84c-12.6-4.99-20.61-.21-23.51,2.11-.74.6-.99,1.62-.61,2.5h0c.62,1.41,2.14,2.18,3.64,1.86,1.84-.39,4.64-.73,8.25-.45,6.83.54,15.78,7.75,15.78,7.75l13.77,13.43,9.1-5.37Z"/>
      <path class="cls-4" d="m1858.65,3856.08s-12.27-11.15-27.41-14.55c-10.65-2.39-16.35,1.08-18.79,3.35-.92.85-1.01,2.28-.22,3.26h0c.63.79,1.7,1.08,2.64.74,1.43-.53,3.88-1.19,7.36-1.35,5.92-.27,15.16,4.52,15.16,4.52l14.75,9.2,6.51-5.16Z"/>
      <path class="cls-4" d="m1862.15,3858.8s-12.27-11.15-27.41-14.55c-11.42-2.57-17.14,1.61-19.26,3.82-.62.64-.66,1.65-.1,2.35h0c.83,1.03,2.22,1.43,3.47,1.01,1.47-.49,3.8-1.66,6.88-1.18,11.67,1.8,9.44,8.67,16.27,13.99,10.89,8.48,13.64-.27,13.64-.27l6.51-5.16Z"/>
      <path class="cls-3" d="m1815.08,3847.57l-.06.06c-.41.42-1.64,1.72-.66,2.93.22.27.61.31.88.1.27-.21.31-.61.1-.88-.1-.13-.29-.36.59-1.28l.05-.05c1.92-1.97,7.43-5.91,17.96-1.43.32.14.69-.01.82-.33s-.01-.69-.33-.82c-11.24-4.78-17.24-.45-19.35,1.71Z"/>
      <path class="cls-3" d="m1811.22,3844.69c-.23.24-.24.62-.01.86.24.25.63.27.89.03,2.36-2.19,8.93-6.92,18.95-3.47,1.12.39,2.5,1.11,4.1,1.95.58.3,1.19.62,1.83.95.31.15.69.03.84-.27.16-.31.04-.69-.27-.84-.63-.32-1.24-.64-1.82-.94-1.64-.86-3.06-1.61-4.27-2.03-10.67-3.68-17.69,1.39-20.21,3.73l-.02.02Z"/>
      <path class="cls-3" d="m1807.87,3839.39c-.22.22-.24.58-.04.83.22.27.61.31.88.1,2.07-1.66,9.86-6.69,22.99-1.49,2.26.9,4.55,2.03,6.78,3.37.3.18.68.08.86-.21.18-.3.08-.68-.22-.86-2.29-1.38-4.64-2.54-6.97-3.46-13.76-5.45-22.03-.09-24.23,1.68-.02.02-.04.03-.06.05Z"/>
    </g>
  </g>
  <g id="_오른쪽_하박_팔" data-name="오른쪽 하박 팔">
    <path class="cls-4" d="m2122.99,4105.05c4.96-1.56,7.75-6.8,6.28-11.79l-21.54-73.15c-1.85-5.84-8.08-9.09-13.92-7.24h0c-5.85,1.84-9.09,8.08-7.24,13.93l24.53,72.23c1.67,4.91,6.95,7.59,11.9,6.03h0Z"/>
  </g>
  <g id="_오른쪽_하박_팔-2" data-name="오른쪽 하박 팔">
    <path class="cls-4" d="m1843.65,3849.98c3.89-3.44,9.83-3.13,13.34.7l51.57,56.18c4.06,4.6,3.62,11.61-.97,15.67h0c-4.6,4.06-11.61,3.62-15.67-.97l-49.24-58.26c-3.35-3.96-2.92-9.87.97-13.3h0Z"/>
  </g>
  <g id="_오른쪽_상박_팔" data-name="오른쪽 상박 팔">
    <path class="cls-4" d="m2101.89,4033.24c5.45-2.59,7.84-9.06,5.36-14.57l-38.75-86.25c-2.63-5.54-9.25-7.89-14.79-5.26h0c-5.54,2.63-7.9,9.25-5.27,14.79l38.56,85.82c2.55,5.67,9.26,8.14,14.88,5.48h0Z"/>
  </g>
  <g id="_오른쪽_상박_팔-2" data-name="오른쪽 상박 팔">
    <path class="cls-4" d="m1890.39,3909.62c2.57-5.46,9.04-7.86,14.56-5.41l86.36,38.5c5.54,2.61,7.92,9.23,5.31,14.77h0c-2.61,5.55-9.23,7.92-14.77,5.31l-85.93-38.3c-5.68-2.53-8.17-9.24-5.52-14.87h0Z"/>
  </g>
  <g id="_오른쪽_소매" data-name="오른쪽 소매">
    <path class="cls-1" d="m2065.32,4007.44l38.54-22.84-31.76-51.02c-4.17-6.69-11.59-10.64-19.47-10.36h0c-7.4.27-12.49,7.56-10.17,14.6l22.87,69.62Z"/>
  </g>
  <g id="_오른쪽_소매-2" data-name="오른쪽 소매">
    <path class="cls-1" d="m1916.3,3946.12l22.73-38.61,51.11,31.62c6.7,4.15,10.68,11.56,10.41,19.44h0c-.24,7.4-7.52,12.51-14.57,10.22l-69.68-22.66Z"/>
  </g>
  <g id="_몸통" data-name="몸통">
    <polygon class="cls-1" points="2016.05 3926.88 2050.55 3923.53 2080.5 4037.77 1992.6 4057.76 1970.04 3942.21 2003.47 3930 2016.05 3926.88"/>
  </g>
  <g>
    <path class="cls-10" d="m1927.36,2083.38l13.22-66.7c1.23-6.23,4.75.82,7.13,14.28l44.34,251.12c2.64,14.96,2.23,28.33-.77,25.16l-37.1-39.19c-1.93-2.04-4.3-10.52-5.69-20.39l-20.46-145.23c-1.13-8.03-1.39-15.41-.67-19.04Z"/>
    <path class="cls-10" d="m2186.09,2252.83l-31.12,60.45c-2.91,5.65-4.34-2.1-2.91-15.69l26.7-253.6c1.59-15.11,5.67-27.84,7.68-23.97l24.84,47.91c1.3,2.5,1.23,11.3-.16,21.17l-20.42,145.24c-1.13,8.03-2.92,15.2-4.61,18.49Z"/>
    <path class="cls-10" d="m1761.39,2266.66l-30.2,8.94c-2.82.83-3.82-2.59-2.03-6.95l33.44-81.2c1.99-4.84,6.13-7.76,7.79-5.5l20.52,27.92c1.07,1.46.68,4.63-.93,7.65l-23.76,44.34c-1.31,2.45-3.19,4.31-4.83,4.8Z"/>
    <rect class="cls-3" x="1828.16" y="2211.42" width="18.15" height="43.62" transform="translate(-1017.9 1773.96) rotate(-41.42)"/>
    <rect class="cls-4" x="1828.64" y="2220.63" width="13.21" height="31.82" rx="3.01" ry="3.01" transform="translate(-1020.59 1773.47) rotate(-41.42)"/>
    <path class="cls-4" d="m1806.95,2227.82c-7.52-8.52-6.41-20.16,1.55-27.17s18.29-4.67,25.81,3.85c7.52,8.52,9.93,17.33,1.45,23.7-8.7,6.54-21.29,8.13-28.81-.39Z"/>
    <polygon class="cls-4" points="1834.5 2206.65 1838.13 2203.51 1838.17 2211.06 1834.5 2206.65"/>
    <path class="cls-4" d="m1818.87,2218.8c-2.9-.84-5.86.59-6.61,3.19-.75,2.6,1,5.38,3.9,6.22,2.9.84,5.86-.59,6.61-3.19.75-2.6-1-5.38-3.9-6.22Z"/>
    <path class="cls-1" d="m1937.29,2298.13s-4.87-49.6,11.1-101c2.72-8.76,4.83-15.59,6.46-20.92,3.18-10.4,17.44-15.22,31.81-10.75h0c14.34,4.46,23.35,16.47,20.13,26.83l-18.07,58.13-19.11,56.7-32.33-8.99Z"/>
    <rect class="cls-4" x="2096.78" y="2160.27" width="24.24" height="68.28" transform="translate(-387.75 3934.99) rotate(-81.02)"/>
    <path class="cls-6" d="m2131.76,2211.08l26.83,7.79,8.28-52.78c.55-2.83-1.29-5.56-4.12-6.11l-4.31-.84c-5.77-1.13-11.49,2.12-13.49,7.65l.94,13.65-7.01,6.38-7.13,24.27Z"/>
    <path class="cls-6" d="m2138.04,2190.88l-7.97-5.17c-2.48-1.61-3.16-4.94-1.51-7.4h0c2.29-3.4,7.41-3.02,9.17.68l3.44,7.22-3.13,4.67Z"/>
    <path class="cls-1" d="m2114.51,2216.5l-136.43-8.56c-14.66-.92-25.92-11.7-25.14-24.07h0c.78-12.37,13.29-21.66,27.95-20.74l136.43,8.56-2.81,44.81Z"/>
    <path class="cls-1" d="m1968.38,2312.96h0c7.69-22.01-5.22-47.27-27.23-50.82l-24.91-2.06-21.84,62.54,22.2,14.56c19.38,10.14,44.24-2.62,51.78-24.22Z"/>
    <path class="cls-3" d="m1931.82,2262.47l-23.48,67.25c-.11.31-.45.47-.76.36s-.47-.45-.36-.76l23.48-67.25c.11-.31.45-.47.76-.36s.47.45.36.76Z"/>
    <polygon class="cls-8" points="1844.46 2235.29 1869.6 2217.03 1926.96 2260.07 1900.37 2351.6 1817.88 2269.51 1836.5 2243.67 1844.46 2235.29"/>
    <path class="cls-4" d="m1939.13,2137.24c3.98,2.71,5.07,8.11,2.44,12.15l-41.14,63.24c-2.75,4.04-8.26,5.09-12.3,2.34h0c-4.04-2.75-5.09-8.26-2.34-12.31l40.93-62.93c2.71-4.16,8.3-5.28,12.41-2.49h0Z"/>
    <path class="cls-4" d="m1950.41,2063.48c4.13.59,3.27,3.96,2.4,8.77l-9.34,71.47c-1.12,5.66-5.98,9.68-10.85,8.98h0c-4.87-.7-7.9-5.85-6.78-11.5l17.99-70.36c1.04-4.77,2.46-7.95,6.58-7.36h0Z"/>
    <path class="cls-8" d="m1928.58,2202.23l-32.24-23.58-30.68,43.93c-4.02,5.76-4.66,13.23-1.66,19.59h0c2.82,5.98,10.57,7.58,15.53,3.22l49.05-43.16Z"/>
    <path class="cls-4" d="m1756.45,2317.79c-1.66-5.25,1.05-10.86,6.1-12.63l26.47-14.12c5.16-1.68,10.71,1.27,12.39,6.59h0c1.68,5.33-2.05,9.61-6.3,12.69l-26.08,13.99c-5.2,1.82-10.88-1.12-12.59-6.52h0Z"/>
    <path class="cls-4" d="m1738.47,2253.05c3.82-1.61,3.43,1.58,5.11,5.37l29.54,54.14c1.9,4.51-.21,9.7-4.72,11.6h0c-4.51,1.9-9.7-.21-11.6-4.72l-22.45-56.58c-1.53-3.85.3-8.21,4.11-9.82h0Z"/>
    <g>
      <path class="cls-4" d="m1734.6,2263.49s-4.44-12.46-2.76-21.47c1.5-8.03,6.26-10.73,8.33-11.5.53-.2,1.12-.01,1.44.44h0c.55.76.48,1.8-.16,2.49-.76.83-1.8,2.17-2.75,4.11-1.82,3.69-.85,10.53-.85,10.53l2.7,11.24-5.96,4.16Z"/>
      <path class="cls-4" d="m1741.79,2259.62s2.82-8.81,4.85-13.19c2.03-4.38.98-5.23-.44-5.8-2.25-.91-4.31,3.23-5.53,5.85-1.22,2.62-2.52,2.37-2.52,2.37l-1.09,11.71,4.72-.94Z"/>
      <path class="cls-4" d="m1737.08,2261.61s-4.81-10.08-3.16-20.36c1.29-8.04,6.22-10.71,8.31-11.49.54-.2,1.14-.01,1.48.45h0c.54.75.47,1.78-.16,2.45-.77.83-1.8,2.17-2.77,4.12-1.82,3.69-.85,10.53-.85,10.53l2.7,11.24-5.57,3.05Z"/>
      <path class="cls-4" d="m1734.92,2260.53s-1.99-9.76.91-18.63c2.04-6.24,5.58-8.11,7.5-8.67.72-.21,1.49.18,1.75.89h0c.21.57.04,1.21-.43,1.59-.71.58-1.81,1.64-2.96,3.39-1.96,2.98-2.33,9.22-2.33,9.22l.22,10.44-4.66,1.78Z"/>
      <path class="cls-3" d="m1743.67,2232.52c.18-.02.35.09.4.27.06.2-.06.41-.26.47-1.86.54-6.32,2.48-7.61,8.72-.14.7-.19,1.63-.25,2.71-.02.39-.04.81-.07,1.24-.01.21-.19.37-.4.35-.21-.01-.37-.19-.35-.4.03-.43.05-.84.07-1.23.06-1.11.11-2.07.27-2.82,1.38-6.64,6.15-8.71,8.14-9.29.02,0,.05-.01.07-.01Z"/>
      <path class="cls-3" d="m1741.96,2229.17c.17-.02.33.08.39.24.07.2-.03.41-.22.49-1.5.56-6.48,3.04-7.83,11.41-.23,1.44-.35,2.97-.34,4.54,0,.21-.17.37-.38.38-.21,0-.38-.17-.38-.38,0-1.61.11-3.18.35-4.66,1.41-8.78,6.72-11.4,8.31-12,.03-.01.06-.02.1-.02Z"/>
    </g>
    <g>
      <path class="cls-4" d="m1950.86,2079.39s8.31-11.84,9.16-21.82c.76-8.9-3.47-13.13-5.44-14.55-.5-.36-1.17-.34-1.65.05h0c-.8.64-1.02,1.76-.56,2.67.56,1.1,1.26,2.81,1.71,5.13.84,4.42-2.17,11.35-2.17,11.35l-6.12,11.06,5.07,6.12Z"/>
      <path class="cls-4" d="m1944.41,2073.22s-.41-10.1-1.28-15.31c-.87-5.21.49-5.8,2.15-5.99,2.64-.3,3.61,4.65,4.13,7.77.52,3.12,1.97,3.24,1.97,3.24l-2.26,12.65-4.71-2.36Z"/>
      <path class="cls-4" d="m1948.8,2076.69s8-9.22,9.25-20.54c.98-8.85-3.44-13.1-5.42-14.53-.51-.37-1.2-.35-1.69.05h0c-.79.64-1.01,1.73-.55,2.63.57,1.1,1.27,2.81,1.72,5.15.84,4.42-2.17,11.35-2.17,11.35l-6.12,11.06,4.98,4.84Z"/>
      <path class="cls-4" d="m1951.39,2076.18s4.94-9.71,4.47-19.9c-.33-7.17-3.52-10.17-5.38-11.33-.7-.43-1.62-.24-2.1.42h0c-.39.54-.39,1.26,0,1.8.58.82,1.43,2.25,2.13,4.43,1.2,3.71-.23,10.39-.23,10.39l-3.27,10.94,4.4,3.23Z"/>
      <path class="cls-3" d="m1950.32,2044.11c-.18-.07-.39,0-.5.17-.12.19-.06.45.13.57,1.8,1.11,5.93,4.45,5.49,11.41-.05.78-.27,1.77-.53,2.93-.09.42-.19.86-.29,1.33-.05.22.09.44.32.49.22.05.44-.1.49-.32.1-.46.19-.9.29-1.32.26-1.19.49-2.21.54-3.05.48-7.4-3.95-10.97-5.87-12.16-.02-.01-.05-.03-.07-.03Z"/>
      <path class="cls-3" d="m1953.1,2041.07c-.17-.06-.37-.01-.48.14-.13.18-.09.44.09.58,1.41,1.03,5.95,5.09,4.94,14.31-.18,1.59-.5,3.23-.96,4.88-.06.22.07.44.29.51.22.06.45-.07.51-.29.47-1.69.81-3.38.99-5.02,1.06-9.66-3.76-13.98-5.27-15.07-.03-.02-.06-.04-.1-.05Z"/>
    </g>
    <path class="cls-8" d="m1772.1,2297.33l28.51,27.98,36.69-39.05c4.81-5.12,6.52-12.43,4.47-19.15h0c-1.93-6.32-9.37-9.03-14.91-5.43l-54.76,35.65Z"/>
    <rect class="cls-4" x="1934.1" y="2578.74" width="24.24" height="68.28" transform="translate(-308.27 260.82) rotate(-7.11)"/>
    <path class="cls-6" d="m1960.5,2621.34l17.51,31.18-81.23,31.44-3.47-8.95c-2.12-5.48.07-11.69,5.16-14.62l17.84-10.28,24.1-20.08,20.09-8.68Z"/>
    <path class="cls-6" d="m1941.71,2631.06l-6.49-6.94c-2.02-2.16-5.42-2.25-7.55-.19h0c-2.95,2.85-1.67,7.82,2.28,8.91l7.71,2.12,4.04-3.9Z"/>
    <path class="cls-1" d="m1973.98,2587.96l-16.68-133.84c-1.79-14.38-14.91-24.59-29.29-22.8h0c-14.38,1.79-24.59,14.91-22.8,29.29l16.68,133.84,52.09-6.49Z"/>
    <path class="cls-1" d="m1914.56,2317.7s-9.63,36.59-9.63,98.22v38.5c0,14.5,11.75,26.25,26.25,26.25h0c14.5,0,26.25-11.75,26.25-26.25v-67.08l-1.17-68.48-41.69-1.16Z"/>
    <path class="cls-3" d="m1808.23,2200.89c-8.01,7.07-10.81,17.54-1.67,27.91.35.4,10.43,11.62,14.96,16.76,4.48,5.07,10.59,24.54,10.59,24.54l-.77-8.99c.2-3.56.97-7.41,3.46-10.15,5.18-5.71,2.39-8.66-.43-11.85l-17.72-20.02c2.96-5.9.95-15.01.95-15.01l2.14,4.18c2.55-3.56,1.9-8.6,1.18-11.58-4.37-.5-8.79.77-12.7,4.21Z"/>
  </g>
  <g>
    <path class="cls-10" d="m1791.15,992.18c7.05-8.56,19.89-12.84,33.74-13.85,13.85-.88,28.7,1.38,41.79,9.82,13.09,8.56,24.3,23.54,21.53,35.5-2.77,12.09-19.64,21.27-32.73,31.09-12.97,9.82-22.28,20.27-34.62,23.41-12.34,3.15-27.82-1.01-35-10.83-7.18-9.82-5.92-25.3-4.53-39.53,1.38-14.23,2.64-27.07,9.82-35.63"/>
    <path class="cls-10" d="m2208.64,583.42c11.46-5.66,21.4-7.18,34.24-10.07,12.84-2.9,28.7-7.18,35-1.51,6.29,5.66,3.27,21.53,1.89,35.88-1.38,14.35-1.13,27.44-7.43,38.52-6.29,11.08-19.39,20.39-33.49,21.53-14.23,1.13-29.46-5.79-40.91-16.99-11.46-11.08-19.13-26.44-16.37-39.02,2.77-12.59,15.61-22.66,27.07-28.32"/>
    <path class="cls-10" d="m2123.11,956.9c5.66-9.69,20.77-13.85,33.74-11.58,12.97,2.14,23.67,10.7,34.24,20.27,10.57,9.57,20.9,20.27,19.26,29.46-1.64,9.06-15.23,16.62-25.81,22.28-10.57,5.66-18.13,9.44-27.07,10.83-8.94,1.38-19.39.63-25.05-5.04-5.79-5.66-6.8-16.11-9.06-28.83-2.39-12.71-5.92-27.82-.25-37.39"/>
    <path class="cls-10" d="m1931.16,678.08c10.83,2.77,19.26,6.42,23.79,12.59,4.53,6.17,5.04,14.85,3.65,22.66-1.26,7.68-4.53,14.48-9.69,19.01s-12.21,6.8-22.66,9.44c-10.45,2.77-24.3,5.79-31.22.63s-6.92-18.76-5.92-32.1c1.01-13.34,3.02-26.44,10.57-31.85,7.55-5.54,20.65-3.27,31.47-.38"/>
    <path class="cls-6" d="m1956.68,795.23l-25.67-9.09c-10.96-3.88-20.91,2.67-24.79,13.63l-11.81,26.68c-3.88,10.96,1.86,22.99,12.82,26.87l25.67,9.09c10.96,3.88,22.99-1.86,26.87-12.82l9.73-27.49c3.88-10.96-1.86-22.99-12.82-26.87Z"/>
    <path class="cls-11" d="m2183.21,653.58c2.64,4.56-.96,7.42-5.92,10.23l-54.26,33.99c-5.92,3.22-13.24,1.46-16.36-3.92h0c-3.12-5.39-.85-12.36,5.07-15.58l58.62-26.48c5.06-2.62,10.21-2.79,12.85,1.77h0Z"/>
    <path class="cls-11" d="m2126.38,684.62c-2.27-5.68-8.66-8.5-14.38-6.35l-89.65,33.63c-5.76,2.3-8.57,8.84-6.27,14.61h0c2.3,5.77,8.84,8.57,14.61,6.27l89.2-33.47c5.9-2.21,8.82-8.84,6.49-14.69h0Z"/>
    <path class="cls-8" d="m2094.63,728.3l-14.6-39.73-56.65,22.23c-7.43,2.92-12.73,9.58-13.9,17.48h0c-1.1,7.42,5.23,13.82,12.66,12.82l72.49-12.8Z"/>
    <path class="cls-11" d="m2010.26,680.43h5.54c2.06,0,3.74,1.68,3.74,3.74v23.84c0,2.07-1.68,3.74-3.74,3.74h-5.54c-2.06,0-3.74-1.68-3.74-3.74v-23.84c0-2.06,1.68-3.74,3.74-3.74Z" transform="translate(490.9 -793.86) rotate(25.31)"/>
    <g>
      <path class="cls-11" d="m2006.17,673.69c.28-11.21,8.89-18.87,19.34-18.6,10.45.26,16.36,8.9,16.07,20.1-.28,11.21-4.45,19.19-14.85,18.11-10.67-1.11-20.85-8.4-20.57-19.61Z"/>
      <polygon class="cls-11" points="2040.29 676.87 2045.02 677.03 2039.98 682.52 2040.29 676.87"/>
      <path class="cls-3" d="m2025.16,655.08c-10.54-.27-20.17,4.24-20.52,17.87-.22,8.75,4.77,14.82,9.85,16.51l4.55-15.58c6.1-2.27,4.31-13.49,4.31-13.49,0,0,12.34,2.8,13.82.16-2.82-3.3-6.88-5.34-12-5.47Z"/>
      <path class="cls-11" d="m2020.83,675.16c-1.54-2.55-4.63-3.5-6.92-2.13-2.28,1.38-2.89,4.56-1.35,7.11,1.54,2.55,4.63,3.5,6.92,2.13,2.28-1.38,2.89-4.56,1.35-7.11Z"/>
    </g>
    <path class="cls-11" d="m1904.26,694.46c-5.09-1.32-10.31,1.68-11.72,6.75l-15.18,56.99c-1.56,6.01,2.05,12.14,8.06,13.7h0c6.01,1.56,12.14-2.05,13.7-8.06l12.12-57.81c1.21-5.11-1.89-10.25-6.97-11.57h0Z"/>
    <path class="cls-11" d="m1879.16,767.47c-3.6-4.94-2.59-11.85,2.27-15.56l76.17-58.02c5.02-3.66,12.05-2.55,15.7,2.46h0c3.66,5.02,2.55,12.05-2.46,15.7l-75.79,57.73c-5.01,3.82-12.18,2.77-15.89-2.32h0Z"/>
    <path class="cls-8" d="m1936.66,762.46l-28.81-31.01,45.48-40.44c5.96-5.3,14.31-7.01,21.88-4.48h0c7.11,2.38,9.96,10.92,5.69,17.09l-44.24,58.83Z"/>
    <g>
      <path class="cls-11" d="m1892.1,702.95l5.45-28.39c.27-1.45,1.69-2.38,3.13-2.04h0c1.31.31,2.16,1.59,1.95,2.92l-.6,3.34-4.47,24.87-5.46-.7Z"/>
      <path class="cls-11" d="m1897.75,697.71l5.65-25.46c.24-1.49,1.64-2.51,3.14-2.29h0c1.51.22,2.55,1.62,2.34,3.12l-.64,4.3-3.43,21.76-7.06-1.43Z"/>
      <path class="cls-11" d="m1902.29,700.52l7.01-27.98c.22-1.53,1.57-2.62,3.11-2.52h0c1.68.11,2.92,1.61,2.72,3.28l-.64,4.18-3.09,21.19-9.11,1.84Z"/>
      <path class="cls-11" d="m1904.57,700.89l10.88-26.39c.46-1.42,1.95-2.23,3.39-1.86h0c1.56.4,2.47,2.02,2,3.56l-3.36,9.94-6.9,15.7-6.01-.96Z"/>
      <path class="cls-11" d="m1910.92,707.53s4.69-8.55,7.86-12.23c2-2.33,5.45-6.44,7.71-9.15,1.22-1.46.97-3.64-.54-4.8h0c-1.49-1.14-3.58-1.04-4.96.23l-8.3,7.64-4.66,9.86-12.67-3.32-1.29,10.25,16.85,1.52Z"/>
      <path class="cls-3" d="m1906.43,683.72s-.02,0-.03,0c-.34-.08-.55-.43-.47-.77l1.94-8.06c.08-.34.46-.55.77-.47.34.08.55.43.47.77l-1.94,8.06c-.08.33-.4.54-.73.48Z"/>
      <path class="cls-3" d="m1901.59,681.19h0c-.34-.07-.57-.4-.51-.74l.96-5.09c.06-.34.39-.57.74-.51.29.04.57.4.51.74l-.96,5.09c-.06.34-.39.57-.74.51Z"/>
      <path class="cls-3" d="m1912.52,685.25s-.02,0-.03,0c-.34-.08-.55-.43-.47-.77l1.94-8.06c.08-.34.46-.55.77-.47.34.08.55.43.47.77l-1.94,8.06c-.08.33-.4.54-.73.48Z"/>
    </g>
    <path class="cls-11" d="m1931.98,840.26h0c3.55-9.53-1.29-20.13-10.82-23.69l-118.92-44.34c-9.53-3.55-20.13,1.29-23.69,10.82h0c-3.55,9.53,1.29,20.13,10.82,23.69l118.92,44.34c9.53,3.55,20.13-1.29,23.69-10.82Z"/>
    <path class="cls-11" d="m1787.74,772.43l-2.89.92c-8.86,2.83-13.72,12.35-10.81,21.19l54.14,164.4c2.88,8.73,12.25,13.51,21.01,10.71h0c8.76-2.8,13.62-12.13,10.9-20.91l-51.25-165.33c-2.76-8.89-12.23-13.83-21.09-10.99Z"/>
    <path class="cls-8" d="m1860.49,946.29l17.13,35.79-84.14,26.89c-2.51.8-5.18-.58-5.99-3.09l-1.8-5.62c-1.99-6.21.69-12.9,6.29-15.74l19.66-9.95,17.17-18.16,31.67-10.12Z"/>
    <path class="cls-8" d="m1833.83,957.47l-6.59-8.17c-2.05-2.54-5.69-2.9-8.08-.8h0c-3.31,2.92-2.2,8.5,1.98,10.01l8.15,2.94,4.54-3.99Z"/>
    <path class="cls-6" d="m1938.26,842.25c4.25-11.39-1.86-24.19-13.63-28.58l-99.18-36.98-15.38,41.26,99.18,36.98c11.78,4.39,24.77-1.29,29.02-12.68h0Z"/>
    <path class="cls-11" d="m1938.7,810.42h0c-10.17.18-18.26,8.57-18.08,18.74l2.28,126.9c.18,10.17,8.57,18.26,18.74,18.08h0c10.17-.18,18.26-8.57,18.08-18.74l-2.28-126.9c-.18-10.17-8.57-18.26-18.74-18.08Z"/>
    <path class="cls-11" d="m1924.24,957.82l.62,2.97c1.89,9.11,10.84,14.94,19.94,12.97l169.17-36.61c8.98-1.94,14.72-10.77,12.86-19.77h0c-1.87-9-10.64-14.82-19.65-13.03l-169.79,33.64c-9.13,1.81-15.03,10.71-13.14,19.83Z"/>
    <path class="cls-8" d="m2104.76,903.7l37.39-13.29,14.78,86.5c.53,2.58-1.12,5.1-3.7,5.63l-5.78,1.2c-6.39,1.32-12.75-2.03-14.99-7.91l-.79-10.34-3.9-10.25-16.26-18.98-6.75-32.55Z"/>
    <path class="cls-8" d="m2113.09,931.38l-8.81,5.69c-2.75,1.77-3.49,5.35-1.64,7.95h0c2.55,3.59,8.23,3.08,10.16-.92l3.78-7.8-3.49-4.93Z"/>
    <path class="cls-6" d="m1938.25,803.85c-12.16.22-21.83,10.58-21.61,23.15l1.91,105.83,44.03-.79-1.91-105.83c-.23-12.57-10.27-22.58-22.42-22.36h0Z"/>
    <path class="cls-3" d="m1927.61,860.97l-22.37-7.92c-.33-.12-.5-.48-.39-.81s.48-.5.81-.39l22.37,7.92c.33.12.5.48.39.81s-.48.5-.81.39Z"/>
    <polygon class="cls-8" points="2005.53 697.01 1974.74 686.44 1903.47 795.64 1974.49 834.95 2033.92 721.62 2015.61 702.9 2005.53 697.01"/>
    <path class="cls-11" d="m2163.34,659.54s7.09-19.62,18.17-28.89c9.88-8.27,18.37-6.78,21.67-5.63.84.29,1.37,1.1,1.31,1.99h0c-.1,1.47-1.23,2.67-2.69,2.87-1.76.24-4.36.84-7.47,2.24-5.92,2.67-11.59,11.97-11.59,11.97l-7.98,16.38-11.42-.92Z"/>
    <path class="cls-11" d="m2179.1,663.46s6.21-13.19,10.29-19.62c4.07-6.43,2.61-7.97.5-9.16-3.33-1.88-7.4,4.16-9.84,8.01-2.44,3.85-4.43,3.2-4.43,3.2l-4.1,18.08,7.58-.5Z"/>
    <path class="cls-11" d="m2168.24,659.73s4.25-17.08,16.58-27.94c9.64-8.49,18.31-6.79,21.64-5.64.86.29,1.4,1.13,1.34,2.03h0c-.1,1.45-1.21,2.63-2.65,2.83-1.76.24-4.37.83-7.5,2.24-5.92,2.67-11.59,11.97-11.59,11.97l-7.98,16.38-9.83-1.87Z"/>
    <path class="cls-11" d="m2166.7,656.26s7.37-13.87,19.78-21.75c8.73-5.55,14.92-4.27,17.82-3.03,1.09.47,1.63,1.71,1.24,2.83h0c-.31.9-1.17,1.51-2.12,1.5-1.45,0-3.84.18-6.99,1.15-5.37,1.66-12.07,8.88-12.07,8.88l-10.2,12.93-7.46-2.51Z"/>
    <path class="cls-11" d="m2164.46,659.8s7.37-13.87,19.78-21.75c9.36-5.95,15.8-4.05,18.4-2.77.76.38,1.12,1.26.84,2.06h0c-.41,1.19-1.52,1.98-2.77,2.01-1.47.03-3.92-.26-6.52,1.15-9.83,5.34-5.64,10.75-10.02,17.68-7,11.05-12.25,4.13-12.25,4.13l-7.46-2.51Z"/>
    <path class="cls-3" d="m2203.55,635.12c.58.39,1.22,1.06.88,2.03-.11.31-.45.48-.76.37-.32-.11-.48-.45-.37-.75.05-.14.14-.41-.94-.95-2.3-1.14-8.5-2.99-16.53,4.44-.24.22-.62.21-.84-.03-.22-.24-.21-.62.03-.84,8.57-7.93,15.35-5.88,17.87-4.64.15.08.4.2.65.37Z"/>
    <path class="cls-3" d="m2205.42,630.95c.23.16.33.46.21.73-.13.3-.48.44-.78.31-2.8-1.2-10.17-3.31-18.01,2.98-.88.7-1.87,1.79-3.02,3.05-.42.46-.86.94-1.33,1.44-.22.24-.6.26-.84.03-.24-.22-.25-.6-.03-.84.46-.5.9-.97,1.32-1.43,1.19-1.29,2.21-2.41,3.15-3.17,8.34-6.7,16.22-4.43,19.22-3.15.04.01.07.03.1.05Z"/>
    <path class="cls-3" d="m2206.71,625.15c.22.15.32.43.23.69-.11.31-.45.48-.76.37-2.38-.82-10.93-2.81-20.98,6.03-1.73,1.52-3.4,3.27-4.97,5.18-.21.25-.58.28-.84.08-.25-.21-.29-.58-.08-.84,1.61-1.96,3.32-3.75,5.1-5.32,10.52-9.26,19.61-7.14,22.15-6.26.05.02.1.04.14.07Z"/>
  </g>
  <text class="cls-16" transform="translate(1575.57 4944.91)"><tspan x="0" y="0">Heel hook</tspan></text>
  <text class="cls-12" transform="translate(1576.44 5008.22)"><tspan x="0" y="0" xml:space="preserve">발뒤꿈치로 홀드를 걸어 당겨서  균형을 잡거나 이동 동작을 취할 때 사용</tspan></text>
  <text class="cls-15" transform="translate(912.37 4109.82)"><tspan class="cls-17" x="0" y="0">T</tspan><tspan x="40.65" y="0">oe hook</tspan></text>
  <text class="cls-12" transform="translate(894.85 4173.12)"><tspan x="0" y="0">발등으로 홀드를 걸어 균형을 유지하는 동작</tspan></text>
  <text class="cls-15" transform="translate(1575.57 3127.91)"><tspan x="0" y="0">Lunge</tspan></text>
  <text class="cls-12" transform="translate(1576.44 3191.22)"><tspan x="0" y="0">두발 중에 한발만 붙어있는 동작을 유지하며 다음 홀드를 뛰어잡는 기술</tspan></text>
  <text class="cls-15" transform="translate(925.37 2324.82)"><tspan x="0" y="0">Knee </tspan><tspan class="cls-14" x="227.19" y="0">b</tspan><tspan x="278.82" y="0">ar</tspan></text>
  <text class="cls-12" transform="translate(777.61 2388.12)"><tspan x="0" y="0">큰 홀드 두 개에 지렛대처럼 무릎을 받쳐서 의지하는 동작</tspan></text>
  <text class="cls-15" transform="translate(863.37 872.82)"><tspan x="0" y="0">D</tspan><tspan class="cls-18" x="62.63" y="0">r</tspan><tspan x="95.28" y="0">op knee</tspan></text>
  <text class="cls-13" transform="translate(1046.79 936.12)"><tspan x="0" y="0">양 발로 홀드를 디딘 상태에서</tspan><tspan x="-262.12" y="21.6">전진방향으로 몸통을 돌려주어서 무릎이 아래로 내려가는 동작</tspan></text>
  <g>
    <path class="cls-10" d="m1265.83,1347.32c-5.85,13.84-10.04,24.16-17.74,29.41-7.7,5.25-18.81,5.34-33.51,6.48-14.7,1.14-33.35,3.26-43.93-4.95-10.58-8.2-13.33-26.86-7.29-40.22,5.97-13.46,20.55-21.65,33.17-26.1,12.73-4.52,23.39-5.23,38.15-6.72,14.76-1.49,33.44-3.79,39.16,3.72,5.3,7.35-2.17,24.54-8.02,38.38"/>
    <path class="cls-10" d="m820.05,1428.16c10.83-10.32,18.88-18.13,28.07-19.89,9.06-1.76,19.39,2.52,33.36,7.43,14.1,4.91,31.85,10.2,38.4,22.03,6.42,11.83,1.51,29.84-9.32,39.78-10.83,9.95-27.44,11.71-40.91,10.83-13.47-.88-23.54-4.53-37.64-9.06-14.1-4.53-32.23-9.95-34.37-19.01-2.27-9.06,11.46-21.78,22.41-32.1"/>
    <polygon class="cls-4" points="1019.37 1895.51 1040.44 1826.58 1064.91 1834.06 1040.31 1901.91 1019.37 1895.51"/>
    <path class="cls-6" d="m1024.34,1876.65l-28.5,24.75,69.52,60.17,6.63-7.66c4.06-4.69,4.09-11.64.08-16.37l-14.07-16.57-16.79-28.53-16.87-15.78Z"/>
    <path class="cls-6" d="m1040.65,1893.96l8.92-4.59c2.78-1.43,6.19-.3,7.57,2.5h0c1.91,3.88-1.12,8.37-5.44,8.04l-8.42-.64-2.63-5.31Z"/>
    <polygon class="cls-4" points="1142.62 1922.75 1142.62 1850.67 1168.21 1850.67 1164.52 1922.75 1142.62 1922.75"/>
    <path class="cls-6" d="m1141.86,1903.27l-20.02,32,84.07,37.22,4.1-9.27c2.51-5.67.51-12.33-4.71-15.68l-18.3-11.74-24.4-22.38-20.74-10.16Z"/>
    <path class="cls-6" d="m1162.52,1915.05l7.19-6.99c2.24-2.18,5.83-2.1,7.97.18h0c2.96,3.15,1.37,8.33-2.85,9.28l-8.24,1.85-4.07-4.31Z"/>
    <path class="cls-4" d="m1094.84,1468.61h5.38c2.07,0,3.74,1.68,3.74,3.74v23.45c0,2.06-1.68,3.74-3.74,3.74h-5.38c-2.06,0-3.74-1.68-3.74-3.74v-23.45c0-2.06,1.68-3.74,3.74-3.74Z"/>
    <path class="cls-4" d="m1094.84,1468.55h5.38c2.07,0,3.74,1.68,3.74,3.74v23.45c0,2.06-1.68,3.74-3.74,3.74h-5.38c-2.06,0-3.74-1.68-3.74-3.74v-23.45c0-2.06,1.68-3.74,3.74-3.74Z"/>
    <path class="cls-4" d="m1077.67,1470.98c-7.21-8.4-5.96-19.72,1.88-26.44,7.84-6.72,17.88-4.3,25.09,4.11,7.21,8.4,9.43,17.01,1.09,23.11-8.56,6.25-20.85,7.63-28.05-.77Z"/>
    <polygon class="cls-4" points="1104.79 1450.74 1108.36 1447.73 1108.3 1455.09 1104.79 1450.74"/>
    <path class="cls-8" d="m1079.28,1444.77c-7.9,6.78-11.99,16.46-3.22,26.68,5.63,6.56,13.3,7.72,18.15,5.59l-6.97-14.43c2.97-5.7,1.13-14.61,1.13-14.61l2.03,4.1c2.54-3.43,1.97-8.35,1.31-11.26-4.25-.55-8.57.63-12.42,3.93Z"/>
    <path class="cls-4" d="m1089.39,1462.36c-2.81-.85-5.71.5-6.48,3.02-.76,2.52.9,5.25,3.71,6.11,2.81.85,5.72-.5,6.48-3.02.76-2.52-.9-5.25-3.71-6.11Z"/>
    <g id="_왼쪽_종아리-2" data-name="왼쪽 종아리">
      <path class="cls-3" d="m1055.68,1875.93l38.08-141.27c3.41-12.66-2.61-25.29-13.45-28.22h0c-10.84-2.92-22.4,4.97-25.81,17.63l-38.08,141.27,39.26,10.58Z"/>
    </g>
    <g id="_왼쪽_허벅지-2" data-name="왼쪽 허벅지">
      <path class="cls-3" d="m1074.39,1592.47c11.23,0,20.33,10.2,20.33,22.78v108.15c0,11.73-9.1,21.25-20.33,21.25h0c-11.23,0-20.33-9.51-20.33-21.25v-108.15c0-12.58,9.1-22.78,20.33-22.78h0Z"/>
    </g>
    <g id="_오른쪽_종아리-2" data-name="오른쪽 종아리">
      <path class="cls-3" d="m1175.16,1872.96l-9.85-145.98c-.88-13.08-10.84-23.07-22.23-22.3h0c-11.39.77-19.91,12-19.03,25.08l9.85,145.98,41.26-2.78Z"/>
    </g>
    <g id="_오른쪽_허벅지-2" data-name="오른쪽 허벅지">
      <path class="cls-3" d="m1117.25,1597.52c11.17-2.39,22.39,5.81,25.08,18.32l22.59,105.36c2.46,11.47-4.6,22.72-15.76,25.11h0c-11.17,2.39-22.21-4.97-24.67-16.44l-22.59-105.36c-2.68-12.51,4.19-24.6,15.36-26.99h0Z"/>
    </g>
    <g id="_코어-3" data-name="코어">
      <g id="_코어-4" data-name="코어">
        <rect class="cls-3" x="1053.85" y="1579.97" width="87.85" height="70.37" rx="21.05" ry="21.05" transform="translate(2195.55 3230.31) rotate(180)"/>
      </g>
      <path class="cls-7" d="m1108.28,1650.96h-23.43c-.35,0-.63-.28-.63-.63s.28-.63.63-.63h23.43c.35,0,.63.28.63.63s-.28.63-.63.63Z"/>
    </g>
    <g id="_오른쪽_손-3" data-name="오른쪽 손">
      <g>
        <path class="cls-4" d="m1167.52,1349.19s6.36-20.15,19.45-29.68c10.99-8.01,19.4-7.12,22.88-5.9.88.31,1.45,1.17,1.38,2.1h0c-.11,1.56-1.3,2.81-2.84,3.02-1.86.25-4.6.87-7.89,2.35-6.25,2.81-12.26,12.61-12.26,12.61l-8.46,17.28-12.28-1.77Z"/>
        <path class="cls-4" d="m1184.37,1354.13s6.58-13.91,10.9-20.69c4.31-6.78,2.77-8.41.55-9.67-3.51-1.99-7.82,4.38-10.4,8.44-2.58,4.06-4.68,3.36-4.68,3.36l-4.36,19.07,8-.51Z"/>
        <path class="cls-4" d="m1172.91,1350.17s4.52-18.02,17.55-29.46c10.19-8.94,19.34-7.13,22.85-5.92.9.31,1.48,1.19,1.41,2.15h0c-.11,1.54-1.28,2.78-2.8,2.98-1.86.25-4.62.87-7.92,2.35-6.25,2.81-12.26,12.61-12.26,12.61l-8.46,17.28-10.38-1.99Z"/>
        <path class="cls-4" d="m1171.29,1346.5s7.8-14.63,20.92-22.92c9.23-5.84,15.76-4.48,18.82-3.17,1.15.5,1.72,1.81,1.31,2.99h0c-.33.95-1.23,1.59-2.24,1.58-1.53-.01-4.06.18-7.38,1.2-5.67,1.74-12.76,9.35-12.76,9.35l-10.79,13.62-7.86-2.67Z"/>
        <path class="cls-4" d="m1168.91,1350.23s7.8-14.63,20.92-22.92c9.89-6.26,16.69-4.25,19.43-2.88.8.4,1.18,1.33.88,2.18h0c-.43,1.25-1.61,2.09-2.93,2.12-1.55.03-4.14-.28-6.88,1.2-10.39,5.62-5.97,11.34-10.61,18.64-7.41,11.65-12.94,4.33-12.94,4.33l-7.86-2.67Z"/>
        <path class="cls-3" d="m1209.47,1323.83l.07.04c.53.26,2.13,1.06,1.61,2.54-.11.33-.47.5-.8.39-.32-.11-.5-.47-.39-.8.05-.15.15-.44-.99-1.01l-.06-.03c-2.47-1.21-8.98-3.07-17.39,4.69-.26.23-.65.22-.89-.04s-.22-.65.04-.89c8.98-8.28,16.09-6.22,18.79-4.9Z"/>
        <path class="cls-3" d="m1212.13,1319.82c.3.15.43.5.3.81-.14.32-.51.47-.82.33-2.96-1.27-10.73-3.52-19.01,3.11-.93.74-1.98,1.89-3.2,3.21-.44.48-.91.99-1.4,1.51-.24.25-.64.26-.89.03-.25-.24-.26-.63-.03-.89.49-.52.95-1.02,1.39-1.5,1.25-1.36,2.34-2.54,3.34-3.34,8.81-7.05,17.12-4.64,20.29-3.28h.03Z"/>
        <path class="cls-3" d="m1213.5,1313.7c.28.14.42.47.32.77-.11.33-.47.5-.8.39-2.51-.87-11.53-2.98-22.15,6.33-1.83,1.61-3.6,3.44-5.25,5.46-.22.27-.62.31-.88.09-.27-.22-.31-.61-.09-.88,1.7-2.07,3.51-3.95,5.39-5.6,11.12-9.76,20.71-7.5,23.39-6.57.02,0,.05.02.07.03Z"/>
      </g>
    </g>
    <g id="_오른쪽_손-4" data-name="오른쪽 손">
      <g>
        <path class="cls-4" d="m924.18,1435.55s-14.49-15.37-30.43-18.26c-13.38-2.42-20.57,2.03-23.17,4.64-.66.66-.79,1.68-.33,2.49h0c.77,1.35,2.39,1.97,3.88,1.48,1.79-.58,4.52-1.22,8.12-1.32,6.85-.19,16.52,6.02,16.52,6.02l15.13,11.88,10.28-6.94Z"/>
        <path class="cls-4" d="m911.17,1447.33s-11.98-9.66-18.81-13.89c-6.83-4.23-6.15-6.37-4.7-8.47,2.3-3.32,8.94.54,13.04,3.07,4.09,2.53,5.68.99,5.68.99l12.22,15.27-7.42,3.02Z"/>
        <path class="cls-4" d="m919.76,1438.78s-11.91-14.26-28.62-18.88c-13.07-3.61-20.52,2-23.15,4.62-.68.67-.81,1.72-.34,2.55h0c.76,1.34,2.36,1.94,3.82,1.46,1.79-.58,4.53-1.23,8.16-1.33,6.85-.19,16.52,6.02,16.52,6.02l15.13,11.88,8.47-6.31Z"/>
        <path class="cls-4" d="m919.62,1434.77s-13.39-9.77-28.81-11.53c-10.85-1.24-16.14,2.82-18.32,5.34-.82.95-.76,2.37.13,3.26h0c.71.72,1.8.9,2.71.45,1.37-.68,3.73-1.6,7.17-2.13,5.86-.9,15.56,2.87,15.56,2.87l15.65,7.57,5.92-5.82Z"/>
        <path class="cls-4" d="m923.38,1437.1s-13.39-9.77-28.81-11.53c-11.63-1.33-16.87,3.44-18.75,5.86-.55.71-.48,1.71.15,2.34h0c.94.94,2.36,1.18,3.56.63,1.41-.65,3.6-2.06,6.72-1.91,11.8.54,10.31,7.61,17.67,12.17,11.74,7.27,13.53-1.73,13.53-1.73l5.92-5.82Z"/>
        <path class="cls-3" d="m875.38,1430.98l-.05.06c-.36.47-1.45,1.88-.35,2.99.24.24.64.25.89,0,.24-.24.25-.64,0-.89-.11-.11-.33-.33.45-1.34l.04-.06c1.7-2.16,6.75-6.67,17.7-3.35.33.1.68-.09.78-.42s-.09-.68-.42-.78c-11.69-3.55-17.19,1.4-19.05,3.77Z"/>
        <path class="cls-3" d="m871.24,1428.52c-.21.26-.17.64.08.86.26.23.66.2.89-.06,2.11-2.43,8.13-7.84,18.47-5.47,1.16.26,2.6.84,4.28,1.5.61.24,1.25.49,1.92.75.32.12.69-.04.81-.36.12-.32-.04-.69-.36-.81-.67-.25-1.3-.51-1.91-.75-1.72-.68-3.21-1.27-4.46-1.56-11-2.51-17.44,3.27-19.7,5.87l-.02.02Z"/>
        <path class="cls-3" d="m867.34,1423.62c-.19.25-.18.6.05.83.24.25.64.25.89,0,1.88-1.88,9.09-7.71,22.7-3.94,2.35.65,4.74,1.53,7.1,2.63.31.15.69,0,.83-.31.15-.31,0-.69-.31-.83-2.43-1.12-4.88-2.03-7.3-2.7-14.26-3.94-21.91,2.27-23.91,4.26-.02.02-.04.04-.05.06Z"/>
      </g>
    </g>
    <g id="_오른쪽_하박_팔-3" data-name="오른쪽 하박 팔">
      <path class="cls-4" d="m1183.37,1335.71c-4.82-1.93-10.31.36-12.33,5.14l-29.67,70.25c-2.27,5.69.5,12.15,6.19,14.43h0c5.69,2.28,12.15-.49,14.43-6.19l26.77-71.43c1.82-4.86-.57-10.27-5.39-12.2h0Z"/>
    </g>
    <g id="_오른쪽_하박_팔-4" data-name="오른쪽 하박 팔">
      <path class="cls-4" d="m907.44,1434.89c2.58-4.51,8.3-6.13,12.85-3.63l66.91,36.59c5.32,3.05,7.16,9.83,4.12,15.15h0c-3.04,5.32-9.83,7.17-15.15,4.12l-65.37-39.32c-4.44-2.67-5.94-8.4-3.36-12.91h0Z"/>
    </g>
    <g id="_오른쪽_상박_팔-3" data-name="오른쪽 상박 팔">
      <path class="cls-4" d="m1154.21,1404.64c-5.86-1.45-11.81,2.05-13.38,7.88l-24.65,91.28c-1.47,5.95,2.16,11.97,8.11,13.44h0c5.95,1.47,11.97-2.16,13.44-8.11l24.53-90.83c1.62-6-2.01-12.17-8.05-13.66h0Z"/>
    </g>
    <g id="_오른쪽_상박_팔-4" data-name="오른쪽 상박 팔">
      <path class="cls-4" d="m970.13,1473.16c2.14-5.64,8.41-8.54,14.1-6.51l89.07,31.71c5.73,2.18,8.61,8.59,6.43,14.32h0c-2.18,5.73-8.59,8.61-14.32,6.43l-88.63-31.56c-5.86-2.09-8.86-8.58-6.65-14.4h0Z"/>
    </g>
    <g id="_오른쪽_소매-3" data-name="오른쪽 소매">
      <path class="cls-1" d="m1166.16,1447.78l-44.29-6.74-7.74,59.6c-1.01,7.82,2.23,15.58,8.5,20.35h0c5.9,4.48,14.45,2.06,17.12-4.85l26.41-68.35Z"/>
    </g>
    <g id="_오른쪽_소매-4" data-name="오른쪽 소매">
      <path class="cls-1" d="m998.78,1507.55l19.68-40.25,53.4,27.58c7,3.62,11.54,10.7,11.88,18.58h0c.33,7.4-6.53,13.05-13.73,11.31l-71.23-17.22Z"/>
    </g>
    <g id="_몸통-2" data-name="몸통">
      <polygon class="cls-1" points="1105.69 1489.67 1140.04 1494.32 1142.99 1612.39 1052.84 1611.68 1057.4 1494.04 1092.73 1489.82 1105.69 1489.67"/>
    </g>
  </g>
  <text class="cls-15" transform="translate(1575.57 1588.91)"><tspan x="0" y="0">Campus</tspan></text>
  <text class="cls-13" transform="translate(1576.44 1652.22)"><tspan x="0" y="0">발을 쓰지 않고 손으로만 가는 동작</tspan></text>
</svg>